M48
;DRILL file {KiCad no-vcs-found-bf44d39~61~ubuntu17.10.1} date Thu Jan  4 13:29:12 2018
;FORMAT={-:-/ absolute / inch / decimal}
FMAT,2
INCH,TZ
T1C0.0157
T2C0.0315
T3C0.0394
%
G90
G05
M72
T1
X5.8Y-3.625
X5.85Y-2.45
X5.85Y-2.75
X5.85Y-2.9
X5.85Y-3.
X5.85Y-3.15
X5.9Y-3.525
X5.9Y-3.9
X5.925Y-3.325
X5.95Y-3.
X5.95Y-3.625
X5.975Y-3.525
X6.Y-2.75
X6.01Y-2.88
X6.05Y-3.05
X6.05Y-3.83
X6.06Y-2.94
X6.075Y-3.325
X6.125Y-3.375
X6.125Y-3.525
X6.125Y-3.875
X6.15Y-2.75
X6.15Y-2.91
X6.175Y-3.2
X6.2Y-3.54
X6.2Y-3.67
X6.2Y-3.83
X6.22Y-3.03
X6.28Y-3.23
X6.3Y-3.43
X6.3Y-3.575
X6.3Y-3.875
X6.35Y-2.54
X6.4Y-2.69
X6.4Y-3.54
X6.4Y-3.67
X6.4Y-3.83
X6.41Y-2.95
X6.4109Y-3.2509
X6.44Y-2.89
X6.44Y-3.01
X6.46Y-3.39
X6.5Y-3.575
X6.5Y-3.875
X6.51Y-2.54
X6.6Y-3.525
X6.6Y-3.67
X6.6Y-3.67
X6.6Y-3.83
X6.625Y-2.45
X6.6394Y-3.1759
X6.7Y-3.125
X6.7Y-3.425
X6.7Y-3.575
X6.7Y-3.875
X6.75Y-2.3
X6.8Y-2.84
X6.8Y-3.45
X6.8Y-3.67
X6.8Y-3.83
X6.81Y-3.34
X6.85Y-2.45
X6.85Y-2.675
X6.87Y-3.21
X6.875Y-3.45
X6.9Y-3.675
X6.9Y-3.875
X6.95Y-2.75
X6.95Y-2.86
X6.95Y-3.275
X7.Y-2.55
X7.Y-3.67
X7.Y-3.83
X7.Y-3.89
X7.025Y-3.225
X7.04Y-2.94
X7.1Y-2.91
X7.1Y-3.4
X7.1Y-3.85
X7.14Y-2.88
X7.15Y-2.65
X7.16Y-3.61
X7.18Y-2.85
X7.2Y-2.4
X7.2Y-3.5
X7.2Y-3.67
X7.2Y-3.83
X7.22Y-2.82
X7.23Y-2.72
X7.23Y-3.88
X7.25Y-3.1
X7.25Y-3.15
X7.3Y-3.1
X7.3Y-3.15
X7.3Y-3.6
X7.35Y-3.1
X7.35Y-3.15
X7.37Y-2.71
X7.4Y-2.4
X7.4Y-3.1
X7.4Y-3.15
X7.45Y-3.1
X7.45Y-3.15
X7.5Y-3.6
X7.5Y-4.
X7.52Y-2.44
X7.52Y-2.57
X7.53Y-2.72
X7.53Y-2.8
X7.6Y-3.15
X7.66Y-2.71
X7.7Y-3.25
X7.7Y-4.
X7.75Y-2.9
X7.79Y-2.53
X7.8Y-3.4
X7.9Y-4.
X7.91Y-2.47
X7.95Y-2.675
X7.96Y-3.31
X8.Y-2.4
X8.Y-3.8
X8.05Y-3.1
X8.075Y-2.675
X8.1Y-3.6
X8.1Y-4.
X8.2Y-3.35
T2
X7.025Y-2.397
X7.025Y-2.653
X6.3579Y-3.375
X6.55Y-3.375
T3
X5.7Y-2.65
X5.7Y-2.75
X5.7Y-2.85
X5.7Y-2.95
X5.7Y-3.05
X5.7Y-3.15
X5.7Y-3.25
X5.7Y-3.35
X5.7Y-3.45
X5.75Y-3.95
X5.75Y-4.05
X5.85Y-3.95
X5.85Y-4.05
X5.95Y-3.95
X5.95Y-4.05
X6.05Y-3.95
X6.05Y-4.05
X6.15Y-3.95
X6.15Y-4.05
X6.25Y-3.95
X6.25Y-4.05
X6.35Y-3.95
X6.35Y-4.05
X6.45Y-3.95
X6.45Y-4.05
X6.55Y-3.95
X6.55Y-4.05
X6.65Y-3.95
X6.65Y-4.05
X6.75Y-3.95
X6.75Y-4.05
X6.85Y-3.95
X6.85Y-4.05
X6.95Y-3.95
X6.95Y-4.05
X7.05Y-3.95
X7.05Y-4.05
X7.15Y-3.95
X7.15Y-4.05
X7.25Y-3.95
X7.25Y-4.05
X7.35Y-3.95
X7.35Y-4.05
X7.6024Y-3.65
X7.7008Y-3.65
X7.7992Y-3.65
X7.8976Y-3.65
X6.15Y-2.4
X6.25Y-2.4
X6.35Y-2.4
X6.45Y-2.4
T0
M30
