G04 #@! TF.GenerationSoftware,KiCad,Pcbnew,no-vcs-found-bf44d39~61~ubuntu17.10.1*
G04 #@! TF.CreationDate,2018-01-04T13:29:05+03:00*
G04 #@! TF.ProjectId,FloppyEmulator,466C6F707079456D756C61746F722E6B,rev?*
G04 #@! TF.SameCoordinates,Original*
G04 #@! TF.FileFunction,Copper,L2,Bot,Signal*
G04 #@! TF.FilePolarity,Positive*
%FSLAX46Y46*%
G04 Gerber Fmt 4.6, Leading zero omitted, Abs format (unit mm)*
G04 Created by KiCad (PCBNEW no-vcs-found-bf44d39~61~ubuntu17.10.1) date Thu Jan  4 13:29:05 2018*
%MOMM*%
%LPD*%
G01*
G04 APERTURE LIST*
%ADD10C,0.200000*%
%ADD11R,1.524000X1.524000*%
%ADD12C,1.524000*%
%ADD13C,1.800000*%
%ADD14C,0.100000*%
%ADD15C,1.000000*%
%ADD16C,1.500000*%
%ADD17R,1.700000X1.700000*%
%ADD18O,1.700000X1.700000*%
%ADD19R,0.750000X0.800000*%
%ADD20R,0.800000X0.750000*%
%ADD21R,1.000000X2.500000*%
%ADD22C,0.900000*%
%ADD23C,0.500000*%
%ADD24C,1.000000*%
%ADD25C,0.250000*%
%ADD26C,0.254000*%
G04 APERTURE END LIST*
D10*
X207521047Y-99295857D02*
X207037238Y-99295857D01*
X207339619Y-98872523D02*
X207339619Y-99961095D01*
X207279142Y-100082047D01*
X207158190Y-100142523D01*
X207037238Y-100142523D01*
X206613904Y-99295857D02*
X206613904Y-100142523D01*
X206613904Y-99416809D02*
X206553428Y-99356333D01*
X206432476Y-99295857D01*
X206251047Y-99295857D01*
X206130095Y-99356333D01*
X206069619Y-99477285D01*
X206069619Y-100142523D01*
X205646285Y-99295857D02*
X205162476Y-99295857D01*
X205464857Y-98872523D02*
X205464857Y-99961095D01*
X205404380Y-100082047D01*
X205283428Y-100142523D01*
X205162476Y-100142523D01*
X204799619Y-98993476D02*
X204739142Y-98933000D01*
X204618190Y-98872523D01*
X204315809Y-98872523D01*
X204194857Y-98933000D01*
X204134380Y-98993476D01*
X204073904Y-99114428D01*
X204073904Y-99235380D01*
X204134380Y-99416809D01*
X204860095Y-100142523D01*
X204073904Y-100142523D01*
X203650571Y-98872523D02*
X202864380Y-98872523D01*
X203287714Y-99356333D01*
X203106285Y-99356333D01*
X202985333Y-99416809D01*
X202924857Y-99477285D01*
X202864380Y-99598238D01*
X202864380Y-99900619D01*
X202924857Y-100021571D01*
X202985333Y-100082047D01*
X203106285Y-100142523D01*
X203469142Y-100142523D01*
X203590095Y-100082047D01*
X203650571Y-100021571D01*
X201412952Y-98812047D02*
X202501523Y-100444904D01*
X201050095Y-98993476D02*
X200989619Y-98933000D01*
X200868666Y-98872523D01*
X200566285Y-98872523D01*
X200445333Y-98933000D01*
X200384857Y-98993476D01*
X200324380Y-99114428D01*
X200324380Y-99235380D01*
X200384857Y-99416809D01*
X201110571Y-100142523D01*
X200324380Y-100142523D01*
X199538190Y-98872523D02*
X199417238Y-98872523D01*
X199296285Y-98933000D01*
X199235809Y-98993476D01*
X199175333Y-99114428D01*
X199114857Y-99356333D01*
X199114857Y-99658714D01*
X199175333Y-99900619D01*
X199235809Y-100021571D01*
X199296285Y-100082047D01*
X199417238Y-100142523D01*
X199538190Y-100142523D01*
X199659142Y-100082047D01*
X199719619Y-100021571D01*
X199780095Y-99900619D01*
X199840571Y-99658714D01*
X199840571Y-99356333D01*
X199780095Y-99114428D01*
X199719619Y-98993476D01*
X199659142Y-98933000D01*
X199538190Y-98872523D01*
X197905333Y-100142523D02*
X198631047Y-100142523D01*
X198268190Y-100142523D02*
X198268190Y-98872523D01*
X198389142Y-99053952D01*
X198510095Y-99174904D01*
X198631047Y-99235380D01*
X197179619Y-99416809D02*
X197300571Y-99356333D01*
X197361047Y-99295857D01*
X197421523Y-99174904D01*
X197421523Y-99114428D01*
X197361047Y-98993476D01*
X197300571Y-98933000D01*
X197179619Y-98872523D01*
X196937714Y-98872523D01*
X196816761Y-98933000D01*
X196756285Y-98993476D01*
X196695809Y-99114428D01*
X196695809Y-99174904D01*
X196756285Y-99295857D01*
X196816761Y-99356333D01*
X196937714Y-99416809D01*
X197179619Y-99416809D01*
X197300571Y-99477285D01*
X197361047Y-99537761D01*
X197421523Y-99658714D01*
X197421523Y-99900619D01*
X197361047Y-100021571D01*
X197300571Y-100082047D01*
X197179619Y-100142523D01*
X196937714Y-100142523D01*
X196816761Y-100082047D01*
X196756285Y-100021571D01*
X196695809Y-99900619D01*
X196695809Y-99658714D01*
X196756285Y-99537761D01*
X196816761Y-99477285D01*
X196937714Y-99416809D01*
X206970714Y-70472261D02*
X206970714Y-71077023D01*
X207394047Y-69807023D02*
X206970714Y-70472261D01*
X206547380Y-69807023D01*
X205640238Y-71016547D02*
X205761190Y-71077023D01*
X206003095Y-71077023D01*
X206124047Y-71016547D01*
X206184523Y-70895595D01*
X206184523Y-70411785D01*
X206124047Y-70290833D01*
X206003095Y-70230357D01*
X205761190Y-70230357D01*
X205640238Y-70290833D01*
X205579761Y-70411785D01*
X205579761Y-70532738D01*
X206184523Y-70653690D01*
X205216904Y-70230357D02*
X204733095Y-70230357D01*
X205035476Y-69807023D02*
X205035476Y-70895595D01*
X204975000Y-71016547D01*
X204854047Y-71077023D01*
X204733095Y-71077023D01*
X207273095Y-72819166D02*
X206668333Y-72819166D01*
X207394047Y-73182023D02*
X206970714Y-71912023D01*
X206547380Y-73182023D01*
X206124047Y-72335357D02*
X206124047Y-73182023D01*
X206124047Y-72456309D02*
X206063571Y-72395833D01*
X205942619Y-72335357D01*
X205761190Y-72335357D01*
X205640238Y-72395833D01*
X205579761Y-72516785D01*
X205579761Y-73182023D01*
X204793571Y-73182023D02*
X204914523Y-73121547D01*
X204975000Y-73061071D01*
X205035476Y-72940119D01*
X205035476Y-72577261D01*
X204975000Y-72456309D01*
X204914523Y-72395833D01*
X204793571Y-72335357D01*
X204612142Y-72335357D01*
X204491190Y-72395833D01*
X204430714Y-72456309D01*
X204370238Y-72577261D01*
X204370238Y-72940119D01*
X204430714Y-73061071D01*
X204491190Y-73121547D01*
X204612142Y-73182023D01*
X204793571Y-73182023D01*
X204007380Y-72335357D02*
X203523571Y-72335357D01*
X203825952Y-71912023D02*
X203825952Y-73000595D01*
X203765476Y-73121547D01*
X203644523Y-73182023D01*
X203523571Y-73182023D01*
X203100238Y-73182023D02*
X203100238Y-71912023D01*
X202555952Y-73182023D02*
X202555952Y-72516785D01*
X202616428Y-72395833D01*
X202737380Y-72335357D01*
X202918809Y-72335357D01*
X203039761Y-72395833D01*
X203100238Y-72456309D01*
X201467380Y-73121547D02*
X201588333Y-73182023D01*
X201830238Y-73182023D01*
X201951190Y-73121547D01*
X202011666Y-73000595D01*
X202011666Y-72516785D01*
X201951190Y-72395833D01*
X201830238Y-72335357D01*
X201588333Y-72335357D01*
X201467380Y-72395833D01*
X201406904Y-72516785D01*
X201406904Y-72637738D01*
X202011666Y-72758690D01*
X200862619Y-73182023D02*
X200862619Y-72335357D01*
X200862619Y-72577261D02*
X200802142Y-72456309D01*
X200741666Y-72395833D01*
X200620714Y-72335357D01*
X200499761Y-72335357D01*
X206789285Y-74621785D02*
X207212619Y-74621785D01*
X207212619Y-75287023D02*
X207212619Y-74017023D01*
X206607857Y-74017023D01*
X205942619Y-75287023D02*
X206063571Y-75226547D01*
X206124047Y-75105595D01*
X206124047Y-74017023D01*
X205277380Y-75287023D02*
X205398333Y-75226547D01*
X205458809Y-75166071D01*
X205519285Y-75045119D01*
X205519285Y-74682261D01*
X205458809Y-74561309D01*
X205398333Y-74500833D01*
X205277380Y-74440357D01*
X205095952Y-74440357D01*
X204975000Y-74500833D01*
X204914523Y-74561309D01*
X204854047Y-74682261D01*
X204854047Y-75045119D01*
X204914523Y-75166071D01*
X204975000Y-75226547D01*
X205095952Y-75287023D01*
X205277380Y-75287023D01*
X204309761Y-74440357D02*
X204309761Y-75710357D01*
X204309761Y-74500833D02*
X204188809Y-74440357D01*
X203946904Y-74440357D01*
X203825952Y-74500833D01*
X203765476Y-74561309D01*
X203705000Y-74682261D01*
X203705000Y-75045119D01*
X203765476Y-75166071D01*
X203825952Y-75226547D01*
X203946904Y-75287023D01*
X204188809Y-75287023D01*
X204309761Y-75226547D01*
X203160714Y-74440357D02*
X203160714Y-75710357D01*
X203160714Y-74500833D02*
X203039761Y-74440357D01*
X202797857Y-74440357D01*
X202676904Y-74500833D01*
X202616428Y-74561309D01*
X202555952Y-74682261D01*
X202555952Y-75045119D01*
X202616428Y-75166071D01*
X202676904Y-75226547D01*
X202797857Y-75287023D01*
X203039761Y-75287023D01*
X203160714Y-75226547D01*
X202132619Y-74440357D02*
X201830238Y-75287023D01*
X201527857Y-74440357D02*
X201830238Y-75287023D01*
X201951190Y-75589404D01*
X202011666Y-75649880D01*
X202132619Y-75710357D01*
X207212619Y-76726785D02*
X206789285Y-76726785D01*
X206607857Y-77392023D02*
X207212619Y-77392023D01*
X207212619Y-76122023D01*
X206607857Y-76122023D01*
X206063571Y-77392023D02*
X206063571Y-76545357D01*
X206063571Y-76666309D02*
X206003095Y-76605833D01*
X205882142Y-76545357D01*
X205700714Y-76545357D01*
X205579761Y-76605833D01*
X205519285Y-76726785D01*
X205519285Y-77392023D01*
X205519285Y-76726785D02*
X205458809Y-76605833D01*
X205337857Y-76545357D01*
X205156428Y-76545357D01*
X205035476Y-76605833D01*
X204975000Y-76726785D01*
X204975000Y-77392023D01*
X203825952Y-76545357D02*
X203825952Y-77392023D01*
X204370238Y-76545357D02*
X204370238Y-77210595D01*
X204309761Y-77331547D01*
X204188809Y-77392023D01*
X204007380Y-77392023D01*
X203886428Y-77331547D01*
X203825952Y-77271071D01*
X203039761Y-77392023D02*
X203160714Y-77331547D01*
X203221190Y-77210595D01*
X203221190Y-76122023D01*
X202011666Y-77392023D02*
X202011666Y-76726785D01*
X202072142Y-76605833D01*
X202193095Y-76545357D01*
X202435000Y-76545357D01*
X202555952Y-76605833D01*
X202011666Y-77331547D02*
X202132619Y-77392023D01*
X202435000Y-77392023D01*
X202555952Y-77331547D01*
X202616428Y-77210595D01*
X202616428Y-77089642D01*
X202555952Y-76968690D01*
X202435000Y-76908214D01*
X202132619Y-76908214D01*
X202011666Y-76847738D01*
X201588333Y-76545357D02*
X201104523Y-76545357D01*
X201406904Y-76122023D02*
X201406904Y-77210595D01*
X201346428Y-77331547D01*
X201225476Y-77392023D01*
X201104523Y-77392023D01*
X200499761Y-77392023D02*
X200620714Y-77331547D01*
X200681190Y-77271071D01*
X200741666Y-77150119D01*
X200741666Y-76787261D01*
X200681190Y-76666309D01*
X200620714Y-76605833D01*
X200499761Y-76545357D01*
X200318333Y-76545357D01*
X200197380Y-76605833D01*
X200136904Y-76666309D01*
X200076428Y-76787261D01*
X200076428Y-77150119D01*
X200136904Y-77271071D01*
X200197380Y-77331547D01*
X200318333Y-77392023D01*
X200499761Y-77392023D01*
X199532142Y-77392023D02*
X199532142Y-76545357D01*
X199532142Y-76787261D02*
X199471666Y-76666309D01*
X199411190Y-76605833D01*
X199290238Y-76545357D01*
X199169285Y-76545357D01*
D11*
X144780000Y-67310000D03*
D12*
X144780000Y-69850000D03*
X144780000Y-72390000D03*
X144780000Y-74930000D03*
X144780000Y-77470000D03*
X144780000Y-80010000D03*
X144780000Y-82550000D03*
X144780000Y-85090000D03*
X144780000Y-87630000D03*
D13*
X206063782Y-82226218D03*
D14*
G36*
X204720279Y-82155507D02*
X205993071Y-80882715D01*
X207407285Y-82296929D01*
X206134493Y-83569721D01*
X204720279Y-82155507D01*
X204720279Y-82155507D01*
G37*
D13*
X200336218Y-87953782D03*
D14*
G36*
X198992715Y-87883071D02*
X200265507Y-86610279D01*
X201679721Y-88024493D01*
X200406929Y-89297285D01*
X198992715Y-87883071D01*
X198992715Y-87883071D01*
G37*
D15*
X199629111Y-83605076D03*
D14*
G36*
X198798261Y-83481332D02*
X199505367Y-82774226D01*
X200459961Y-83728820D01*
X199752855Y-84435926D01*
X198798261Y-83481332D01*
X198798261Y-83481332D01*
G37*
D15*
X206735534Y-86610280D03*
D14*
G36*
X205904684Y-86486536D02*
X206611790Y-85779430D01*
X207566384Y-86734024D01*
X206859278Y-87441130D01*
X205904684Y-86486536D01*
X205904684Y-86486536D01*
G37*
D15*
X200636738Y-82597449D03*
D14*
G36*
X199805888Y-82473705D02*
X200512994Y-81766599D01*
X201467588Y-82721193D01*
X200760482Y-83428299D01*
X199805888Y-82473705D01*
X199805888Y-82473705D01*
G37*
D15*
X201644365Y-81589821D03*
D14*
G36*
X200813515Y-81466077D02*
X201520621Y-80758971D01*
X202475215Y-81713565D01*
X201768109Y-82420671D01*
X200813515Y-81466077D01*
X200813515Y-81466077D01*
G37*
D15*
X204720280Y-88625534D03*
D14*
G36*
X203889430Y-88501790D02*
X204596536Y-87794684D01*
X205551130Y-88749278D01*
X204844024Y-89456384D01*
X203889430Y-88501790D01*
X203889430Y-88501790D01*
G37*
D15*
X205727907Y-87617907D03*
D14*
G36*
X204897057Y-87494163D02*
X205604163Y-86787057D01*
X206558757Y-87741651D01*
X205851651Y-88448757D01*
X204897057Y-87494163D01*
X204897057Y-87494163D01*
G37*
D16*
X166370000Y-85725000D03*
X161490000Y-85725000D03*
D17*
X156210000Y-60960000D03*
D18*
X158750000Y-60960000D03*
X161290000Y-60960000D03*
X163830000Y-60960000D03*
D13*
X200600000Y-92710000D03*
X198100000Y-92710000D03*
X195600000Y-92710000D03*
X193100000Y-92710000D03*
D17*
X146050000Y-102870000D03*
D18*
X146050000Y-100330000D03*
X148590000Y-102870000D03*
X148590000Y-100330000D03*
X151130000Y-102870000D03*
X151130000Y-100330000D03*
X153670000Y-102870000D03*
X153670000Y-100330000D03*
X156210000Y-102870000D03*
X156210000Y-100330000D03*
X158750000Y-102870000D03*
X158750000Y-100330000D03*
X161290000Y-102870000D03*
X161290000Y-100330000D03*
X163830000Y-102870000D03*
X163830000Y-100330000D03*
X166370000Y-102870000D03*
X166370000Y-100330000D03*
X168910000Y-102870000D03*
X168910000Y-100330000D03*
X171450000Y-102870000D03*
X171450000Y-100330000D03*
X173990000Y-102870000D03*
X173990000Y-100330000D03*
X176530000Y-102870000D03*
X176530000Y-100330000D03*
X179070000Y-102870000D03*
X179070000Y-100330000D03*
X181610000Y-102870000D03*
X181610000Y-100330000D03*
X184150000Y-102870000D03*
X184150000Y-100330000D03*
X186690000Y-102870000D03*
X186690000Y-100330000D03*
D19*
X153035000Y-96000000D03*
X153035000Y-94500000D03*
X182880000Y-93992000D03*
X182880000Y-95492000D03*
X177800000Y-95492000D03*
X177800000Y-93992000D03*
D20*
X158000000Y-85725000D03*
X159500000Y-85725000D03*
X168160000Y-85725000D03*
X169660000Y-85725000D03*
D11*
X178435000Y-60885000D03*
D12*
X178435000Y-67385000D03*
D19*
X164084000Y-84824000D03*
X164084000Y-83324000D03*
D21*
X166600000Y-74930000D03*
X163600000Y-74930000D03*
D22*
X149860000Y-99060000D03*
X156210002Y-73914000D03*
X152654000Y-73152000D03*
X148590000Y-80010006D03*
X153924000Y-74676000D03*
X148590000Y-62230000D03*
X151130000Y-76200000D03*
X157988000Y-76962000D03*
X183642000Y-98552000D03*
X177800000Y-98806000D03*
X155575000Y-98425000D03*
X149860000Y-89534998D03*
X183642000Y-69088000D03*
X191008000Y-61976000D03*
X187198000Y-68834000D03*
X200914000Y-62738000D03*
X197866000Y-64262000D03*
X205105000Y-67945000D03*
X201930000Y-67945000D03*
X162814000Y-74930000D03*
X163576000Y-76454000D03*
X163576000Y-73406000D03*
X173990000Y-67945000D03*
X176530000Y-72644000D03*
X202184000Y-84074000D03*
X208280000Y-85090000D03*
X178435000Y-81914994D03*
X191008000Y-65278000D03*
X172974000Y-84836000D03*
X164084000Y-86106000D03*
X160020000Y-87122000D03*
X151765000Y-89535000D03*
X156845000Y-81280000D03*
X150495000Y-84455000D03*
X153670000Y-77470000D03*
X204470000Y-78740000D03*
X198120000Y-86360000D03*
X195580000Y-82550000D03*
X193040000Y-80010000D03*
X196850000Y-73660000D03*
X194564000Y-68834000D03*
X171450000Y-58420000D03*
X173990000Y-62230000D03*
X176530000Y-69850000D03*
X181610000Y-67310000D03*
X177800000Y-64770000D03*
X165354000Y-64516000D03*
X161290000Y-64516000D03*
X156210000Y-69850000D03*
X152400000Y-69850000D03*
X148590000Y-69850000D03*
X148590000Y-76200000D03*
X148590000Y-73660000D03*
X155575000Y-85725000D03*
X180340000Y-86360000D03*
X182880000Y-88900000D03*
X185420000Y-91440000D03*
X190500000Y-101600000D03*
X195580000Y-101600000D03*
X200660000Y-101600000D03*
X205740000Y-101600000D03*
X203200000Y-96520000D03*
X205740000Y-91440000D03*
X203200000Y-60960000D03*
X187960000Y-60960000D03*
X182880000Y-60960000D03*
X175260000Y-98425000D03*
X170180000Y-98425000D03*
X165100000Y-98425000D03*
X160020000Y-98425000D03*
X176530000Y-83185000D03*
X175260000Y-93345000D03*
X172720000Y-87630000D03*
X167640000Y-89535000D03*
X170180000Y-86995000D03*
X174625000Y-87630000D03*
X155575000Y-89535000D03*
X170180000Y-90805000D03*
X165100000Y-90805000D03*
X160020000Y-90805000D03*
X191262000Y-69088000D03*
X162560000Y-89916000D03*
X157480000Y-89916000D03*
X182880000Y-93218000D03*
X177800000Y-93218000D03*
X157480000Y-97282000D03*
X162560000Y-97282000D03*
X167640000Y-97282000D03*
X172720000Y-97282000D03*
X151130000Y-92075000D03*
X154305000Y-84455000D03*
X184150000Y-80010000D03*
X184150000Y-78740000D03*
X172720000Y-72136000D03*
X162836331Y-82572331D03*
X168275000Y-62230000D03*
X168640545Y-80668498D03*
X159512000Y-82042000D03*
X162560000Y-68326000D03*
X174498000Y-81534000D03*
X185420000Y-78740000D03*
X186690000Y-78740000D03*
X187960000Y-78740000D03*
X189230000Y-78740000D03*
X185420000Y-80010000D03*
X186690000Y-80010000D03*
X189230000Y-80010000D03*
X187960000Y-80010000D03*
X191262000Y-71120000D03*
X172720000Y-93218000D03*
X167640000Y-93218000D03*
X167640000Y-93218000D03*
X162560000Y-93218000D03*
X157480000Y-93218000D03*
X178816000Y-74676000D03*
X182372000Y-72390000D03*
X180340000Y-73914000D03*
X183388002Y-71628000D03*
X170180000Y-79375000D03*
X181864000Y-91694000D03*
X180340000Y-97790008D03*
X181356000Y-73152000D03*
X147320000Y-92075000D03*
X153670000Y-97282000D03*
X190500000Y-91440000D03*
X177800000Y-97282000D03*
X182880000Y-97282000D03*
D10*
X156210002Y-74550396D02*
X156210002Y-73914000D01*
X156210002Y-76199998D02*
X156210002Y-74550396D01*
X144780000Y-87630000D02*
X156210002Y-76199998D01*
X149860000Y-77470000D02*
X149860000Y-75946000D01*
X144780000Y-82550000D02*
X149860000Y-77470000D01*
X149860000Y-75946000D02*
X152654000Y-73152000D01*
X148590000Y-80010000D02*
X148590000Y-80010006D01*
X153924000Y-74676000D02*
X148590000Y-80010000D01*
D23*
X152146000Y-58674000D02*
X148590000Y-62230000D01*
X161036000Y-58674000D02*
X152146000Y-58674000D01*
X161290000Y-58928000D02*
X161036000Y-58674000D01*
X161290000Y-60960000D02*
X161290000Y-58928000D01*
D10*
X177800000Y-102870000D02*
X177800000Y-98806000D01*
X179070000Y-102870000D02*
X177800000Y-102870000D01*
X149860000Y-85090000D02*
X149860000Y-88898602D01*
X149860000Y-88898602D02*
X149860000Y-89534998D01*
X150495000Y-84455000D02*
X149860000Y-85090000D01*
X149860002Y-89535000D02*
X149860000Y-89534998D01*
X151765000Y-89535000D02*
X149860002Y-89535000D01*
X187198000Y-68834000D02*
X183896000Y-68834000D01*
X183896000Y-68834000D02*
X183642000Y-69088000D01*
D23*
X202692000Y-60960000D02*
X200914000Y-62738000D01*
X203200000Y-60960000D02*
X202692000Y-60960000D01*
X201930000Y-67945000D02*
X198247000Y-64262000D01*
X198247000Y-64262000D02*
X197866000Y-64262000D01*
X201930000Y-67945000D02*
X205105000Y-67945000D01*
D24*
X163576000Y-76454000D02*
X163576000Y-74954000D01*
X163576000Y-74954000D02*
X163600000Y-74930000D01*
X162814000Y-74930000D02*
X163600000Y-74930000D01*
X163576000Y-73406000D02*
X163576000Y-74906000D01*
X163576000Y-74906000D02*
X163600000Y-74930000D01*
D10*
X174625000Y-67945000D02*
X173990000Y-67945000D01*
X176530000Y-69850000D02*
X174625000Y-67945000D01*
X182880000Y-60960000D02*
X187198000Y-65278000D01*
X190371604Y-65278000D02*
X191008000Y-65278000D01*
X187198000Y-65278000D02*
X190371604Y-65278000D01*
X191644396Y-65278000D02*
X191008000Y-65278000D01*
X165100000Y-87122000D02*
X164533999Y-86555999D01*
X164533999Y-86555999D02*
X164084000Y-86106000D01*
X165100000Y-90805000D02*
X165100000Y-87122000D01*
X160020000Y-90805000D02*
X160020000Y-87122000D01*
X204470000Y-80632436D02*
X204470000Y-78740000D01*
X206063782Y-82226218D02*
X204470000Y-80632436D01*
X198742436Y-86360000D02*
X198120000Y-86360000D01*
X200336218Y-87953782D02*
X198742436Y-86360000D01*
X179070000Y-64770000D02*
X181610000Y-67310000D01*
X177800000Y-64770000D02*
X179070000Y-64770000D01*
X161290000Y-60960000D02*
X161290000Y-64516000D01*
X148590000Y-73660000D02*
X148590000Y-69850000D01*
X148590000Y-73660000D02*
X148590000Y-76200000D01*
X158000000Y-85725000D02*
X155575000Y-85725000D01*
X195580000Y-101600000D02*
X190500000Y-101600000D01*
X200660000Y-101600000D02*
X195580000Y-101600000D01*
X205740000Y-101600000D02*
X200660000Y-101600000D01*
X203200000Y-93980000D02*
X203200000Y-96520000D01*
X205740000Y-91440000D02*
X203200000Y-93980000D01*
X206275914Y-88165914D02*
X206275914Y-90904086D01*
X205727907Y-87617907D02*
X206275914Y-88165914D01*
X206275914Y-90904086D02*
X205740000Y-91440000D01*
X187960000Y-60960000D02*
X203200000Y-60960000D01*
X161290000Y-60960000D02*
X158750000Y-58420000D01*
X170180000Y-98425000D02*
X175260000Y-98425000D01*
X165100000Y-98425000D02*
X170180000Y-98425000D01*
X160020000Y-98425000D02*
X165100000Y-98425000D01*
X158877000Y-97282000D02*
X160020000Y-98425000D01*
X157480000Y-97282000D02*
X158877000Y-97282000D01*
X176530000Y-84455000D02*
X176530000Y-83185000D01*
X174625000Y-86360000D02*
X176530000Y-84455000D01*
X174625000Y-87630000D02*
X174625000Y-86360000D01*
X177800000Y-93218000D02*
X175387000Y-93218000D01*
X175387000Y-93218000D02*
X175260000Y-93345000D01*
X169660000Y-86475000D02*
X170180000Y-86995000D01*
X169660000Y-85725000D02*
X169660000Y-86475000D01*
X157480000Y-89916000D02*
X155956000Y-89916000D01*
X155956000Y-89916000D02*
X155575000Y-89535000D01*
X165100000Y-90805000D02*
X170180000Y-90805000D01*
X160020000Y-90805000D02*
X165100000Y-90805000D01*
X159131000Y-89916000D02*
X160020000Y-90805000D01*
X157480000Y-89916000D02*
X159131000Y-89916000D01*
D23*
X182880000Y-94500000D02*
X182880000Y-93301002D01*
X177800000Y-93218000D02*
X177800000Y-94500000D01*
D24*
X153670000Y-91440000D02*
X151765000Y-91440000D01*
X151579999Y-91625001D02*
X151130000Y-92075000D01*
X151765000Y-91440000D02*
X151579999Y-91625001D01*
X177800000Y-71374000D02*
X178816000Y-70358000D01*
X174244000Y-71374000D02*
X177800000Y-71374000D01*
X190500000Y-70358000D02*
X191262000Y-71120000D01*
X178816000Y-70358000D02*
X190500000Y-70358000D01*
X145415000Y-67310000D02*
X156210000Y-67310000D01*
X156210000Y-67310000D02*
X160020000Y-71120000D01*
X154305000Y-84455000D02*
X156210000Y-82550000D01*
X153670000Y-85090000D02*
X154305000Y-84455000D01*
D25*
X185420000Y-78740000D02*
X184150000Y-78740000D01*
D24*
X168275000Y-62230000D02*
X168275000Y-67945000D01*
D10*
X198374000Y-83566000D02*
X198374000Y-82169000D01*
X203200000Y-86106000D02*
X202314008Y-85220008D01*
X203200000Y-87105254D02*
X203200000Y-86106000D01*
X200028008Y-85220008D02*
X198374000Y-83566000D01*
X190881000Y-74676000D02*
X178816000Y-74676000D01*
X202314008Y-85220008D02*
X200028008Y-85220008D01*
X204720280Y-88625534D02*
X203200000Y-87105254D01*
X198374000Y-82169000D02*
X190881000Y-74676000D01*
X190500000Y-72390000D02*
X199136000Y-81026000D01*
X182372000Y-72390000D02*
X190500000Y-72390000D01*
X199136000Y-81026000D02*
X201080544Y-81026000D01*
X201080544Y-81026000D02*
X201644365Y-81589821D01*
X190754000Y-73914000D02*
X199136000Y-82296000D01*
X180340000Y-73914000D02*
X190754000Y-73914000D01*
X199136000Y-82296000D02*
X199136000Y-83111965D01*
X199136000Y-83111965D02*
X199629111Y-83605076D01*
X203454000Y-81534000D02*
X202184000Y-80264000D01*
X203454000Y-84582000D02*
X203454000Y-81534000D01*
X206735534Y-86610280D02*
X205469254Y-85344000D01*
X202184000Y-80264000D02*
X199009000Y-80264000D01*
X204216000Y-85344000D02*
X203454000Y-84582000D01*
X205469254Y-85344000D02*
X204216000Y-85344000D01*
X190373000Y-71628000D02*
X184024398Y-71628000D01*
X199009000Y-80264000D02*
X190373000Y-71628000D01*
X184024398Y-71628000D02*
X183388002Y-71628000D01*
D25*
X182245000Y-98425000D02*
X180975000Y-98425000D01*
X184150000Y-100330000D02*
X182245000Y-98425000D01*
X180975000Y-98425000D02*
X180340008Y-97790008D01*
X180340008Y-97790008D02*
X180340000Y-97790008D01*
D10*
X190627000Y-73152000D02*
X199517000Y-82042000D01*
X181356000Y-73152000D02*
X190627000Y-73152000D01*
X200081289Y-82042000D02*
X200636738Y-82597449D01*
X199517000Y-82042000D02*
X200081289Y-82042000D01*
D24*
X153670000Y-91440000D02*
X153670000Y-85090000D01*
X156210000Y-82550000D02*
X160020000Y-82550000D01*
X156210000Y-62810000D02*
X161980000Y-68580000D01*
X156210000Y-60960000D02*
X156210000Y-62810000D01*
X161980000Y-68580000D02*
X162560000Y-68580000D01*
X162560000Y-68580000D02*
X162560000Y-68326000D01*
X155702000Y-91440000D02*
X153670000Y-91440000D01*
X157480000Y-93218000D02*
X155702000Y-91440000D01*
X162560000Y-93218000D02*
X157480000Y-93218000D01*
X167640000Y-93218000D02*
X162560000Y-93218000D01*
X172720000Y-93218000D02*
X167640000Y-93218000D01*
D10*
X174625000Y-79375000D02*
X170816396Y-79375000D01*
X181864000Y-91694000D02*
X181864000Y-86614000D01*
X170816396Y-79375000D02*
X170180000Y-79375000D01*
X181864000Y-86614000D02*
X174625000Y-79375000D01*
X166370000Y-85725000D02*
X168160000Y-85725000D01*
X159500000Y-85725000D02*
X161490000Y-85725000D01*
D23*
X149225000Y-93980000D02*
X149225000Y-95250000D01*
X147320000Y-92075000D02*
X149225000Y-93980000D01*
X150495000Y-96520000D02*
X151765000Y-96520000D01*
X149225000Y-95250000D02*
X150495000Y-96520000D01*
X182880000Y-96000000D02*
X182880000Y-97282000D01*
X177800000Y-96000000D02*
X177800000Y-97282000D01*
D26*
G36*
X209423000Y-104648000D02*
X143637000Y-104648000D01*
X143637000Y-103103750D01*
X144773000Y-103103750D01*
X144773000Y-103804935D01*
X144838007Y-103961876D01*
X144958124Y-104081993D01*
X145115064Y-104147000D01*
X145816250Y-104147000D01*
X145923000Y-104040250D01*
X145923000Y-102997000D01*
X146177000Y-102997000D01*
X146177000Y-104040250D01*
X146283750Y-104147000D01*
X146984936Y-104147000D01*
X147141876Y-104081993D01*
X147261993Y-103961876D01*
X147327000Y-103804935D01*
X147327000Y-103103750D01*
X147220250Y-102997000D01*
X146177000Y-102997000D01*
X145923000Y-102997000D01*
X144879750Y-102997000D01*
X144773000Y-103103750D01*
X143637000Y-103103750D01*
X143637000Y-101935065D01*
X144773000Y-101935065D01*
X144773000Y-102636250D01*
X144879750Y-102743000D01*
X145923000Y-102743000D01*
X145923000Y-101699750D01*
X146177000Y-101699750D01*
X146177000Y-102743000D01*
X147220250Y-102743000D01*
X147327000Y-102636250D01*
X147327000Y-101935065D01*
X147261993Y-101778124D01*
X147141876Y-101658007D01*
X146984936Y-101593000D01*
X146283750Y-101593000D01*
X146177000Y-101699750D01*
X145923000Y-101699750D01*
X145816250Y-101593000D01*
X145115064Y-101593000D01*
X144958124Y-101658007D01*
X144838007Y-101778124D01*
X144773000Y-101935065D01*
X143637000Y-101935065D01*
X143637000Y-94931328D01*
X143702640Y-94931328D01*
X144018178Y-95694989D01*
X144601938Y-96279768D01*
X145365047Y-96596639D01*
X146191328Y-96597360D01*
X146954989Y-96281822D01*
X147539768Y-95698062D01*
X147856639Y-94934953D01*
X147857360Y-94108672D01*
X147541822Y-93345011D01*
X147149347Y-92951851D01*
X147239508Y-92951930D01*
X148548000Y-94260422D01*
X148548000Y-95250000D01*
X148599534Y-95509077D01*
X148607694Y-95521289D01*
X148746289Y-95728711D01*
X150016289Y-96998711D01*
X150235923Y-97145466D01*
X150495000Y-97197000D01*
X150703000Y-97197000D01*
X150703000Y-97790000D01*
X150735503Y-97953406D01*
X150828065Y-98091935D01*
X150966594Y-98184497D01*
X151130000Y-98217000D01*
X154305000Y-98217000D01*
X154468406Y-98184497D01*
X154606935Y-98091935D01*
X154699497Y-97953406D01*
X154732000Y-97790000D01*
X154732000Y-96312000D01*
X175468000Y-96312000D01*
X175468000Y-97790000D01*
X175500503Y-97953406D01*
X175593065Y-98091935D01*
X175731594Y-98184497D01*
X175895000Y-98217000D01*
X179567514Y-98217000D01*
X179596082Y-98286139D01*
X179842571Y-98533059D01*
X180164789Y-98666855D01*
X180436446Y-98667092D01*
X180584677Y-98815323D01*
X180763759Y-98934982D01*
X180975000Y-98977000D01*
X182016354Y-98977000D01*
X182297153Y-99257799D01*
X182098687Y-99125188D01*
X181610000Y-99027982D01*
X181121313Y-99125188D01*
X180707025Y-99402007D01*
X180430206Y-99816295D01*
X180340000Y-100269791D01*
X180249794Y-99816295D01*
X179972975Y-99402007D01*
X179558687Y-99125188D01*
X179070000Y-99027982D01*
X178581313Y-99125188D01*
X178167025Y-99402007D01*
X177890206Y-99816295D01*
X177800000Y-100269791D01*
X177709794Y-99816295D01*
X177432975Y-99402007D01*
X177018687Y-99125188D01*
X176530000Y-99027982D01*
X176041313Y-99125188D01*
X175627025Y-99402007D01*
X175350206Y-99816295D01*
X175260000Y-100269791D01*
X175169794Y-99816295D01*
X174892975Y-99402007D01*
X174478687Y-99125188D01*
X173990000Y-99027982D01*
X173501313Y-99125188D01*
X173087025Y-99402007D01*
X172810206Y-99816295D01*
X172720000Y-100269791D01*
X172629794Y-99816295D01*
X172352975Y-99402007D01*
X171938687Y-99125188D01*
X171450000Y-99027982D01*
X170961313Y-99125188D01*
X170547025Y-99402007D01*
X170270206Y-99816295D01*
X170180000Y-100269791D01*
X170089794Y-99816295D01*
X169812975Y-99402007D01*
X169398687Y-99125188D01*
X168910000Y-99027982D01*
X168421313Y-99125188D01*
X168007025Y-99402007D01*
X167730206Y-99816295D01*
X167640000Y-100269791D01*
X167549794Y-99816295D01*
X167272975Y-99402007D01*
X166858687Y-99125188D01*
X166370000Y-99027982D01*
X165881313Y-99125188D01*
X165467025Y-99402007D01*
X165190206Y-99816295D01*
X165100000Y-100269791D01*
X165009794Y-99816295D01*
X164732975Y-99402007D01*
X164318687Y-99125188D01*
X163830000Y-99027982D01*
X163341313Y-99125188D01*
X162927025Y-99402007D01*
X162650206Y-99816295D01*
X162560000Y-100269791D01*
X162469794Y-99816295D01*
X162192975Y-99402007D01*
X161778687Y-99125188D01*
X161290000Y-99027982D01*
X160801313Y-99125188D01*
X160387025Y-99402007D01*
X160110206Y-99816295D01*
X160020000Y-100269791D01*
X159929794Y-99816295D01*
X159652975Y-99402007D01*
X159238687Y-99125188D01*
X158750000Y-99027982D01*
X158261313Y-99125188D01*
X157847025Y-99402007D01*
X157570206Y-99816295D01*
X157480000Y-100269791D01*
X157389794Y-99816295D01*
X157112975Y-99402007D01*
X156698687Y-99125188D01*
X156210000Y-99027982D01*
X155721313Y-99125188D01*
X155307025Y-99402007D01*
X155030206Y-99816295D01*
X154940000Y-100269791D01*
X154849794Y-99816295D01*
X154572975Y-99402007D01*
X154158687Y-99125188D01*
X153670000Y-99027982D01*
X153181313Y-99125188D01*
X152767025Y-99402007D01*
X152490206Y-99816295D01*
X152400000Y-100269791D01*
X152309794Y-99816295D01*
X152032975Y-99402007D01*
X151618687Y-99125188D01*
X151130000Y-99027982D01*
X150736959Y-99106163D01*
X150737151Y-98886319D01*
X150603918Y-98563869D01*
X150357429Y-98316949D01*
X150035211Y-98183153D01*
X149686319Y-98182849D01*
X149363869Y-98316082D01*
X149116949Y-98562571D01*
X148983153Y-98884789D01*
X148982960Y-99106147D01*
X148590000Y-99027982D01*
X148101313Y-99125188D01*
X147687025Y-99402007D01*
X147410206Y-99816295D01*
X147320000Y-100269791D01*
X147229794Y-99816295D01*
X146952975Y-99402007D01*
X146538687Y-99125188D01*
X146050000Y-99027982D01*
X145561313Y-99125188D01*
X145147025Y-99402007D01*
X144870206Y-99816295D01*
X144773000Y-100304982D01*
X144773000Y-100355018D01*
X144870206Y-100843705D01*
X145147025Y-101257993D01*
X145561313Y-101534812D01*
X146050000Y-101632018D01*
X146538687Y-101534812D01*
X146952975Y-101257993D01*
X147229794Y-100843705D01*
X147320000Y-100390209D01*
X147410206Y-100843705D01*
X147687025Y-101257993D01*
X148101313Y-101534812D01*
X148429035Y-101600000D01*
X148101313Y-101665188D01*
X147687025Y-101942007D01*
X147410206Y-102356295D01*
X147313000Y-102844982D01*
X147313000Y-102895018D01*
X147410206Y-103383705D01*
X147687025Y-103797993D01*
X148101313Y-104074812D01*
X148590000Y-104172018D01*
X149078687Y-104074812D01*
X149492975Y-103797993D01*
X149769794Y-103383705D01*
X149807485Y-103194215D01*
X149894831Y-103194215D01*
X150112924Y-103642214D01*
X150485858Y-103972651D01*
X150805787Y-104105158D01*
X151003000Y-104033338D01*
X151003000Y-102997000D01*
X151257000Y-102997000D01*
X151257000Y-104033338D01*
X151454213Y-104105158D01*
X151774142Y-103972651D01*
X152147076Y-103642214D01*
X152365169Y-103194215D01*
X152434831Y-103194215D01*
X152652924Y-103642214D01*
X153025858Y-103972651D01*
X153345787Y-104105158D01*
X153543000Y-104033338D01*
X153543000Y-102997000D01*
X153797000Y-102997000D01*
X153797000Y-104033338D01*
X153994213Y-104105158D01*
X154314142Y-103972651D01*
X154687076Y-103642214D01*
X154905169Y-103194215D01*
X154974831Y-103194215D01*
X155192924Y-103642214D01*
X155565858Y-103972651D01*
X155885787Y-104105158D01*
X156083000Y-104033338D01*
X156083000Y-102997000D01*
X156337000Y-102997000D01*
X156337000Y-104033338D01*
X156534213Y-104105158D01*
X156854142Y-103972651D01*
X157227076Y-103642214D01*
X157445169Y-103194215D01*
X157514831Y-103194215D01*
X157732924Y-103642214D01*
X158105858Y-103972651D01*
X158425787Y-104105158D01*
X158623000Y-104033338D01*
X158623000Y-102997000D01*
X158877000Y-102997000D01*
X158877000Y-104033338D01*
X159074213Y-104105158D01*
X159394142Y-103972651D01*
X159767076Y-103642214D01*
X159985169Y-103194215D01*
X160054831Y-103194215D01*
X160272924Y-103642214D01*
X160645858Y-103972651D01*
X160965787Y-104105158D01*
X161163000Y-104033338D01*
X161163000Y-102997000D01*
X161417000Y-102997000D01*
X161417000Y-104033338D01*
X161614213Y-104105158D01*
X161934142Y-103972651D01*
X162307076Y-103642214D01*
X162525169Y-103194215D01*
X162594831Y-103194215D01*
X162812924Y-103642214D01*
X163185858Y-103972651D01*
X163505787Y-104105158D01*
X163703000Y-104033338D01*
X163703000Y-102997000D01*
X163957000Y-102997000D01*
X163957000Y-104033338D01*
X164154213Y-104105158D01*
X164474142Y-103972651D01*
X164847076Y-103642214D01*
X165065169Y-103194215D01*
X165134831Y-103194215D01*
X165352924Y-103642214D01*
X165725858Y-103972651D01*
X166045787Y-104105158D01*
X166243000Y-104033338D01*
X166243000Y-102997000D01*
X166497000Y-102997000D01*
X166497000Y-104033338D01*
X166694213Y-104105158D01*
X167014142Y-103972651D01*
X167387076Y-103642214D01*
X167605169Y-103194215D01*
X167674831Y-103194215D01*
X167892924Y-103642214D01*
X168265858Y-103972651D01*
X168585787Y-104105158D01*
X168783000Y-104033338D01*
X168783000Y-102997000D01*
X169037000Y-102997000D01*
X169037000Y-104033338D01*
X169234213Y-104105158D01*
X169554142Y-103972651D01*
X169927076Y-103642214D01*
X170145169Y-103194215D01*
X170214831Y-103194215D01*
X170432924Y-103642214D01*
X170805858Y-103972651D01*
X171125787Y-104105158D01*
X171323000Y-104033338D01*
X171323000Y-102997000D01*
X171577000Y-102997000D01*
X171577000Y-104033338D01*
X171774213Y-104105158D01*
X172094142Y-103972651D01*
X172467076Y-103642214D01*
X172685169Y-103194215D01*
X172754831Y-103194215D01*
X172972924Y-103642214D01*
X173345858Y-103972651D01*
X173665787Y-104105158D01*
X173863000Y-104033338D01*
X173863000Y-102997000D01*
X174117000Y-102997000D01*
X174117000Y-104033338D01*
X174314213Y-104105158D01*
X174634142Y-103972651D01*
X175007076Y-103642214D01*
X175225169Y-103194215D01*
X175294831Y-103194215D01*
X175512924Y-103642214D01*
X175885858Y-103972651D01*
X176205787Y-104105158D01*
X176403000Y-104033338D01*
X176403000Y-102997000D01*
X176657000Y-102997000D01*
X176657000Y-104033338D01*
X176854213Y-104105158D01*
X177174142Y-103972651D01*
X177547076Y-103642214D01*
X177765169Y-103194215D01*
X177834831Y-103194215D01*
X178052924Y-103642214D01*
X178425858Y-103972651D01*
X178745787Y-104105158D01*
X178943000Y-104033338D01*
X178943000Y-102997000D01*
X179197000Y-102997000D01*
X179197000Y-104033338D01*
X179394213Y-104105158D01*
X179714142Y-103972651D01*
X180087076Y-103642214D01*
X180305169Y-103194215D01*
X180374831Y-103194215D01*
X180592924Y-103642214D01*
X180965858Y-103972651D01*
X181285787Y-104105158D01*
X181483000Y-104033338D01*
X181483000Y-102997000D01*
X181737000Y-102997000D01*
X181737000Y-104033338D01*
X181934213Y-104105158D01*
X182254142Y-103972651D01*
X182627076Y-103642214D01*
X182845169Y-103194215D01*
X182914831Y-103194215D01*
X183132924Y-103642214D01*
X183505858Y-103972651D01*
X183825787Y-104105158D01*
X184023000Y-104033338D01*
X184023000Y-102997000D01*
X184277000Y-102997000D01*
X184277000Y-104033338D01*
X184474213Y-104105158D01*
X184794142Y-103972651D01*
X185167076Y-103642214D01*
X185385169Y-103194215D01*
X185454831Y-103194215D01*
X185672924Y-103642214D01*
X186045858Y-103972651D01*
X186365787Y-104105158D01*
X186563000Y-104033338D01*
X186563000Y-102997000D01*
X186817000Y-102997000D01*
X186817000Y-104033338D01*
X187014213Y-104105158D01*
X187334142Y-103972651D01*
X187707076Y-103642214D01*
X187925169Y-103194215D01*
X187853930Y-102997000D01*
X186817000Y-102997000D01*
X186563000Y-102997000D01*
X185526070Y-102997000D01*
X185454831Y-103194215D01*
X185385169Y-103194215D01*
X185313930Y-102997000D01*
X184277000Y-102997000D01*
X184023000Y-102997000D01*
X182986070Y-102997000D01*
X182914831Y-103194215D01*
X182845169Y-103194215D01*
X182773930Y-102997000D01*
X181737000Y-102997000D01*
X181483000Y-102997000D01*
X180446070Y-102997000D01*
X180374831Y-103194215D01*
X180305169Y-103194215D01*
X180233930Y-102997000D01*
X179197000Y-102997000D01*
X178943000Y-102997000D01*
X177906070Y-102997000D01*
X177834831Y-103194215D01*
X177765169Y-103194215D01*
X177693930Y-102997000D01*
X176657000Y-102997000D01*
X176403000Y-102997000D01*
X175366070Y-102997000D01*
X175294831Y-103194215D01*
X175225169Y-103194215D01*
X175153930Y-102997000D01*
X174117000Y-102997000D01*
X173863000Y-102997000D01*
X172826070Y-102997000D01*
X172754831Y-103194215D01*
X172685169Y-103194215D01*
X172613930Y-102997000D01*
X171577000Y-102997000D01*
X171323000Y-102997000D01*
X170286070Y-102997000D01*
X170214831Y-103194215D01*
X170145169Y-103194215D01*
X170073930Y-102997000D01*
X169037000Y-102997000D01*
X168783000Y-102997000D01*
X167746070Y-102997000D01*
X167674831Y-103194215D01*
X167605169Y-103194215D01*
X167533930Y-102997000D01*
X166497000Y-102997000D01*
X166243000Y-102997000D01*
X165206070Y-102997000D01*
X165134831Y-103194215D01*
X165065169Y-103194215D01*
X164993930Y-102997000D01*
X163957000Y-102997000D01*
X163703000Y-102997000D01*
X162666070Y-102997000D01*
X162594831Y-103194215D01*
X162525169Y-103194215D01*
X162453930Y-102997000D01*
X161417000Y-102997000D01*
X161163000Y-102997000D01*
X160126070Y-102997000D01*
X160054831Y-103194215D01*
X159985169Y-103194215D01*
X159913930Y-102997000D01*
X158877000Y-102997000D01*
X158623000Y-102997000D01*
X157586070Y-102997000D01*
X157514831Y-103194215D01*
X157445169Y-103194215D01*
X157373930Y-102997000D01*
X156337000Y-102997000D01*
X156083000Y-102997000D01*
X155046070Y-102997000D01*
X154974831Y-103194215D01*
X154905169Y-103194215D01*
X154833930Y-102997000D01*
X153797000Y-102997000D01*
X153543000Y-102997000D01*
X152506070Y-102997000D01*
X152434831Y-103194215D01*
X152365169Y-103194215D01*
X152293930Y-102997000D01*
X151257000Y-102997000D01*
X151003000Y-102997000D01*
X149966070Y-102997000D01*
X149894831Y-103194215D01*
X149807485Y-103194215D01*
X149867000Y-102895018D01*
X149867000Y-102844982D01*
X149807486Y-102545785D01*
X149894831Y-102545785D01*
X149966070Y-102743000D01*
X151003000Y-102743000D01*
X151003000Y-101706662D01*
X151257000Y-101706662D01*
X151257000Y-102743000D01*
X152293930Y-102743000D01*
X152365169Y-102545785D01*
X152434831Y-102545785D01*
X152506070Y-102743000D01*
X153543000Y-102743000D01*
X153543000Y-101706662D01*
X153797000Y-101706662D01*
X153797000Y-102743000D01*
X154833930Y-102743000D01*
X154905169Y-102545785D01*
X154974831Y-102545785D01*
X155046070Y-102743000D01*
X156083000Y-102743000D01*
X156083000Y-101706662D01*
X156337000Y-101706662D01*
X156337000Y-102743000D01*
X157373930Y-102743000D01*
X157445169Y-102545785D01*
X157514831Y-102545785D01*
X157586070Y-102743000D01*
X158623000Y-102743000D01*
X158623000Y-101706662D01*
X158877000Y-101706662D01*
X158877000Y-102743000D01*
X159913930Y-102743000D01*
X159985169Y-102545785D01*
X160054831Y-102545785D01*
X160126070Y-102743000D01*
X161163000Y-102743000D01*
X161163000Y-101706662D01*
X161417000Y-101706662D01*
X161417000Y-102743000D01*
X162453930Y-102743000D01*
X162525169Y-102545785D01*
X162594831Y-102545785D01*
X162666070Y-102743000D01*
X163703000Y-102743000D01*
X163703000Y-101706662D01*
X163957000Y-101706662D01*
X163957000Y-102743000D01*
X164993930Y-102743000D01*
X165065169Y-102545785D01*
X165134831Y-102545785D01*
X165206070Y-102743000D01*
X166243000Y-102743000D01*
X166243000Y-101706662D01*
X166497000Y-101706662D01*
X166497000Y-102743000D01*
X167533930Y-102743000D01*
X167605169Y-102545785D01*
X167674831Y-102545785D01*
X167746070Y-102743000D01*
X168783000Y-102743000D01*
X168783000Y-101706662D01*
X169037000Y-101706662D01*
X169037000Y-102743000D01*
X170073930Y-102743000D01*
X170145169Y-102545785D01*
X170214831Y-102545785D01*
X170286070Y-102743000D01*
X171323000Y-102743000D01*
X171323000Y-101706662D01*
X171577000Y-101706662D01*
X171577000Y-102743000D01*
X172613930Y-102743000D01*
X172685169Y-102545785D01*
X172754831Y-102545785D01*
X172826070Y-102743000D01*
X173863000Y-102743000D01*
X173863000Y-101706662D01*
X174117000Y-101706662D01*
X174117000Y-102743000D01*
X175153930Y-102743000D01*
X175225169Y-102545785D01*
X175294831Y-102545785D01*
X175366070Y-102743000D01*
X176403000Y-102743000D01*
X176403000Y-101706662D01*
X176657000Y-101706662D01*
X176657000Y-102743000D01*
X177693930Y-102743000D01*
X177765169Y-102545785D01*
X177834831Y-102545785D01*
X177906070Y-102743000D01*
X178943000Y-102743000D01*
X178943000Y-101706662D01*
X179197000Y-101706662D01*
X179197000Y-102743000D01*
X180233930Y-102743000D01*
X180305169Y-102545785D01*
X180374831Y-102545785D01*
X180446070Y-102743000D01*
X181483000Y-102743000D01*
X181483000Y-101706662D01*
X181737000Y-101706662D01*
X181737000Y-102743000D01*
X182773930Y-102743000D01*
X182845169Y-102545785D01*
X182914831Y-102545785D01*
X182986070Y-102743000D01*
X184023000Y-102743000D01*
X184023000Y-101706662D01*
X184277000Y-101706662D01*
X184277000Y-102743000D01*
X185313930Y-102743000D01*
X185385169Y-102545785D01*
X185454831Y-102545785D01*
X185526070Y-102743000D01*
X186563000Y-102743000D01*
X186563000Y-101706662D01*
X186817000Y-101706662D01*
X186817000Y-102743000D01*
X187853930Y-102743000D01*
X187925169Y-102545785D01*
X187707076Y-102097786D01*
X187334142Y-101767349D01*
X187014213Y-101634842D01*
X186817000Y-101706662D01*
X186563000Y-101706662D01*
X186365787Y-101634842D01*
X186045858Y-101767349D01*
X185672924Y-102097786D01*
X185454831Y-102545785D01*
X185385169Y-102545785D01*
X185167076Y-102097786D01*
X184794142Y-101767349D01*
X184474213Y-101634842D01*
X184277000Y-101706662D01*
X184023000Y-101706662D01*
X183825787Y-101634842D01*
X183505858Y-101767349D01*
X183132924Y-102097786D01*
X182914831Y-102545785D01*
X182845169Y-102545785D01*
X182627076Y-102097786D01*
X182254142Y-101767349D01*
X181934213Y-101634842D01*
X181737000Y-101706662D01*
X181483000Y-101706662D01*
X181285787Y-101634842D01*
X180965858Y-101767349D01*
X180592924Y-102097786D01*
X180374831Y-102545785D01*
X180305169Y-102545785D01*
X180087076Y-102097786D01*
X179714142Y-101767349D01*
X179394213Y-101634842D01*
X179197000Y-101706662D01*
X178943000Y-101706662D01*
X178745787Y-101634842D01*
X178425858Y-101767349D01*
X178052924Y-102097786D01*
X177834831Y-102545785D01*
X177765169Y-102545785D01*
X177547076Y-102097786D01*
X177174142Y-101767349D01*
X176854213Y-101634842D01*
X176657000Y-101706662D01*
X176403000Y-101706662D01*
X176205787Y-101634842D01*
X175885858Y-101767349D01*
X175512924Y-102097786D01*
X175294831Y-102545785D01*
X175225169Y-102545785D01*
X175007076Y-102097786D01*
X174634142Y-101767349D01*
X174314213Y-101634842D01*
X174117000Y-101706662D01*
X173863000Y-101706662D01*
X173665787Y-101634842D01*
X173345858Y-101767349D01*
X172972924Y-102097786D01*
X172754831Y-102545785D01*
X172685169Y-102545785D01*
X172467076Y-102097786D01*
X172094142Y-101767349D01*
X171774213Y-101634842D01*
X171577000Y-101706662D01*
X171323000Y-101706662D01*
X171125787Y-101634842D01*
X170805858Y-101767349D01*
X170432924Y-102097786D01*
X170214831Y-102545785D01*
X170145169Y-102545785D01*
X169927076Y-102097786D01*
X169554142Y-101767349D01*
X169234213Y-101634842D01*
X169037000Y-101706662D01*
X168783000Y-101706662D01*
X168585787Y-101634842D01*
X168265858Y-101767349D01*
X167892924Y-102097786D01*
X167674831Y-102545785D01*
X167605169Y-102545785D01*
X167387076Y-102097786D01*
X167014142Y-101767349D01*
X166694213Y-101634842D01*
X166497000Y-101706662D01*
X166243000Y-101706662D01*
X166045787Y-101634842D01*
X165725858Y-101767349D01*
X165352924Y-102097786D01*
X165134831Y-102545785D01*
X165065169Y-102545785D01*
X164847076Y-102097786D01*
X164474142Y-101767349D01*
X164154213Y-101634842D01*
X163957000Y-101706662D01*
X163703000Y-101706662D01*
X163505787Y-101634842D01*
X163185858Y-101767349D01*
X162812924Y-102097786D01*
X162594831Y-102545785D01*
X162525169Y-102545785D01*
X162307076Y-102097786D01*
X161934142Y-101767349D01*
X161614213Y-101634842D01*
X161417000Y-101706662D01*
X161163000Y-101706662D01*
X160965787Y-101634842D01*
X160645858Y-101767349D01*
X160272924Y-102097786D01*
X160054831Y-102545785D01*
X159985169Y-102545785D01*
X159767076Y-102097786D01*
X159394142Y-101767349D01*
X159074213Y-101634842D01*
X158877000Y-101706662D01*
X158623000Y-101706662D01*
X158425787Y-101634842D01*
X158105858Y-101767349D01*
X157732924Y-102097786D01*
X157514831Y-102545785D01*
X157445169Y-102545785D01*
X157227076Y-102097786D01*
X156854142Y-101767349D01*
X156534213Y-101634842D01*
X156337000Y-101706662D01*
X156083000Y-101706662D01*
X155885787Y-101634842D01*
X155565858Y-101767349D01*
X155192924Y-102097786D01*
X154974831Y-102545785D01*
X154905169Y-102545785D01*
X154687076Y-102097786D01*
X154314142Y-101767349D01*
X153994213Y-101634842D01*
X153797000Y-101706662D01*
X153543000Y-101706662D01*
X153345787Y-101634842D01*
X153025858Y-101767349D01*
X152652924Y-102097786D01*
X152434831Y-102545785D01*
X152365169Y-102545785D01*
X152147076Y-102097786D01*
X151774142Y-101767349D01*
X151454213Y-101634842D01*
X151257000Y-101706662D01*
X151003000Y-101706662D01*
X150805787Y-101634842D01*
X150485858Y-101767349D01*
X150112924Y-102097786D01*
X149894831Y-102545785D01*
X149807486Y-102545785D01*
X149769794Y-102356295D01*
X149492975Y-101942007D01*
X149078687Y-101665188D01*
X148750965Y-101600000D01*
X149078687Y-101534812D01*
X149492975Y-101257993D01*
X149769794Y-100843705D01*
X149860000Y-100390209D01*
X149950206Y-100843705D01*
X150227025Y-101257993D01*
X150641313Y-101534812D01*
X151130000Y-101632018D01*
X151618687Y-101534812D01*
X152032975Y-101257993D01*
X152309794Y-100843705D01*
X152400000Y-100390209D01*
X152490206Y-100843705D01*
X152767025Y-101257993D01*
X153181313Y-101534812D01*
X153670000Y-101632018D01*
X154158687Y-101534812D01*
X154572975Y-101257993D01*
X154849794Y-100843705D01*
X154940000Y-100390209D01*
X155030206Y-100843705D01*
X155307025Y-101257993D01*
X155721313Y-101534812D01*
X156210000Y-101632018D01*
X156698687Y-101534812D01*
X157112975Y-101257993D01*
X157389794Y-100843705D01*
X157480000Y-100390209D01*
X157570206Y-100843705D01*
X157847025Y-101257993D01*
X158261313Y-101534812D01*
X158750000Y-101632018D01*
X159238687Y-101534812D01*
X159652975Y-101257993D01*
X159929794Y-100843705D01*
X160020000Y-100390209D01*
X160110206Y-100843705D01*
X160387025Y-101257993D01*
X160801313Y-101534812D01*
X161290000Y-101632018D01*
X161778687Y-101534812D01*
X162192975Y-101257993D01*
X162469794Y-100843705D01*
X162560000Y-100390209D01*
X162650206Y-100843705D01*
X162927025Y-101257993D01*
X163341313Y-101534812D01*
X163830000Y-101632018D01*
X164318687Y-101534812D01*
X164732975Y-101257993D01*
X165009794Y-100843705D01*
X165100000Y-100390209D01*
X165190206Y-100843705D01*
X165467025Y-101257993D01*
X165881313Y-101534812D01*
X166370000Y-101632018D01*
X166858687Y-101534812D01*
X167272975Y-101257993D01*
X167549794Y-100843705D01*
X167640000Y-100390209D01*
X167730206Y-100843705D01*
X168007025Y-101257993D01*
X168421313Y-101534812D01*
X168910000Y-101632018D01*
X169398687Y-101534812D01*
X169812975Y-101257993D01*
X170089794Y-100843705D01*
X170180000Y-100390209D01*
X170270206Y-100843705D01*
X170547025Y-101257993D01*
X170961313Y-101534812D01*
X171450000Y-101632018D01*
X171938687Y-101534812D01*
X172352975Y-101257993D01*
X172629794Y-100843705D01*
X172720000Y-100390209D01*
X172810206Y-100843705D01*
X173087025Y-101257993D01*
X173501313Y-101534812D01*
X173990000Y-101632018D01*
X174478687Y-101534812D01*
X174892975Y-101257993D01*
X175169794Y-100843705D01*
X175260000Y-100390209D01*
X175350206Y-100843705D01*
X175627025Y-101257993D01*
X176041313Y-101534812D01*
X176530000Y-101632018D01*
X177018687Y-101534812D01*
X177432975Y-101257993D01*
X177709794Y-100843705D01*
X177800000Y-100390209D01*
X177890206Y-100843705D01*
X178167025Y-101257993D01*
X178581313Y-101534812D01*
X179070000Y-101632018D01*
X179558687Y-101534812D01*
X179972975Y-101257993D01*
X180249794Y-100843705D01*
X180340000Y-100390209D01*
X180430206Y-100843705D01*
X180707025Y-101257993D01*
X181121313Y-101534812D01*
X181610000Y-101632018D01*
X182098687Y-101534812D01*
X182512975Y-101257993D01*
X182789794Y-100843705D01*
X182880000Y-100390209D01*
X182970206Y-100843705D01*
X183247025Y-101257993D01*
X183661313Y-101534812D01*
X184150000Y-101632018D01*
X184638687Y-101534812D01*
X185052975Y-101257993D01*
X185329794Y-100843705D01*
X185420000Y-100390209D01*
X185510206Y-100843705D01*
X185787025Y-101257993D01*
X186201313Y-101534812D01*
X186690000Y-101632018D01*
X187178687Y-101534812D01*
X187592975Y-101257993D01*
X187869794Y-100843705D01*
X187967000Y-100355018D01*
X187967000Y-100304982D01*
X187869794Y-99816295D01*
X187592975Y-99402007D01*
X187178687Y-99125188D01*
X186690000Y-99027982D01*
X186201313Y-99125188D01*
X185787025Y-99402007D01*
X185510206Y-99816295D01*
X185420000Y-100269791D01*
X185329794Y-99816295D01*
X185052975Y-99402007D01*
X184638687Y-99125188D01*
X184150000Y-99027982D01*
X183715129Y-99114483D01*
X182817646Y-98217000D01*
X194310000Y-98217000D01*
X194473406Y-98184497D01*
X194485224Y-98176600D01*
X195956905Y-98176600D01*
X195956905Y-101135600D01*
X208199000Y-101135600D01*
X208199000Y-98176600D01*
X195956905Y-98176600D01*
X194485224Y-98176600D01*
X194611935Y-98091935D01*
X194704497Y-97953406D01*
X194737000Y-97790000D01*
X194737000Y-94931328D01*
X204902640Y-94931328D01*
X205218178Y-95694989D01*
X205801938Y-96279768D01*
X206565047Y-96596639D01*
X207391328Y-96597360D01*
X208154989Y-96281822D01*
X208739768Y-95698062D01*
X209056639Y-94934953D01*
X209057360Y-94108672D01*
X208741822Y-93345011D01*
X208158062Y-92760232D01*
X207394953Y-92443361D01*
X206568672Y-92442640D01*
X205805011Y-92758178D01*
X205220232Y-93341938D01*
X204903361Y-94105047D01*
X204902640Y-94931328D01*
X194737000Y-94931328D01*
X194737000Y-93676445D01*
X194813161Y-93676445D01*
X194910985Y-93874413D01*
X195409035Y-94049453D01*
X195936157Y-94020572D01*
X196289015Y-93874413D01*
X196386839Y-93676445D01*
X197313161Y-93676445D01*
X197410985Y-93874413D01*
X197909035Y-94049453D01*
X198436157Y-94020572D01*
X198789015Y-93874413D01*
X198886839Y-93676445D01*
X198100000Y-92889605D01*
X197313161Y-93676445D01*
X196386839Y-93676445D01*
X195600000Y-92889605D01*
X194813161Y-93676445D01*
X194737000Y-93676445D01*
X194737000Y-93393394D01*
X195420395Y-92710000D01*
X195779605Y-92710000D01*
X196566445Y-93496839D01*
X196764413Y-93399015D01*
X196842984Y-93175453D01*
X196935587Y-93399015D01*
X197133555Y-93496839D01*
X197920395Y-92710000D01*
X198279605Y-92710000D01*
X199066445Y-93496839D01*
X199264413Y-93399015D01*
X199349199Y-93157769D01*
X199474369Y-93460703D01*
X199847334Y-93834319D01*
X200334885Y-94036769D01*
X200862798Y-94037229D01*
X201350703Y-93835631D01*
X201724319Y-93462666D01*
X201926769Y-92975115D01*
X201927229Y-92447202D01*
X201725631Y-91959297D01*
X201352666Y-91585681D01*
X200865115Y-91383231D01*
X200337202Y-91382771D01*
X199849297Y-91584369D01*
X199475681Y-91957334D01*
X199356718Y-92243828D01*
X199264413Y-92020985D01*
X199066445Y-91923161D01*
X198279605Y-92710000D01*
X197920395Y-92710000D01*
X197133555Y-91923161D01*
X196935587Y-92020985D01*
X196857016Y-92244547D01*
X196764413Y-92020985D01*
X196566445Y-91923161D01*
X195779605Y-92710000D01*
X195420395Y-92710000D01*
X194737000Y-92026606D01*
X194737000Y-91743555D01*
X194813161Y-91743555D01*
X195600000Y-92530395D01*
X196386839Y-91743555D01*
X197313161Y-91743555D01*
X198100000Y-92530395D01*
X198886839Y-91743555D01*
X198789015Y-91545587D01*
X198290965Y-91370547D01*
X197763843Y-91399428D01*
X197410985Y-91545587D01*
X197313161Y-91743555D01*
X196386839Y-91743555D01*
X196289015Y-91545587D01*
X195790965Y-91370547D01*
X195263843Y-91399428D01*
X194910985Y-91545587D01*
X194813161Y-91743555D01*
X194737000Y-91743555D01*
X194737000Y-90805000D01*
X194704497Y-90641594D01*
X194611935Y-90503065D01*
X194473406Y-90410503D01*
X194310000Y-90378000D01*
X189230000Y-90378000D01*
X189066594Y-90410503D01*
X188928065Y-90503065D01*
X188835503Y-90641594D01*
X188803000Y-90805000D01*
X188803000Y-94188000D01*
X183644250Y-94188000D01*
X183575250Y-94119000D01*
X183007000Y-94119000D01*
X183007000Y-94188000D01*
X182753000Y-94188000D01*
X182753000Y-94119000D01*
X182184750Y-94119000D01*
X182115750Y-94188000D01*
X178564250Y-94188000D01*
X178495250Y-94119000D01*
X177927000Y-94119000D01*
X177927000Y-94188000D01*
X177673000Y-94188000D01*
X177673000Y-94119000D01*
X177104750Y-94119000D01*
X177035750Y-94188000D01*
X153837000Y-94188000D01*
X153837000Y-94015065D01*
X153771993Y-93858124D01*
X153651876Y-93738007D01*
X153494936Y-93673000D01*
X153268750Y-93673000D01*
X153162000Y-93779750D01*
X153162000Y-94373000D01*
X153328018Y-94373000D01*
X153275503Y-94451594D01*
X153243000Y-94615000D01*
X153243000Y-94627000D01*
X153162000Y-94627000D01*
X153162000Y-94823000D01*
X152908000Y-94823000D01*
X152908000Y-94627000D01*
X152339750Y-94627000D01*
X152233000Y-94733750D01*
X152233000Y-94823000D01*
X151130000Y-94823000D01*
X150966594Y-94855503D01*
X150828065Y-94948065D01*
X150735503Y-95086594D01*
X150703000Y-95250000D01*
X150703000Y-95770578D01*
X149902000Y-94969578D01*
X149902000Y-94015065D01*
X152233000Y-94015065D01*
X152233000Y-94266250D01*
X152339750Y-94373000D01*
X152908000Y-94373000D01*
X152908000Y-93779750D01*
X152801250Y-93673000D01*
X152575064Y-93673000D01*
X152418124Y-93738007D01*
X152298007Y-93858124D01*
X152233000Y-94015065D01*
X149902000Y-94015065D01*
X149902000Y-93980000D01*
X149850466Y-93720923D01*
X149703711Y-93501289D01*
X148197070Y-91994648D01*
X148197151Y-91901319D01*
X148063918Y-91578869D01*
X147817429Y-91331949D01*
X147495211Y-91198153D01*
X147146319Y-91197849D01*
X146823869Y-91331082D01*
X146576949Y-91577571D01*
X146443153Y-91899789D01*
X146442849Y-92248681D01*
X146576082Y-92571131D01*
X146628065Y-92623205D01*
X146194953Y-92443361D01*
X145368672Y-92442640D01*
X144605011Y-92758178D01*
X144020232Y-93341938D01*
X143703361Y-94105047D01*
X143702640Y-94931328D01*
X143637000Y-94931328D01*
X143637000Y-87977296D01*
X143771427Y-88302635D01*
X144105606Y-88637397D01*
X144542456Y-88818793D01*
X145015469Y-88819206D01*
X145452635Y-88638573D01*
X145787397Y-88304394D01*
X145968793Y-87867544D01*
X145969206Y-87394531D01*
X145908260Y-87247030D01*
X156582647Y-76572643D01*
X156696887Y-76401673D01*
X156737002Y-76199998D01*
X156737002Y-74627103D01*
X156953053Y-74411429D01*
X157086849Y-74089211D01*
X157087153Y-73740319D01*
X156953920Y-73417869D01*
X156707431Y-73170949D01*
X156385213Y-73037153D01*
X156036321Y-73036849D01*
X155713871Y-73170082D01*
X155466951Y-73416571D01*
X155333155Y-73738789D01*
X155332851Y-74087681D01*
X155466084Y-74410131D01*
X155683002Y-74627428D01*
X155683002Y-75981708D01*
X145163074Y-86501636D01*
X145017544Y-86441207D01*
X144544531Y-86440794D01*
X144107365Y-86621427D01*
X143772603Y-86955606D01*
X143637000Y-87282174D01*
X143637000Y-85437296D01*
X143771427Y-85762635D01*
X144105606Y-86097397D01*
X144542456Y-86278793D01*
X145015469Y-86279206D01*
X145452635Y-86098573D01*
X145787397Y-85764394D01*
X145968793Y-85327544D01*
X145969206Y-84854531D01*
X145788573Y-84417365D01*
X145454394Y-84082603D01*
X145017544Y-83901207D01*
X144544531Y-83900794D01*
X144107365Y-84081427D01*
X143772603Y-84415606D01*
X143637000Y-84742174D01*
X143637000Y-82897296D01*
X143771427Y-83222635D01*
X144105606Y-83557397D01*
X144542456Y-83738793D01*
X145015469Y-83739206D01*
X145452635Y-83558573D01*
X145787397Y-83224394D01*
X145968793Y-82787544D01*
X145969206Y-82314531D01*
X145908260Y-82167030D01*
X147765113Y-80310177D01*
X147846082Y-80506137D01*
X148092571Y-80753057D01*
X148414789Y-80886853D01*
X148763681Y-80887157D01*
X149086131Y-80753924D01*
X149333051Y-80507435D01*
X149466847Y-80185217D01*
X149467115Y-79878175D01*
X153792405Y-75552885D01*
X154097681Y-75553151D01*
X154420131Y-75419918D01*
X154667051Y-75173429D01*
X154800847Y-74851211D01*
X154801151Y-74502319D01*
X154667918Y-74179869D01*
X154421429Y-73932949D01*
X154099211Y-73799153D01*
X153750319Y-73798849D01*
X153427869Y-73932082D01*
X153180949Y-74178571D01*
X153047153Y-74500789D01*
X153046885Y-74807825D01*
X150387000Y-77467710D01*
X150387000Y-76164290D01*
X152522405Y-74028885D01*
X152827681Y-74029151D01*
X153150131Y-73895918D01*
X153397051Y-73649429D01*
X153530847Y-73327211D01*
X153531151Y-72978319D01*
X153397918Y-72655869D01*
X153151429Y-72408949D01*
X152829211Y-72275153D01*
X152480319Y-72274849D01*
X152157869Y-72408082D01*
X151910949Y-72654571D01*
X151777153Y-72976789D01*
X151776885Y-73283825D01*
X149487355Y-75573355D01*
X149373115Y-75744325D01*
X149373115Y-75744326D01*
X149333000Y-75946000D01*
X149333000Y-77251710D01*
X145163074Y-81421636D01*
X145017544Y-81361207D01*
X144544531Y-81360794D01*
X144107365Y-81541427D01*
X143772603Y-81875606D01*
X143637000Y-82202174D01*
X143637000Y-80357296D01*
X143771427Y-80682635D01*
X144105606Y-81017397D01*
X144542456Y-81198793D01*
X145015469Y-81199206D01*
X145452635Y-81018573D01*
X145787397Y-80684394D01*
X145968793Y-80247544D01*
X145969206Y-79774531D01*
X145788573Y-79337365D01*
X145454394Y-79002603D01*
X145017544Y-78821207D01*
X144544531Y-78820794D01*
X144107365Y-79001427D01*
X143772603Y-79335606D01*
X143637000Y-79662174D01*
X143637000Y-77817296D01*
X143771427Y-78142635D01*
X144105606Y-78477397D01*
X144542456Y-78658793D01*
X145015469Y-78659206D01*
X145452635Y-78478573D01*
X145787397Y-78144394D01*
X145968793Y-77707544D01*
X145969206Y-77234531D01*
X145788573Y-76797365D01*
X145454394Y-76462603D01*
X145017544Y-76281207D01*
X144544531Y-76280794D01*
X144107365Y-76461427D01*
X143772603Y-76795606D01*
X143637000Y-77122174D01*
X143637000Y-75277296D01*
X143771427Y-75602635D01*
X144105606Y-75937397D01*
X144542456Y-76118793D01*
X145015469Y-76119206D01*
X145452635Y-75938573D01*
X145787397Y-75604394D01*
X145968793Y-75167544D01*
X145969206Y-74694531D01*
X145788573Y-74257365D01*
X145454394Y-73922603D01*
X145017544Y-73741207D01*
X144544531Y-73740794D01*
X144107365Y-73921427D01*
X143772603Y-74255606D01*
X143637000Y-74582174D01*
X143637000Y-72737296D01*
X143771427Y-73062635D01*
X144105606Y-73397397D01*
X144542456Y-73578793D01*
X145015469Y-73579206D01*
X145452635Y-73398573D01*
X145787397Y-73064394D01*
X145968793Y-72627544D01*
X145969206Y-72154531D01*
X145788573Y-71717365D01*
X145454394Y-71382603D01*
X145017544Y-71201207D01*
X144544531Y-71200794D01*
X144107365Y-71381427D01*
X143772603Y-71715606D01*
X143637000Y-72042174D01*
X143637000Y-70716365D01*
X144093240Y-70716365D01*
X144174097Y-70900018D01*
X144622043Y-71051959D01*
X145094037Y-71020913D01*
X145385903Y-70900018D01*
X145466760Y-70716365D01*
X144780000Y-70029605D01*
X144093240Y-70716365D01*
X143637000Y-70716365D01*
X143637000Y-70231425D01*
X143729982Y-70455903D01*
X143913635Y-70536760D01*
X144600395Y-69850000D01*
X144959605Y-69850000D01*
X145646365Y-70536760D01*
X145830018Y-70455903D01*
X145981959Y-70007957D01*
X145950913Y-69535963D01*
X145830018Y-69244097D01*
X145646365Y-69163240D01*
X144959605Y-69850000D01*
X144600395Y-69850000D01*
X143913635Y-69163240D01*
X143729982Y-69244097D01*
X143637000Y-69518223D01*
X143637000Y-68983635D01*
X144093240Y-68983635D01*
X144780000Y-69670395D01*
X145466760Y-68983635D01*
X145385903Y-68799982D01*
X144937957Y-68648041D01*
X144465963Y-68679087D01*
X144174097Y-68799982D01*
X144093240Y-68983635D01*
X143637000Y-68983635D01*
X143637000Y-68270373D01*
X143710150Y-68379850D01*
X143851393Y-68474225D01*
X144018000Y-68507365D01*
X145542000Y-68507365D01*
X145708607Y-68474225D01*
X145849850Y-68379850D01*
X145944225Y-68238607D01*
X145944545Y-68237000D01*
X155826024Y-68237000D01*
X158323000Y-70733976D01*
X158323000Y-81623000D01*
X156210000Y-81623000D01*
X155855253Y-81693563D01*
X155554512Y-81894512D01*
X153014512Y-84434512D01*
X152813564Y-84735252D01*
X152743000Y-85090000D01*
X152743000Y-90513000D01*
X151765000Y-90513000D01*
X151410252Y-90583564D01*
X151238985Y-90698001D01*
X151109512Y-90784512D01*
X150474512Y-91419512D01*
X150273564Y-91720253D01*
X150203000Y-92075000D01*
X150273564Y-92429747D01*
X150474512Y-92730488D01*
X150775253Y-92931436D01*
X151130000Y-93002000D01*
X151484747Y-92931436D01*
X151785488Y-92730488D01*
X152148976Y-92367000D01*
X155318024Y-92367000D01*
X156824512Y-93873488D01*
X157125253Y-94074437D01*
X157480000Y-94145000D01*
X172720000Y-94145000D01*
X173074748Y-94074436D01*
X173375488Y-93873488D01*
X173576436Y-93572748D01*
X173589501Y-93507065D01*
X176998000Y-93507065D01*
X176998000Y-93758250D01*
X177104750Y-93865000D01*
X177673000Y-93865000D01*
X177673000Y-93271750D01*
X177927000Y-93271750D01*
X177927000Y-93865000D01*
X178495250Y-93865000D01*
X178602000Y-93758250D01*
X178602000Y-93507065D01*
X182078000Y-93507065D01*
X182078000Y-93758250D01*
X182184750Y-93865000D01*
X182753000Y-93865000D01*
X182753000Y-93271750D01*
X183007000Y-93271750D01*
X183007000Y-93865000D01*
X183575250Y-93865000D01*
X183682000Y-93758250D01*
X183682000Y-93507065D01*
X183616993Y-93350124D01*
X183496876Y-93230007D01*
X183339936Y-93165000D01*
X183113750Y-93165000D01*
X183007000Y-93271750D01*
X182753000Y-93271750D01*
X182646250Y-93165000D01*
X182420064Y-93165000D01*
X182263124Y-93230007D01*
X182143007Y-93350124D01*
X182078000Y-93507065D01*
X178602000Y-93507065D01*
X178536993Y-93350124D01*
X178416876Y-93230007D01*
X178259936Y-93165000D01*
X178033750Y-93165000D01*
X177927000Y-93271750D01*
X177673000Y-93271750D01*
X177566250Y-93165000D01*
X177340064Y-93165000D01*
X177183124Y-93230007D01*
X177063007Y-93350124D01*
X176998000Y-93507065D01*
X173589501Y-93507065D01*
X173647000Y-93218000D01*
X173576436Y-92863252D01*
X173375488Y-92562512D01*
X173074748Y-92361564D01*
X172720000Y-92291000D01*
X157863976Y-92291000D01*
X156357488Y-90784512D01*
X156228015Y-90698001D01*
X156056748Y-90583564D01*
X155702000Y-90513000D01*
X154597000Y-90513000D01*
X154597000Y-85958750D01*
X157173000Y-85958750D01*
X157173000Y-86184936D01*
X157238007Y-86341876D01*
X157358124Y-86461993D01*
X157515065Y-86527000D01*
X157766250Y-86527000D01*
X157873000Y-86420250D01*
X157873000Y-85852000D01*
X157279750Y-85852000D01*
X157173000Y-85958750D01*
X154597000Y-85958750D01*
X154597000Y-85473976D01*
X154805912Y-85265064D01*
X157173000Y-85265064D01*
X157173000Y-85491250D01*
X157279750Y-85598000D01*
X157873000Y-85598000D01*
X157873000Y-85029750D01*
X158127000Y-85029750D01*
X158127000Y-85598000D01*
X158664635Y-85598000D01*
X158664635Y-85852000D01*
X158127000Y-85852000D01*
X158127000Y-86420250D01*
X158233750Y-86527000D01*
X158484935Y-86527000D01*
X158641876Y-86461993D01*
X158753645Y-86350224D01*
X158792150Y-86407850D01*
X158933393Y-86502225D01*
X159100000Y-86535365D01*
X159900000Y-86535365D01*
X160066607Y-86502225D01*
X160207850Y-86407850D01*
X160302225Y-86266607D01*
X160305130Y-86252000D01*
X160434236Y-86252000D01*
X160491606Y-86390846D01*
X160822412Y-86722230D01*
X161254853Y-86901795D01*
X161723093Y-86902204D01*
X162155846Y-86723394D01*
X162487230Y-86392588D01*
X162666795Y-85960147D01*
X162666796Y-85958093D01*
X165192796Y-85958093D01*
X165371606Y-86390846D01*
X165702412Y-86722230D01*
X166134853Y-86901795D01*
X166603093Y-86902204D01*
X167035846Y-86723394D01*
X167367230Y-86392588D01*
X167395869Y-86323618D01*
X167452150Y-86407850D01*
X167593393Y-86502225D01*
X167760000Y-86535365D01*
X168560000Y-86535365D01*
X168726607Y-86502225D01*
X168867850Y-86407850D01*
X168906355Y-86350224D01*
X169018124Y-86461993D01*
X169175065Y-86527000D01*
X169426250Y-86527000D01*
X169533000Y-86420250D01*
X169533000Y-85852000D01*
X169787000Y-85852000D01*
X169787000Y-86420250D01*
X169893750Y-86527000D01*
X170144935Y-86527000D01*
X170301876Y-86461993D01*
X170421993Y-86341876D01*
X170487000Y-86184936D01*
X170487000Y-85958750D01*
X170380250Y-85852000D01*
X169787000Y-85852000D01*
X169533000Y-85852000D01*
X168995365Y-85852000D01*
X168995365Y-85598000D01*
X169533000Y-85598000D01*
X169533000Y-85029750D01*
X169787000Y-85029750D01*
X169787000Y-85598000D01*
X170380250Y-85598000D01*
X170487000Y-85491250D01*
X170487000Y-85265064D01*
X170421993Y-85108124D01*
X170301876Y-84988007D01*
X170144935Y-84923000D01*
X169893750Y-84923000D01*
X169787000Y-85029750D01*
X169533000Y-85029750D01*
X169426250Y-84923000D01*
X169175065Y-84923000D01*
X169018124Y-84988007D01*
X168906355Y-85099776D01*
X168867850Y-85042150D01*
X168726607Y-84947775D01*
X168560000Y-84914635D01*
X167760000Y-84914635D01*
X167593393Y-84947775D01*
X167452150Y-85042150D01*
X167396056Y-85126101D01*
X167368394Y-85059154D01*
X167037588Y-84727770D01*
X166605147Y-84548205D01*
X166136907Y-84547796D01*
X165704154Y-84726606D01*
X165372770Y-85057412D01*
X165193205Y-85489853D01*
X165192796Y-85958093D01*
X162666796Y-85958093D01*
X162667204Y-85491907D01*
X162488394Y-85059154D01*
X162486993Y-85057750D01*
X163282000Y-85057750D01*
X163282000Y-85308935D01*
X163347007Y-85465876D01*
X163467124Y-85585993D01*
X163624064Y-85651000D01*
X163850250Y-85651000D01*
X163957000Y-85544250D01*
X163957000Y-84951000D01*
X164211000Y-84951000D01*
X164211000Y-85544250D01*
X164317750Y-85651000D01*
X164543936Y-85651000D01*
X164700876Y-85585993D01*
X164820993Y-85465876D01*
X164886000Y-85308935D01*
X164886000Y-85057750D01*
X164779250Y-84951000D01*
X164211000Y-84951000D01*
X163957000Y-84951000D01*
X163388750Y-84951000D01*
X163282000Y-85057750D01*
X162486993Y-85057750D01*
X162157588Y-84727770D01*
X161725147Y-84548205D01*
X161256907Y-84547796D01*
X160824154Y-84726606D01*
X160492770Y-85057412D01*
X160434393Y-85198000D01*
X160305130Y-85198000D01*
X160302225Y-85183393D01*
X160207850Y-85042150D01*
X160066607Y-84947775D01*
X159900000Y-84914635D01*
X159100000Y-84914635D01*
X158933393Y-84947775D01*
X158792150Y-85042150D01*
X158753645Y-85099776D01*
X158641876Y-84988007D01*
X158484935Y-84923000D01*
X158233750Y-84923000D01*
X158127000Y-85029750D01*
X157873000Y-85029750D01*
X157766250Y-84923000D01*
X157515065Y-84923000D01*
X157358124Y-84988007D01*
X157238007Y-85108124D01*
X157173000Y-85265064D01*
X154805912Y-85265064D01*
X156593976Y-83477000D01*
X158323000Y-83477000D01*
X158323000Y-83820000D01*
X158355503Y-83983406D01*
X158448065Y-84121935D01*
X158586594Y-84214497D01*
X158750000Y-84247000D01*
X163320135Y-84247000D01*
X163282000Y-84339065D01*
X163282000Y-84590250D01*
X163388750Y-84697000D01*
X163957000Y-84697000D01*
X163957000Y-84247000D01*
X164211000Y-84247000D01*
X164211000Y-84697000D01*
X164779250Y-84697000D01*
X164886000Y-84590250D01*
X164886000Y-84339065D01*
X164847865Y-84247000D01*
X175260000Y-84247000D01*
X175423406Y-84214497D01*
X175561935Y-84121935D01*
X175654497Y-83983406D01*
X175687000Y-83820000D01*
X175687000Y-81182290D01*
X181337000Y-86832290D01*
X181337000Y-90980897D01*
X181120949Y-91196571D01*
X180987153Y-91518789D01*
X180986849Y-91867681D01*
X181120082Y-92190131D01*
X181366571Y-92437051D01*
X181688789Y-92570847D01*
X182037681Y-92571151D01*
X182360131Y-92437918D01*
X182607051Y-92191429D01*
X182740847Y-91869211D01*
X182741151Y-91520319D01*
X182607918Y-91197869D01*
X182391000Y-90980572D01*
X182391000Y-88906432D01*
X199563174Y-88906432D01*
X199563174Y-89057399D01*
X200165052Y-89659278D01*
X200321993Y-89724285D01*
X200491864Y-89724285D01*
X200648804Y-89659278D01*
X200768921Y-89539161D01*
X201179973Y-89128110D01*
X201179973Y-88977142D01*
X200336218Y-88133387D01*
X199563174Y-88906432D01*
X182391000Y-88906432D01*
X182391000Y-87798136D01*
X198565715Y-87798136D01*
X198565715Y-87968007D01*
X198630722Y-88124948D01*
X199232601Y-88726826D01*
X199383568Y-88726826D01*
X200156613Y-87953782D01*
X200515823Y-87953782D01*
X201359578Y-88797537D01*
X201510546Y-88797537D01*
X201921597Y-88386485D01*
X202041714Y-88266368D01*
X202106721Y-88109428D01*
X202106721Y-87939557D01*
X202041714Y-87782616D01*
X201439835Y-87180738D01*
X201288868Y-87180738D01*
X200515823Y-87953782D01*
X200156613Y-87953782D01*
X199312858Y-87110027D01*
X199161890Y-87110027D01*
X198750839Y-87521079D01*
X198630722Y-87641196D01*
X198565715Y-87798136D01*
X182391000Y-87798136D01*
X182391000Y-86779454D01*
X199492463Y-86779454D01*
X199492463Y-86930422D01*
X200336218Y-87774177D01*
X201109262Y-87001132D01*
X201109262Y-86850165D01*
X200507384Y-86248286D01*
X200350443Y-86183279D01*
X200180572Y-86183279D01*
X200023632Y-86248286D01*
X199903515Y-86368403D01*
X199492463Y-86779454D01*
X182391000Y-86779454D01*
X182391000Y-86614000D01*
X182350885Y-86412326D01*
X182350885Y-86412325D01*
X182236645Y-86241355D01*
X177067290Y-81072000D01*
X179550405Y-81072000D01*
X183241641Y-84148030D01*
X183351594Y-84214497D01*
X183515000Y-84247000D01*
X190500000Y-84247000D01*
X190663406Y-84214497D01*
X190801935Y-84121935D01*
X190894497Y-83983406D01*
X190927000Y-83820000D01*
X190927000Y-76200000D01*
X190894497Y-76036594D01*
X190801935Y-75898065D01*
X190663406Y-75805503D01*
X190500000Y-75773000D01*
X175687000Y-75773000D01*
X175687000Y-72301000D01*
X177800000Y-72301000D01*
X178154748Y-72230436D01*
X178455488Y-72029488D01*
X179199976Y-71285000D01*
X182580827Y-71285000D01*
X182511155Y-71452789D01*
X182511102Y-71513122D01*
X182198319Y-71512849D01*
X181875869Y-71646082D01*
X181628949Y-71892571D01*
X181495153Y-72214789D01*
X181495100Y-72275122D01*
X181182319Y-72274849D01*
X180859869Y-72408082D01*
X180612949Y-72654571D01*
X180479153Y-72976789D01*
X180479100Y-73037122D01*
X180166319Y-73036849D01*
X179843869Y-73170082D01*
X179596949Y-73416571D01*
X179463153Y-73738789D01*
X179462853Y-74082635D01*
X179313429Y-73932949D01*
X178991211Y-73799153D01*
X178642319Y-73798849D01*
X178319869Y-73932082D01*
X178072949Y-74178571D01*
X177939153Y-74500789D01*
X177938849Y-74849681D01*
X178072082Y-75172131D01*
X178318571Y-75419051D01*
X178640789Y-75552847D01*
X178989681Y-75553151D01*
X179312131Y-75419918D01*
X179529428Y-75203000D01*
X190662710Y-75203000D01*
X197847000Y-82387290D01*
X197847000Y-83566000D01*
X197887115Y-83767675D01*
X198001355Y-83938645D01*
X199655363Y-85592654D01*
X199826334Y-85706893D01*
X200028008Y-85747008D01*
X201417789Y-85747008D01*
X201402794Y-85753204D01*
X201176991Y-85978613D01*
X201054637Y-86273275D01*
X201054358Y-86592331D01*
X201176198Y-86887206D01*
X201401607Y-87113009D01*
X201696269Y-87235363D01*
X202015325Y-87235642D01*
X202310200Y-87113802D01*
X202536003Y-86888393D01*
X202658357Y-86593731D01*
X202658605Y-86309895D01*
X202673000Y-86324290D01*
X202673000Y-87105254D01*
X202713115Y-87306929D01*
X202827355Y-87477899D01*
X203566285Y-88216830D01*
X203487205Y-88335183D01*
X203454065Y-88501790D01*
X203487205Y-88668397D01*
X203581580Y-88809640D01*
X204536174Y-89764234D01*
X204677417Y-89858609D01*
X204844024Y-89891749D01*
X205010631Y-89858609D01*
X205151874Y-89764234D01*
X205858980Y-89057128D01*
X205953355Y-88915885D01*
X205963559Y-88864584D01*
X206093526Y-88810751D01*
X206341852Y-88562425D01*
X206341852Y-88411458D01*
X205727907Y-87797512D01*
X205471486Y-88053934D01*
X205291881Y-87874329D01*
X205548302Y-87617907D01*
X204934356Y-87003962D01*
X204783389Y-87003962D01*
X204535063Y-87252288D01*
X204481230Y-87382255D01*
X204429929Y-87392459D01*
X204311576Y-87471539D01*
X203727000Y-86886964D01*
X203727000Y-86106000D01*
X203701898Y-85979800D01*
X203686885Y-85904325D01*
X203572645Y-85733355D01*
X202686653Y-84847363D01*
X202515683Y-84733123D01*
X202314008Y-84693008D01*
X200246299Y-84693008D01*
X200178886Y-84625595D01*
X200767811Y-84036670D01*
X200862186Y-83895427D01*
X200872954Y-83841292D01*
X200927089Y-83830524D01*
X201068332Y-83736149D01*
X201775438Y-83029043D01*
X201869813Y-82887800D01*
X201880581Y-82833664D01*
X201934716Y-82822896D01*
X202075959Y-82728521D01*
X202783065Y-82021415D01*
X202877440Y-81880172D01*
X202906879Y-81732169D01*
X202927000Y-81752290D01*
X202927000Y-84582000D01*
X202967115Y-84783675D01*
X203081355Y-84954645D01*
X203843355Y-85716645D01*
X204014326Y-85830885D01*
X204216000Y-85871000D01*
X205250964Y-85871000D01*
X205581540Y-86201576D01*
X205502459Y-86319929D01*
X205492255Y-86371230D01*
X205362288Y-86425063D01*
X205113962Y-86673389D01*
X205113962Y-86824356D01*
X205727907Y-87438302D01*
X205984329Y-87181881D01*
X206163934Y-87361486D01*
X205907512Y-87617907D01*
X206521458Y-88231852D01*
X206672425Y-88231852D01*
X206920751Y-87983526D01*
X206974584Y-87853559D01*
X207025885Y-87843355D01*
X207167128Y-87748980D01*
X207874234Y-87041874D01*
X207968609Y-86900631D01*
X208001749Y-86734024D01*
X207968609Y-86567417D01*
X207874234Y-86426174D01*
X206919640Y-85471580D01*
X206778397Y-85377205D01*
X206611790Y-85344065D01*
X206445183Y-85377205D01*
X206326830Y-85456286D01*
X205841899Y-84971355D01*
X205670929Y-84857115D01*
X205469254Y-84817000D01*
X204434290Y-84817000D01*
X204288861Y-84671571D01*
X204353308Y-84698332D01*
X204732037Y-84698662D01*
X205082063Y-84554034D01*
X205350099Y-84286466D01*
X205495338Y-83936692D01*
X205495668Y-83557963D01*
X205479334Y-83518431D01*
X205892616Y-83931714D01*
X206049557Y-83996721D01*
X206219428Y-83996721D01*
X206376368Y-83931714D01*
X206496485Y-83811597D01*
X206907537Y-83400546D01*
X206907537Y-83249578D01*
X206063782Y-82405823D01*
X205306394Y-83163212D01*
X205126944Y-82983450D01*
X205884177Y-82226218D01*
X206243387Y-82226218D01*
X207087142Y-83069973D01*
X207238110Y-83069973D01*
X207649161Y-82658921D01*
X207769278Y-82538804D01*
X207834285Y-82381864D01*
X207834285Y-82211993D01*
X207769278Y-82055052D01*
X207167399Y-81453174D01*
X207016432Y-81453174D01*
X206243387Y-82226218D01*
X205884177Y-82226218D01*
X205040422Y-81382463D01*
X204889454Y-81382463D01*
X204478403Y-81793515D01*
X204358286Y-81913632D01*
X204293279Y-82070572D01*
X204293279Y-82240443D01*
X204358286Y-82397384D01*
X204771092Y-82810189D01*
X204733698Y-82794662D01*
X204354969Y-82794332D01*
X204004943Y-82938960D01*
X203981000Y-82962861D01*
X203981000Y-81534000D01*
X203940885Y-81332326D01*
X203940885Y-81332325D01*
X203826645Y-81161355D01*
X203717180Y-81051890D01*
X205220027Y-81051890D01*
X205220027Y-81202858D01*
X206063782Y-82046613D01*
X206836826Y-81273568D01*
X206836826Y-81122601D01*
X206234948Y-80520722D01*
X206078007Y-80455715D01*
X205908136Y-80455715D01*
X205751196Y-80520722D01*
X205631079Y-80640839D01*
X205220027Y-81051890D01*
X203717180Y-81051890D01*
X202556645Y-79891355D01*
X202385675Y-79777115D01*
X202184000Y-79737000D01*
X199227291Y-79737000D01*
X191491617Y-72001327D01*
X191616747Y-71976437D01*
X191917488Y-71775488D01*
X192118437Y-71474747D01*
X192189000Y-71120000D01*
X192118437Y-70765253D01*
X191917488Y-70464512D01*
X191155488Y-69702512D01*
X191139820Y-69692043D01*
X190854748Y-69501564D01*
X190500000Y-69431000D01*
X178816000Y-69431000D01*
X178461252Y-69501564D01*
X178176180Y-69692043D01*
X178160512Y-69702512D01*
X177416024Y-70447000D01*
X175190870Y-70447000D01*
X173854970Y-69111100D01*
X198551333Y-69111100D01*
X198551333Y-78385100D01*
X208072000Y-78385100D01*
X208072000Y-69111100D01*
X198551333Y-69111100D01*
X173854970Y-69111100D01*
X172364339Y-67620469D01*
X177245794Y-67620469D01*
X177426427Y-68057635D01*
X177760606Y-68392397D01*
X178197456Y-68573793D01*
X178670469Y-68574206D01*
X179107635Y-68393573D01*
X179442397Y-68059394D01*
X179623793Y-67622544D01*
X179624206Y-67149531D01*
X179443573Y-66712365D01*
X179109394Y-66377603D01*
X178672544Y-66196207D01*
X178199531Y-66195794D01*
X177762365Y-66376427D01*
X177427603Y-66710606D01*
X177246207Y-67147456D01*
X177245794Y-67620469D01*
X172364339Y-67620469D01*
X171751935Y-67008065D01*
X171613406Y-66915503D01*
X171450000Y-66883000D01*
X169202000Y-66883000D01*
X169202000Y-62230000D01*
X169131436Y-61875252D01*
X168930488Y-61574512D01*
X168629748Y-61373564D01*
X168275000Y-61303000D01*
X167920252Y-61373564D01*
X167619512Y-61574512D01*
X167418564Y-61875252D01*
X167348000Y-62230000D01*
X167348000Y-66883000D01*
X161593976Y-66883000D01*
X157137000Y-62426024D01*
X157137000Y-62230049D01*
X157226607Y-62212225D01*
X157367850Y-62117850D01*
X157462225Y-61976607D01*
X157495365Y-61810000D01*
X157495365Y-61097454D01*
X157570206Y-61473705D01*
X157847025Y-61887993D01*
X158261313Y-62164812D01*
X158750000Y-62262018D01*
X159238687Y-62164812D01*
X159652975Y-61887993D01*
X159929794Y-61473705D01*
X159967485Y-61284215D01*
X160054831Y-61284215D01*
X160272924Y-61732214D01*
X160645858Y-62062651D01*
X160965787Y-62195158D01*
X161163000Y-62123338D01*
X161163000Y-61087000D01*
X161417000Y-61087000D01*
X161417000Y-62123338D01*
X161614213Y-62195158D01*
X161934142Y-62062651D01*
X162307076Y-61732214D01*
X162525169Y-61284215D01*
X162453930Y-61087000D01*
X161417000Y-61087000D01*
X161163000Y-61087000D01*
X160126070Y-61087000D01*
X160054831Y-61284215D01*
X159967485Y-61284215D01*
X160027000Y-60985018D01*
X160027000Y-60934982D01*
X162553000Y-60934982D01*
X162553000Y-60985018D01*
X162650206Y-61473705D01*
X162927025Y-61887993D01*
X163341313Y-62164812D01*
X163830000Y-62262018D01*
X164318687Y-62164812D01*
X164732975Y-61887993D01*
X165009794Y-61473705D01*
X165107000Y-60985018D01*
X165107000Y-60934982D01*
X165009794Y-60446295D01*
X164793775Y-60123000D01*
X177237635Y-60123000D01*
X177237635Y-61647000D01*
X177270775Y-61813607D01*
X177365150Y-61954850D01*
X177506393Y-62049225D01*
X177673000Y-62082365D01*
X179197000Y-62082365D01*
X179363607Y-62049225D01*
X179504850Y-61954850D01*
X179599225Y-61813607D01*
X179632365Y-61647000D01*
X179632365Y-60831328D01*
X204902640Y-60831328D01*
X205218178Y-61594989D01*
X205801938Y-62179768D01*
X206565047Y-62496639D01*
X207391328Y-62497360D01*
X208154989Y-62181822D01*
X208739768Y-61598062D01*
X209056639Y-60834953D01*
X209057360Y-60008672D01*
X208741822Y-59245011D01*
X208158062Y-58660232D01*
X207394953Y-58343361D01*
X206568672Y-58342640D01*
X205805011Y-58658178D01*
X205220232Y-59241938D01*
X204903361Y-60005047D01*
X204902640Y-60831328D01*
X179632365Y-60831328D01*
X179632365Y-60123000D01*
X179599225Y-59956393D01*
X179504850Y-59815150D01*
X179363607Y-59720775D01*
X179197000Y-59687635D01*
X177673000Y-59687635D01*
X177506393Y-59720775D01*
X177365150Y-59815150D01*
X177270775Y-59956393D01*
X177237635Y-60123000D01*
X164793775Y-60123000D01*
X164732975Y-60032007D01*
X164318687Y-59755188D01*
X163830000Y-59657982D01*
X163341313Y-59755188D01*
X162927025Y-60032007D01*
X162650206Y-60446295D01*
X162553000Y-60934982D01*
X160027000Y-60934982D01*
X159967486Y-60635785D01*
X160054831Y-60635785D01*
X160126070Y-60833000D01*
X161163000Y-60833000D01*
X161163000Y-59796662D01*
X161417000Y-59796662D01*
X161417000Y-60833000D01*
X162453930Y-60833000D01*
X162525169Y-60635785D01*
X162307076Y-60187786D01*
X161934142Y-59857349D01*
X161614213Y-59724842D01*
X161417000Y-59796662D01*
X161163000Y-59796662D01*
X160965787Y-59724842D01*
X160645858Y-59857349D01*
X160272924Y-60187786D01*
X160054831Y-60635785D01*
X159967486Y-60635785D01*
X159929794Y-60446295D01*
X159652975Y-60032007D01*
X159238687Y-59755188D01*
X158750000Y-59657982D01*
X158261313Y-59755188D01*
X157847025Y-60032007D01*
X157570206Y-60446295D01*
X157495365Y-60822546D01*
X157495365Y-60110000D01*
X157462225Y-59943393D01*
X157367850Y-59802150D01*
X157226607Y-59707775D01*
X157060000Y-59674635D01*
X155360000Y-59674635D01*
X155193393Y-59707775D01*
X155052150Y-59802150D01*
X154957775Y-59943393D01*
X154924635Y-60110000D01*
X154924635Y-61810000D01*
X154957775Y-61976607D01*
X155052150Y-62117850D01*
X155193393Y-62212225D01*
X155283000Y-62230049D01*
X155283000Y-62810000D01*
X155353564Y-63164748D01*
X155554512Y-63465488D01*
X158972024Y-66883000D01*
X158750000Y-66883000D01*
X158586594Y-66915503D01*
X158448065Y-67008065D01*
X158355503Y-67146594D01*
X158323000Y-67310000D01*
X158323000Y-68112024D01*
X156865488Y-66654512D01*
X156706081Y-66548000D01*
X156564748Y-66453564D01*
X156210000Y-66383000D01*
X145944545Y-66383000D01*
X145944225Y-66381393D01*
X145849850Y-66240150D01*
X145708607Y-66145775D01*
X145542000Y-66112635D01*
X144018000Y-66112635D01*
X143851393Y-66145775D01*
X143710150Y-66240150D01*
X143637000Y-66349627D01*
X143637000Y-60831328D01*
X143702640Y-60831328D01*
X144018178Y-61594989D01*
X144601938Y-62179768D01*
X145365047Y-62496639D01*
X146191328Y-62497360D01*
X146954989Y-62181822D01*
X147539768Y-61598062D01*
X147856639Y-60834953D01*
X147857360Y-60008672D01*
X147541822Y-59245011D01*
X146958062Y-58660232D01*
X146194953Y-58343361D01*
X145368672Y-58342640D01*
X144605011Y-58658178D01*
X144020232Y-59241938D01*
X143703361Y-60005047D01*
X143702640Y-60831328D01*
X143637000Y-60831328D01*
X143637000Y-57912000D01*
X209423000Y-57912000D01*
X209423000Y-104648000D01*
X209423000Y-104648000D01*
G37*
X209423000Y-104648000D02*
X143637000Y-104648000D01*
X143637000Y-103103750D01*
X144773000Y-103103750D01*
X144773000Y-103804935D01*
X144838007Y-103961876D01*
X144958124Y-104081993D01*
X145115064Y-104147000D01*
X145816250Y-104147000D01*
X145923000Y-104040250D01*
X145923000Y-102997000D01*
X146177000Y-102997000D01*
X146177000Y-104040250D01*
X146283750Y-104147000D01*
X146984936Y-104147000D01*
X147141876Y-104081993D01*
X147261993Y-103961876D01*
X147327000Y-103804935D01*
X147327000Y-103103750D01*
X147220250Y-102997000D01*
X146177000Y-102997000D01*
X145923000Y-102997000D01*
X144879750Y-102997000D01*
X144773000Y-103103750D01*
X143637000Y-103103750D01*
X143637000Y-101935065D01*
X144773000Y-101935065D01*
X144773000Y-102636250D01*
X144879750Y-102743000D01*
X145923000Y-102743000D01*
X145923000Y-101699750D01*
X146177000Y-101699750D01*
X146177000Y-102743000D01*
X147220250Y-102743000D01*
X147327000Y-102636250D01*
X147327000Y-101935065D01*
X147261993Y-101778124D01*
X147141876Y-101658007D01*
X146984936Y-101593000D01*
X146283750Y-101593000D01*
X146177000Y-101699750D01*
X145923000Y-101699750D01*
X145816250Y-101593000D01*
X145115064Y-101593000D01*
X144958124Y-101658007D01*
X144838007Y-101778124D01*
X144773000Y-101935065D01*
X143637000Y-101935065D01*
X143637000Y-94931328D01*
X143702640Y-94931328D01*
X144018178Y-95694989D01*
X144601938Y-96279768D01*
X145365047Y-96596639D01*
X146191328Y-96597360D01*
X146954989Y-96281822D01*
X147539768Y-95698062D01*
X147856639Y-94934953D01*
X147857360Y-94108672D01*
X147541822Y-93345011D01*
X147149347Y-92951851D01*
X147239508Y-92951930D01*
X148548000Y-94260422D01*
X148548000Y-95250000D01*
X148599534Y-95509077D01*
X148607694Y-95521289D01*
X148746289Y-95728711D01*
X150016289Y-96998711D01*
X150235923Y-97145466D01*
X150495000Y-97197000D01*
X150703000Y-97197000D01*
X150703000Y-97790000D01*
X150735503Y-97953406D01*
X150828065Y-98091935D01*
X150966594Y-98184497D01*
X151130000Y-98217000D01*
X154305000Y-98217000D01*
X154468406Y-98184497D01*
X154606935Y-98091935D01*
X154699497Y-97953406D01*
X154732000Y-97790000D01*
X154732000Y-96312000D01*
X175468000Y-96312000D01*
X175468000Y-97790000D01*
X175500503Y-97953406D01*
X175593065Y-98091935D01*
X175731594Y-98184497D01*
X175895000Y-98217000D01*
X179567514Y-98217000D01*
X179596082Y-98286139D01*
X179842571Y-98533059D01*
X180164789Y-98666855D01*
X180436446Y-98667092D01*
X180584677Y-98815323D01*
X180763759Y-98934982D01*
X180975000Y-98977000D01*
X182016354Y-98977000D01*
X182297153Y-99257799D01*
X182098687Y-99125188D01*
X181610000Y-99027982D01*
X181121313Y-99125188D01*
X180707025Y-99402007D01*
X180430206Y-99816295D01*
X180340000Y-100269791D01*
X180249794Y-99816295D01*
X179972975Y-99402007D01*
X179558687Y-99125188D01*
X179070000Y-99027982D01*
X178581313Y-99125188D01*
X178167025Y-99402007D01*
X177890206Y-99816295D01*
X177800000Y-100269791D01*
X177709794Y-99816295D01*
X177432975Y-99402007D01*
X177018687Y-99125188D01*
X176530000Y-99027982D01*
X176041313Y-99125188D01*
X175627025Y-99402007D01*
X175350206Y-99816295D01*
X175260000Y-100269791D01*
X175169794Y-99816295D01*
X174892975Y-99402007D01*
X174478687Y-99125188D01*
X173990000Y-99027982D01*
X173501313Y-99125188D01*
X173087025Y-99402007D01*
X172810206Y-99816295D01*
X172720000Y-100269791D01*
X172629794Y-99816295D01*
X172352975Y-99402007D01*
X171938687Y-99125188D01*
X171450000Y-99027982D01*
X170961313Y-99125188D01*
X170547025Y-99402007D01*
X170270206Y-99816295D01*
X170180000Y-100269791D01*
X170089794Y-99816295D01*
X169812975Y-99402007D01*
X169398687Y-99125188D01*
X168910000Y-99027982D01*
X168421313Y-99125188D01*
X168007025Y-99402007D01*
X167730206Y-99816295D01*
X167640000Y-100269791D01*
X167549794Y-99816295D01*
X167272975Y-99402007D01*
X166858687Y-99125188D01*
X166370000Y-99027982D01*
X165881313Y-99125188D01*
X165467025Y-99402007D01*
X165190206Y-99816295D01*
X165100000Y-100269791D01*
X165009794Y-99816295D01*
X164732975Y-99402007D01*
X164318687Y-99125188D01*
X163830000Y-99027982D01*
X163341313Y-99125188D01*
X162927025Y-99402007D01*
X162650206Y-99816295D01*
X162560000Y-100269791D01*
X162469794Y-99816295D01*
X162192975Y-99402007D01*
X161778687Y-99125188D01*
X161290000Y-99027982D01*
X160801313Y-99125188D01*
X160387025Y-99402007D01*
X160110206Y-99816295D01*
X160020000Y-100269791D01*
X159929794Y-99816295D01*
X159652975Y-99402007D01*
X159238687Y-99125188D01*
X158750000Y-99027982D01*
X158261313Y-99125188D01*
X157847025Y-99402007D01*
X157570206Y-99816295D01*
X157480000Y-100269791D01*
X157389794Y-99816295D01*
X157112975Y-99402007D01*
X156698687Y-99125188D01*
X156210000Y-99027982D01*
X155721313Y-99125188D01*
X155307025Y-99402007D01*
X155030206Y-99816295D01*
X154940000Y-100269791D01*
X154849794Y-99816295D01*
X154572975Y-99402007D01*
X154158687Y-99125188D01*
X153670000Y-99027982D01*
X153181313Y-99125188D01*
X152767025Y-99402007D01*
X152490206Y-99816295D01*
X152400000Y-100269791D01*
X152309794Y-99816295D01*
X152032975Y-99402007D01*
X151618687Y-99125188D01*
X151130000Y-99027982D01*
X150736959Y-99106163D01*
X150737151Y-98886319D01*
X150603918Y-98563869D01*
X150357429Y-98316949D01*
X150035211Y-98183153D01*
X149686319Y-98182849D01*
X149363869Y-98316082D01*
X149116949Y-98562571D01*
X148983153Y-98884789D01*
X148982960Y-99106147D01*
X148590000Y-99027982D01*
X148101313Y-99125188D01*
X147687025Y-99402007D01*
X147410206Y-99816295D01*
X147320000Y-100269791D01*
X147229794Y-99816295D01*
X146952975Y-99402007D01*
X146538687Y-99125188D01*
X146050000Y-99027982D01*
X145561313Y-99125188D01*
X145147025Y-99402007D01*
X144870206Y-99816295D01*
X144773000Y-100304982D01*
X144773000Y-100355018D01*
X144870206Y-100843705D01*
X145147025Y-101257993D01*
X145561313Y-101534812D01*
X146050000Y-101632018D01*
X146538687Y-101534812D01*
X146952975Y-101257993D01*
X147229794Y-100843705D01*
X147320000Y-100390209D01*
X147410206Y-100843705D01*
X147687025Y-101257993D01*
X148101313Y-101534812D01*
X148429035Y-101600000D01*
X148101313Y-101665188D01*
X147687025Y-101942007D01*
X147410206Y-102356295D01*
X147313000Y-102844982D01*
X147313000Y-102895018D01*
X147410206Y-103383705D01*
X147687025Y-103797993D01*
X148101313Y-104074812D01*
X148590000Y-104172018D01*
X149078687Y-104074812D01*
X149492975Y-103797993D01*
X149769794Y-103383705D01*
X149807485Y-103194215D01*
X149894831Y-103194215D01*
X150112924Y-103642214D01*
X150485858Y-103972651D01*
X150805787Y-104105158D01*
X151003000Y-104033338D01*
X151003000Y-102997000D01*
X151257000Y-102997000D01*
X151257000Y-104033338D01*
X151454213Y-104105158D01*
X151774142Y-103972651D01*
X152147076Y-103642214D01*
X152365169Y-103194215D01*
X152434831Y-103194215D01*
X152652924Y-103642214D01*
X153025858Y-103972651D01*
X153345787Y-104105158D01*
X153543000Y-104033338D01*
X153543000Y-102997000D01*
X153797000Y-102997000D01*
X153797000Y-104033338D01*
X153994213Y-104105158D01*
X154314142Y-103972651D01*
X154687076Y-103642214D01*
X154905169Y-103194215D01*
X154974831Y-103194215D01*
X155192924Y-103642214D01*
X155565858Y-103972651D01*
X155885787Y-104105158D01*
X156083000Y-104033338D01*
X156083000Y-102997000D01*
X156337000Y-102997000D01*
X156337000Y-104033338D01*
X156534213Y-104105158D01*
X156854142Y-103972651D01*
X157227076Y-103642214D01*
X157445169Y-103194215D01*
X157514831Y-103194215D01*
X157732924Y-103642214D01*
X158105858Y-103972651D01*
X158425787Y-104105158D01*
X158623000Y-104033338D01*
X158623000Y-102997000D01*
X158877000Y-102997000D01*
X158877000Y-104033338D01*
X159074213Y-104105158D01*
X159394142Y-103972651D01*
X159767076Y-103642214D01*
X159985169Y-103194215D01*
X160054831Y-103194215D01*
X160272924Y-103642214D01*
X160645858Y-103972651D01*
X160965787Y-104105158D01*
X161163000Y-104033338D01*
X161163000Y-102997000D01*
X161417000Y-102997000D01*
X161417000Y-104033338D01*
X161614213Y-104105158D01*
X161934142Y-103972651D01*
X162307076Y-103642214D01*
X162525169Y-103194215D01*
X162594831Y-103194215D01*
X162812924Y-103642214D01*
X163185858Y-103972651D01*
X163505787Y-104105158D01*
X163703000Y-104033338D01*
X163703000Y-102997000D01*
X163957000Y-102997000D01*
X163957000Y-104033338D01*
X164154213Y-104105158D01*
X164474142Y-103972651D01*
X164847076Y-103642214D01*
X165065169Y-103194215D01*
X165134831Y-103194215D01*
X165352924Y-103642214D01*
X165725858Y-103972651D01*
X166045787Y-104105158D01*
X166243000Y-104033338D01*
X166243000Y-102997000D01*
X166497000Y-102997000D01*
X166497000Y-104033338D01*
X166694213Y-104105158D01*
X167014142Y-103972651D01*
X167387076Y-103642214D01*
X167605169Y-103194215D01*
X167674831Y-103194215D01*
X167892924Y-103642214D01*
X168265858Y-103972651D01*
X168585787Y-104105158D01*
X168783000Y-104033338D01*
X168783000Y-102997000D01*
X169037000Y-102997000D01*
X169037000Y-104033338D01*
X169234213Y-104105158D01*
X169554142Y-103972651D01*
X169927076Y-103642214D01*
X170145169Y-103194215D01*
X170214831Y-103194215D01*
X170432924Y-103642214D01*
X170805858Y-103972651D01*
X171125787Y-104105158D01*
X171323000Y-104033338D01*
X171323000Y-102997000D01*
X171577000Y-102997000D01*
X171577000Y-104033338D01*
X171774213Y-104105158D01*
X172094142Y-103972651D01*
X172467076Y-103642214D01*
X172685169Y-103194215D01*
X172754831Y-103194215D01*
X172972924Y-103642214D01*
X173345858Y-103972651D01*
X173665787Y-104105158D01*
X173863000Y-104033338D01*
X173863000Y-102997000D01*
X174117000Y-102997000D01*
X174117000Y-104033338D01*
X174314213Y-104105158D01*
X174634142Y-103972651D01*
X175007076Y-103642214D01*
X175225169Y-103194215D01*
X175294831Y-103194215D01*
X175512924Y-103642214D01*
X175885858Y-103972651D01*
X176205787Y-104105158D01*
X176403000Y-104033338D01*
X176403000Y-102997000D01*
X176657000Y-102997000D01*
X176657000Y-104033338D01*
X176854213Y-104105158D01*
X177174142Y-103972651D01*
X177547076Y-103642214D01*
X177765169Y-103194215D01*
X177834831Y-103194215D01*
X178052924Y-103642214D01*
X178425858Y-103972651D01*
X178745787Y-104105158D01*
X178943000Y-104033338D01*
X178943000Y-102997000D01*
X179197000Y-102997000D01*
X179197000Y-104033338D01*
X179394213Y-104105158D01*
X179714142Y-103972651D01*
X180087076Y-103642214D01*
X180305169Y-103194215D01*
X180374831Y-103194215D01*
X180592924Y-103642214D01*
X180965858Y-103972651D01*
X181285787Y-104105158D01*
X181483000Y-104033338D01*
X181483000Y-102997000D01*
X181737000Y-102997000D01*
X181737000Y-104033338D01*
X181934213Y-104105158D01*
X182254142Y-103972651D01*
X182627076Y-103642214D01*
X182845169Y-103194215D01*
X182914831Y-103194215D01*
X183132924Y-103642214D01*
X183505858Y-103972651D01*
X183825787Y-104105158D01*
X184023000Y-104033338D01*
X184023000Y-102997000D01*
X184277000Y-102997000D01*
X184277000Y-104033338D01*
X184474213Y-104105158D01*
X184794142Y-103972651D01*
X185167076Y-103642214D01*
X185385169Y-103194215D01*
X185454831Y-103194215D01*
X185672924Y-103642214D01*
X186045858Y-103972651D01*
X186365787Y-104105158D01*
X186563000Y-104033338D01*
X186563000Y-102997000D01*
X186817000Y-102997000D01*
X186817000Y-104033338D01*
X187014213Y-104105158D01*
X187334142Y-103972651D01*
X187707076Y-103642214D01*
X187925169Y-103194215D01*
X187853930Y-102997000D01*
X186817000Y-102997000D01*
X186563000Y-102997000D01*
X185526070Y-102997000D01*
X185454831Y-103194215D01*
X185385169Y-103194215D01*
X185313930Y-102997000D01*
X184277000Y-102997000D01*
X184023000Y-102997000D01*
X182986070Y-102997000D01*
X182914831Y-103194215D01*
X182845169Y-103194215D01*
X182773930Y-102997000D01*
X181737000Y-102997000D01*
X181483000Y-102997000D01*
X180446070Y-102997000D01*
X180374831Y-103194215D01*
X180305169Y-103194215D01*
X180233930Y-102997000D01*
X179197000Y-102997000D01*
X178943000Y-102997000D01*
X177906070Y-102997000D01*
X177834831Y-103194215D01*
X177765169Y-103194215D01*
X177693930Y-102997000D01*
X176657000Y-102997000D01*
X176403000Y-102997000D01*
X175366070Y-102997000D01*
X175294831Y-103194215D01*
X175225169Y-103194215D01*
X175153930Y-102997000D01*
X174117000Y-102997000D01*
X173863000Y-102997000D01*
X172826070Y-102997000D01*
X172754831Y-103194215D01*
X172685169Y-103194215D01*
X172613930Y-102997000D01*
X171577000Y-102997000D01*
X171323000Y-102997000D01*
X170286070Y-102997000D01*
X170214831Y-103194215D01*
X170145169Y-103194215D01*
X170073930Y-102997000D01*
X169037000Y-102997000D01*
X168783000Y-102997000D01*
X167746070Y-102997000D01*
X167674831Y-103194215D01*
X167605169Y-103194215D01*
X167533930Y-102997000D01*
X166497000Y-102997000D01*
X166243000Y-102997000D01*
X165206070Y-102997000D01*
X165134831Y-103194215D01*
X165065169Y-103194215D01*
X164993930Y-102997000D01*
X163957000Y-102997000D01*
X163703000Y-102997000D01*
X162666070Y-102997000D01*
X162594831Y-103194215D01*
X162525169Y-103194215D01*
X162453930Y-102997000D01*
X161417000Y-102997000D01*
X161163000Y-102997000D01*
X160126070Y-102997000D01*
X160054831Y-103194215D01*
X159985169Y-103194215D01*
X159913930Y-102997000D01*
X158877000Y-102997000D01*
X158623000Y-102997000D01*
X157586070Y-102997000D01*
X157514831Y-103194215D01*
X157445169Y-103194215D01*
X157373930Y-102997000D01*
X156337000Y-102997000D01*
X156083000Y-102997000D01*
X155046070Y-102997000D01*
X154974831Y-103194215D01*
X154905169Y-103194215D01*
X154833930Y-102997000D01*
X153797000Y-102997000D01*
X153543000Y-102997000D01*
X152506070Y-102997000D01*
X152434831Y-103194215D01*
X152365169Y-103194215D01*
X152293930Y-102997000D01*
X151257000Y-102997000D01*
X151003000Y-102997000D01*
X149966070Y-102997000D01*
X149894831Y-103194215D01*
X149807485Y-103194215D01*
X149867000Y-102895018D01*
X149867000Y-102844982D01*
X149807486Y-102545785D01*
X149894831Y-102545785D01*
X149966070Y-102743000D01*
X151003000Y-102743000D01*
X151003000Y-101706662D01*
X151257000Y-101706662D01*
X151257000Y-102743000D01*
X152293930Y-102743000D01*
X152365169Y-102545785D01*
X152434831Y-102545785D01*
X152506070Y-102743000D01*
X153543000Y-102743000D01*
X153543000Y-101706662D01*
X153797000Y-101706662D01*
X153797000Y-102743000D01*
X154833930Y-102743000D01*
X154905169Y-102545785D01*
X154974831Y-102545785D01*
X155046070Y-102743000D01*
X156083000Y-102743000D01*
X156083000Y-101706662D01*
X156337000Y-101706662D01*
X156337000Y-102743000D01*
X157373930Y-102743000D01*
X157445169Y-102545785D01*
X157514831Y-102545785D01*
X157586070Y-102743000D01*
X158623000Y-102743000D01*
X158623000Y-101706662D01*
X158877000Y-101706662D01*
X158877000Y-102743000D01*
X159913930Y-102743000D01*
X159985169Y-102545785D01*
X160054831Y-102545785D01*
X160126070Y-102743000D01*
X161163000Y-102743000D01*
X161163000Y-101706662D01*
X161417000Y-101706662D01*
X161417000Y-102743000D01*
X162453930Y-102743000D01*
X162525169Y-102545785D01*
X162594831Y-102545785D01*
X162666070Y-102743000D01*
X163703000Y-102743000D01*
X163703000Y-101706662D01*
X163957000Y-101706662D01*
X163957000Y-102743000D01*
X164993930Y-102743000D01*
X165065169Y-102545785D01*
X165134831Y-102545785D01*
X165206070Y-102743000D01*
X166243000Y-102743000D01*
X166243000Y-101706662D01*
X166497000Y-101706662D01*
X166497000Y-102743000D01*
X167533930Y-102743000D01*
X167605169Y-102545785D01*
X167674831Y-102545785D01*
X167746070Y-102743000D01*
X168783000Y-102743000D01*
X168783000Y-101706662D01*
X169037000Y-101706662D01*
X169037000Y-102743000D01*
X170073930Y-102743000D01*
X170145169Y-102545785D01*
X170214831Y-102545785D01*
X170286070Y-102743000D01*
X171323000Y-102743000D01*
X171323000Y-101706662D01*
X171577000Y-101706662D01*
X171577000Y-102743000D01*
X172613930Y-102743000D01*
X172685169Y-102545785D01*
X172754831Y-102545785D01*
X172826070Y-102743000D01*
X173863000Y-102743000D01*
X173863000Y-101706662D01*
X174117000Y-101706662D01*
X174117000Y-102743000D01*
X175153930Y-102743000D01*
X175225169Y-102545785D01*
X175294831Y-102545785D01*
X175366070Y-102743000D01*
X176403000Y-102743000D01*
X176403000Y-101706662D01*
X176657000Y-101706662D01*
X176657000Y-102743000D01*
X177693930Y-102743000D01*
X177765169Y-102545785D01*
X177834831Y-102545785D01*
X177906070Y-102743000D01*
X178943000Y-102743000D01*
X178943000Y-101706662D01*
X179197000Y-101706662D01*
X179197000Y-102743000D01*
X180233930Y-102743000D01*
X180305169Y-102545785D01*
X180374831Y-102545785D01*
X180446070Y-102743000D01*
X181483000Y-102743000D01*
X181483000Y-101706662D01*
X181737000Y-101706662D01*
X181737000Y-102743000D01*
X182773930Y-102743000D01*
X182845169Y-102545785D01*
X182914831Y-102545785D01*
X182986070Y-102743000D01*
X184023000Y-102743000D01*
X184023000Y-101706662D01*
X184277000Y-101706662D01*
X184277000Y-102743000D01*
X185313930Y-102743000D01*
X185385169Y-102545785D01*
X185454831Y-102545785D01*
X185526070Y-102743000D01*
X186563000Y-102743000D01*
X186563000Y-101706662D01*
X186817000Y-101706662D01*
X186817000Y-102743000D01*
X187853930Y-102743000D01*
X187925169Y-102545785D01*
X187707076Y-102097786D01*
X187334142Y-101767349D01*
X187014213Y-101634842D01*
X186817000Y-101706662D01*
X186563000Y-101706662D01*
X186365787Y-101634842D01*
X186045858Y-101767349D01*
X185672924Y-102097786D01*
X185454831Y-102545785D01*
X185385169Y-102545785D01*
X185167076Y-102097786D01*
X184794142Y-101767349D01*
X184474213Y-101634842D01*
X184277000Y-101706662D01*
X184023000Y-101706662D01*
X183825787Y-101634842D01*
X183505858Y-101767349D01*
X183132924Y-102097786D01*
X182914831Y-102545785D01*
X182845169Y-102545785D01*
X182627076Y-102097786D01*
X182254142Y-101767349D01*
X181934213Y-101634842D01*
X181737000Y-101706662D01*
X181483000Y-101706662D01*
X181285787Y-101634842D01*
X180965858Y-101767349D01*
X180592924Y-102097786D01*
X180374831Y-102545785D01*
X180305169Y-102545785D01*
X180087076Y-102097786D01*
X179714142Y-101767349D01*
X179394213Y-101634842D01*
X179197000Y-101706662D01*
X178943000Y-101706662D01*
X178745787Y-101634842D01*
X178425858Y-101767349D01*
X178052924Y-102097786D01*
X177834831Y-102545785D01*
X177765169Y-102545785D01*
X177547076Y-102097786D01*
X177174142Y-101767349D01*
X176854213Y-101634842D01*
X176657000Y-101706662D01*
X176403000Y-101706662D01*
X176205787Y-101634842D01*
X175885858Y-101767349D01*
X175512924Y-102097786D01*
X175294831Y-102545785D01*
X175225169Y-102545785D01*
X175007076Y-102097786D01*
X174634142Y-101767349D01*
X174314213Y-101634842D01*
X174117000Y-101706662D01*
X173863000Y-101706662D01*
X173665787Y-101634842D01*
X173345858Y-101767349D01*
X172972924Y-102097786D01*
X172754831Y-102545785D01*
X172685169Y-102545785D01*
X172467076Y-102097786D01*
X172094142Y-101767349D01*
X171774213Y-101634842D01*
X171577000Y-101706662D01*
X171323000Y-101706662D01*
X171125787Y-101634842D01*
X170805858Y-101767349D01*
X170432924Y-102097786D01*
X170214831Y-102545785D01*
X170145169Y-102545785D01*
X169927076Y-102097786D01*
X169554142Y-101767349D01*
X169234213Y-101634842D01*
X169037000Y-101706662D01*
X168783000Y-101706662D01*
X168585787Y-101634842D01*
X168265858Y-101767349D01*
X167892924Y-102097786D01*
X167674831Y-102545785D01*
X167605169Y-102545785D01*
X167387076Y-102097786D01*
X167014142Y-101767349D01*
X166694213Y-101634842D01*
X166497000Y-101706662D01*
X166243000Y-101706662D01*
X166045787Y-101634842D01*
X165725858Y-101767349D01*
X165352924Y-102097786D01*
X165134831Y-102545785D01*
X165065169Y-102545785D01*
X164847076Y-102097786D01*
X164474142Y-101767349D01*
X164154213Y-101634842D01*
X163957000Y-101706662D01*
X163703000Y-101706662D01*
X163505787Y-101634842D01*
X163185858Y-101767349D01*
X162812924Y-102097786D01*
X162594831Y-102545785D01*
X162525169Y-102545785D01*
X162307076Y-102097786D01*
X161934142Y-101767349D01*
X161614213Y-101634842D01*
X161417000Y-101706662D01*
X161163000Y-101706662D01*
X160965787Y-101634842D01*
X160645858Y-101767349D01*
X160272924Y-102097786D01*
X160054831Y-102545785D01*
X159985169Y-102545785D01*
X159767076Y-102097786D01*
X159394142Y-101767349D01*
X159074213Y-101634842D01*
X158877000Y-101706662D01*
X158623000Y-101706662D01*
X158425787Y-101634842D01*
X158105858Y-101767349D01*
X157732924Y-102097786D01*
X157514831Y-102545785D01*
X157445169Y-102545785D01*
X157227076Y-102097786D01*
X156854142Y-101767349D01*
X156534213Y-101634842D01*
X156337000Y-101706662D01*
X156083000Y-101706662D01*
X155885787Y-101634842D01*
X155565858Y-101767349D01*
X155192924Y-102097786D01*
X154974831Y-102545785D01*
X154905169Y-102545785D01*
X154687076Y-102097786D01*
X154314142Y-101767349D01*
X153994213Y-101634842D01*
X153797000Y-101706662D01*
X153543000Y-101706662D01*
X153345787Y-101634842D01*
X153025858Y-101767349D01*
X152652924Y-102097786D01*
X152434831Y-102545785D01*
X152365169Y-102545785D01*
X152147076Y-102097786D01*
X151774142Y-101767349D01*
X151454213Y-101634842D01*
X151257000Y-101706662D01*
X151003000Y-101706662D01*
X150805787Y-101634842D01*
X150485858Y-101767349D01*
X150112924Y-102097786D01*
X149894831Y-102545785D01*
X149807486Y-102545785D01*
X149769794Y-102356295D01*
X149492975Y-101942007D01*
X149078687Y-101665188D01*
X148750965Y-101600000D01*
X149078687Y-101534812D01*
X149492975Y-101257993D01*
X149769794Y-100843705D01*
X149860000Y-100390209D01*
X149950206Y-100843705D01*
X150227025Y-101257993D01*
X150641313Y-101534812D01*
X151130000Y-101632018D01*
X151618687Y-101534812D01*
X152032975Y-101257993D01*
X152309794Y-100843705D01*
X152400000Y-100390209D01*
X152490206Y-100843705D01*
X152767025Y-101257993D01*
X153181313Y-101534812D01*
X153670000Y-101632018D01*
X154158687Y-101534812D01*
X154572975Y-101257993D01*
X154849794Y-100843705D01*
X154940000Y-100390209D01*
X155030206Y-100843705D01*
X155307025Y-101257993D01*
X155721313Y-101534812D01*
X156210000Y-101632018D01*
X156698687Y-101534812D01*
X157112975Y-101257993D01*
X157389794Y-100843705D01*
X157480000Y-100390209D01*
X157570206Y-100843705D01*
X157847025Y-101257993D01*
X158261313Y-101534812D01*
X158750000Y-101632018D01*
X159238687Y-101534812D01*
X159652975Y-101257993D01*
X159929794Y-100843705D01*
X160020000Y-100390209D01*
X160110206Y-100843705D01*
X160387025Y-101257993D01*
X160801313Y-101534812D01*
X161290000Y-101632018D01*
X161778687Y-101534812D01*
X162192975Y-101257993D01*
X162469794Y-100843705D01*
X162560000Y-100390209D01*
X162650206Y-100843705D01*
X162927025Y-101257993D01*
X163341313Y-101534812D01*
X163830000Y-101632018D01*
X164318687Y-101534812D01*
X164732975Y-101257993D01*
X165009794Y-100843705D01*
X165100000Y-100390209D01*
X165190206Y-100843705D01*
X165467025Y-101257993D01*
X165881313Y-101534812D01*
X166370000Y-101632018D01*
X166858687Y-101534812D01*
X167272975Y-101257993D01*
X167549794Y-100843705D01*
X167640000Y-100390209D01*
X167730206Y-100843705D01*
X168007025Y-101257993D01*
X168421313Y-101534812D01*
X168910000Y-101632018D01*
X169398687Y-101534812D01*
X169812975Y-101257993D01*
X170089794Y-100843705D01*
X170180000Y-100390209D01*
X170270206Y-100843705D01*
X170547025Y-101257993D01*
X170961313Y-101534812D01*
X171450000Y-101632018D01*
X171938687Y-101534812D01*
X172352975Y-101257993D01*
X172629794Y-100843705D01*
X172720000Y-100390209D01*
X172810206Y-100843705D01*
X173087025Y-101257993D01*
X173501313Y-101534812D01*
X173990000Y-101632018D01*
X174478687Y-101534812D01*
X174892975Y-101257993D01*
X175169794Y-100843705D01*
X175260000Y-100390209D01*
X175350206Y-100843705D01*
X175627025Y-101257993D01*
X176041313Y-101534812D01*
X176530000Y-101632018D01*
X177018687Y-101534812D01*
X177432975Y-101257993D01*
X177709794Y-100843705D01*
X177800000Y-100390209D01*
X177890206Y-100843705D01*
X178167025Y-101257993D01*
X178581313Y-101534812D01*
X179070000Y-101632018D01*
X179558687Y-101534812D01*
X179972975Y-101257993D01*
X180249794Y-100843705D01*
X180340000Y-100390209D01*
X180430206Y-100843705D01*
X180707025Y-101257993D01*
X181121313Y-101534812D01*
X181610000Y-101632018D01*
X182098687Y-101534812D01*
X182512975Y-101257993D01*
X182789794Y-100843705D01*
X182880000Y-100390209D01*
X182970206Y-100843705D01*
X183247025Y-101257993D01*
X183661313Y-101534812D01*
X184150000Y-101632018D01*
X184638687Y-101534812D01*
X185052975Y-101257993D01*
X185329794Y-100843705D01*
X185420000Y-100390209D01*
X185510206Y-100843705D01*
X185787025Y-101257993D01*
X186201313Y-101534812D01*
X186690000Y-101632018D01*
X187178687Y-101534812D01*
X187592975Y-101257993D01*
X187869794Y-100843705D01*
X187967000Y-100355018D01*
X187967000Y-100304982D01*
X187869794Y-99816295D01*
X187592975Y-99402007D01*
X187178687Y-99125188D01*
X186690000Y-99027982D01*
X186201313Y-99125188D01*
X185787025Y-99402007D01*
X185510206Y-99816295D01*
X185420000Y-100269791D01*
X185329794Y-99816295D01*
X185052975Y-99402007D01*
X184638687Y-99125188D01*
X184150000Y-99027982D01*
X183715129Y-99114483D01*
X182817646Y-98217000D01*
X194310000Y-98217000D01*
X194473406Y-98184497D01*
X194485224Y-98176600D01*
X195956905Y-98176600D01*
X195956905Y-101135600D01*
X208199000Y-101135600D01*
X208199000Y-98176600D01*
X195956905Y-98176600D01*
X194485224Y-98176600D01*
X194611935Y-98091935D01*
X194704497Y-97953406D01*
X194737000Y-97790000D01*
X194737000Y-94931328D01*
X204902640Y-94931328D01*
X205218178Y-95694989D01*
X205801938Y-96279768D01*
X206565047Y-96596639D01*
X207391328Y-96597360D01*
X208154989Y-96281822D01*
X208739768Y-95698062D01*
X209056639Y-94934953D01*
X209057360Y-94108672D01*
X208741822Y-93345011D01*
X208158062Y-92760232D01*
X207394953Y-92443361D01*
X206568672Y-92442640D01*
X205805011Y-92758178D01*
X205220232Y-93341938D01*
X204903361Y-94105047D01*
X204902640Y-94931328D01*
X194737000Y-94931328D01*
X194737000Y-93676445D01*
X194813161Y-93676445D01*
X194910985Y-93874413D01*
X195409035Y-94049453D01*
X195936157Y-94020572D01*
X196289015Y-93874413D01*
X196386839Y-93676445D01*
X197313161Y-93676445D01*
X197410985Y-93874413D01*
X197909035Y-94049453D01*
X198436157Y-94020572D01*
X198789015Y-93874413D01*
X198886839Y-93676445D01*
X198100000Y-92889605D01*
X197313161Y-93676445D01*
X196386839Y-93676445D01*
X195600000Y-92889605D01*
X194813161Y-93676445D01*
X194737000Y-93676445D01*
X194737000Y-93393394D01*
X195420395Y-92710000D01*
X195779605Y-92710000D01*
X196566445Y-93496839D01*
X196764413Y-93399015D01*
X196842984Y-93175453D01*
X196935587Y-93399015D01*
X197133555Y-93496839D01*
X197920395Y-92710000D01*
X198279605Y-92710000D01*
X199066445Y-93496839D01*
X199264413Y-93399015D01*
X199349199Y-93157769D01*
X199474369Y-93460703D01*
X199847334Y-93834319D01*
X200334885Y-94036769D01*
X200862798Y-94037229D01*
X201350703Y-93835631D01*
X201724319Y-93462666D01*
X201926769Y-92975115D01*
X201927229Y-92447202D01*
X201725631Y-91959297D01*
X201352666Y-91585681D01*
X200865115Y-91383231D01*
X200337202Y-91382771D01*
X199849297Y-91584369D01*
X199475681Y-91957334D01*
X199356718Y-92243828D01*
X199264413Y-92020985D01*
X199066445Y-91923161D01*
X198279605Y-92710000D01*
X197920395Y-92710000D01*
X197133555Y-91923161D01*
X196935587Y-92020985D01*
X196857016Y-92244547D01*
X196764413Y-92020985D01*
X196566445Y-91923161D01*
X195779605Y-92710000D01*
X195420395Y-92710000D01*
X194737000Y-92026606D01*
X194737000Y-91743555D01*
X194813161Y-91743555D01*
X195600000Y-92530395D01*
X196386839Y-91743555D01*
X197313161Y-91743555D01*
X198100000Y-92530395D01*
X198886839Y-91743555D01*
X198789015Y-91545587D01*
X198290965Y-91370547D01*
X197763843Y-91399428D01*
X197410985Y-91545587D01*
X197313161Y-91743555D01*
X196386839Y-91743555D01*
X196289015Y-91545587D01*
X195790965Y-91370547D01*
X195263843Y-91399428D01*
X194910985Y-91545587D01*
X194813161Y-91743555D01*
X194737000Y-91743555D01*
X194737000Y-90805000D01*
X194704497Y-90641594D01*
X194611935Y-90503065D01*
X194473406Y-90410503D01*
X194310000Y-90378000D01*
X189230000Y-90378000D01*
X189066594Y-90410503D01*
X188928065Y-90503065D01*
X188835503Y-90641594D01*
X188803000Y-90805000D01*
X188803000Y-94188000D01*
X183644250Y-94188000D01*
X183575250Y-94119000D01*
X183007000Y-94119000D01*
X183007000Y-94188000D01*
X182753000Y-94188000D01*
X182753000Y-94119000D01*
X182184750Y-94119000D01*
X182115750Y-94188000D01*
X178564250Y-94188000D01*
X178495250Y-94119000D01*
X177927000Y-94119000D01*
X177927000Y-94188000D01*
X177673000Y-94188000D01*
X177673000Y-94119000D01*
X177104750Y-94119000D01*
X177035750Y-94188000D01*
X153837000Y-94188000D01*
X153837000Y-94015065D01*
X153771993Y-93858124D01*
X153651876Y-93738007D01*
X153494936Y-93673000D01*
X153268750Y-93673000D01*
X153162000Y-93779750D01*
X153162000Y-94373000D01*
X153328018Y-94373000D01*
X153275503Y-94451594D01*
X153243000Y-94615000D01*
X153243000Y-94627000D01*
X153162000Y-94627000D01*
X153162000Y-94823000D01*
X152908000Y-94823000D01*
X152908000Y-94627000D01*
X152339750Y-94627000D01*
X152233000Y-94733750D01*
X152233000Y-94823000D01*
X151130000Y-94823000D01*
X150966594Y-94855503D01*
X150828065Y-94948065D01*
X150735503Y-95086594D01*
X150703000Y-95250000D01*
X150703000Y-95770578D01*
X149902000Y-94969578D01*
X149902000Y-94015065D01*
X152233000Y-94015065D01*
X152233000Y-94266250D01*
X152339750Y-94373000D01*
X152908000Y-94373000D01*
X152908000Y-93779750D01*
X152801250Y-93673000D01*
X152575064Y-93673000D01*
X152418124Y-93738007D01*
X152298007Y-93858124D01*
X152233000Y-94015065D01*
X149902000Y-94015065D01*
X149902000Y-93980000D01*
X149850466Y-93720923D01*
X149703711Y-93501289D01*
X148197070Y-91994648D01*
X148197151Y-91901319D01*
X148063918Y-91578869D01*
X147817429Y-91331949D01*
X147495211Y-91198153D01*
X147146319Y-91197849D01*
X146823869Y-91331082D01*
X146576949Y-91577571D01*
X146443153Y-91899789D01*
X146442849Y-92248681D01*
X146576082Y-92571131D01*
X146628065Y-92623205D01*
X146194953Y-92443361D01*
X145368672Y-92442640D01*
X144605011Y-92758178D01*
X144020232Y-93341938D01*
X143703361Y-94105047D01*
X143702640Y-94931328D01*
X143637000Y-94931328D01*
X143637000Y-87977296D01*
X143771427Y-88302635D01*
X144105606Y-88637397D01*
X144542456Y-88818793D01*
X145015469Y-88819206D01*
X145452635Y-88638573D01*
X145787397Y-88304394D01*
X145968793Y-87867544D01*
X145969206Y-87394531D01*
X145908260Y-87247030D01*
X156582647Y-76572643D01*
X156696887Y-76401673D01*
X156737002Y-76199998D01*
X156737002Y-74627103D01*
X156953053Y-74411429D01*
X157086849Y-74089211D01*
X157087153Y-73740319D01*
X156953920Y-73417869D01*
X156707431Y-73170949D01*
X156385213Y-73037153D01*
X156036321Y-73036849D01*
X155713871Y-73170082D01*
X155466951Y-73416571D01*
X155333155Y-73738789D01*
X155332851Y-74087681D01*
X155466084Y-74410131D01*
X155683002Y-74627428D01*
X155683002Y-75981708D01*
X145163074Y-86501636D01*
X145017544Y-86441207D01*
X144544531Y-86440794D01*
X144107365Y-86621427D01*
X143772603Y-86955606D01*
X143637000Y-87282174D01*
X143637000Y-85437296D01*
X143771427Y-85762635D01*
X144105606Y-86097397D01*
X144542456Y-86278793D01*
X145015469Y-86279206D01*
X145452635Y-86098573D01*
X145787397Y-85764394D01*
X145968793Y-85327544D01*
X145969206Y-84854531D01*
X145788573Y-84417365D01*
X145454394Y-84082603D01*
X145017544Y-83901207D01*
X144544531Y-83900794D01*
X144107365Y-84081427D01*
X143772603Y-84415606D01*
X143637000Y-84742174D01*
X143637000Y-82897296D01*
X143771427Y-83222635D01*
X144105606Y-83557397D01*
X144542456Y-83738793D01*
X145015469Y-83739206D01*
X145452635Y-83558573D01*
X145787397Y-83224394D01*
X145968793Y-82787544D01*
X145969206Y-82314531D01*
X145908260Y-82167030D01*
X147765113Y-80310177D01*
X147846082Y-80506137D01*
X148092571Y-80753057D01*
X148414789Y-80886853D01*
X148763681Y-80887157D01*
X149086131Y-80753924D01*
X149333051Y-80507435D01*
X149466847Y-80185217D01*
X149467115Y-79878175D01*
X153792405Y-75552885D01*
X154097681Y-75553151D01*
X154420131Y-75419918D01*
X154667051Y-75173429D01*
X154800847Y-74851211D01*
X154801151Y-74502319D01*
X154667918Y-74179869D01*
X154421429Y-73932949D01*
X154099211Y-73799153D01*
X153750319Y-73798849D01*
X153427869Y-73932082D01*
X153180949Y-74178571D01*
X153047153Y-74500789D01*
X153046885Y-74807825D01*
X150387000Y-77467710D01*
X150387000Y-76164290D01*
X152522405Y-74028885D01*
X152827681Y-74029151D01*
X153150131Y-73895918D01*
X153397051Y-73649429D01*
X153530847Y-73327211D01*
X153531151Y-72978319D01*
X153397918Y-72655869D01*
X153151429Y-72408949D01*
X152829211Y-72275153D01*
X152480319Y-72274849D01*
X152157869Y-72408082D01*
X151910949Y-72654571D01*
X151777153Y-72976789D01*
X151776885Y-73283825D01*
X149487355Y-75573355D01*
X149373115Y-75744325D01*
X149373115Y-75744326D01*
X149333000Y-75946000D01*
X149333000Y-77251710D01*
X145163074Y-81421636D01*
X145017544Y-81361207D01*
X144544531Y-81360794D01*
X144107365Y-81541427D01*
X143772603Y-81875606D01*
X143637000Y-82202174D01*
X143637000Y-80357296D01*
X143771427Y-80682635D01*
X144105606Y-81017397D01*
X144542456Y-81198793D01*
X145015469Y-81199206D01*
X145452635Y-81018573D01*
X145787397Y-80684394D01*
X145968793Y-80247544D01*
X145969206Y-79774531D01*
X145788573Y-79337365D01*
X145454394Y-79002603D01*
X145017544Y-78821207D01*
X144544531Y-78820794D01*
X144107365Y-79001427D01*
X143772603Y-79335606D01*
X143637000Y-79662174D01*
X143637000Y-77817296D01*
X143771427Y-78142635D01*
X144105606Y-78477397D01*
X144542456Y-78658793D01*
X145015469Y-78659206D01*
X145452635Y-78478573D01*
X145787397Y-78144394D01*
X145968793Y-77707544D01*
X145969206Y-77234531D01*
X145788573Y-76797365D01*
X145454394Y-76462603D01*
X145017544Y-76281207D01*
X144544531Y-76280794D01*
X144107365Y-76461427D01*
X143772603Y-76795606D01*
X143637000Y-77122174D01*
X143637000Y-75277296D01*
X143771427Y-75602635D01*
X144105606Y-75937397D01*
X144542456Y-76118793D01*
X145015469Y-76119206D01*
X145452635Y-75938573D01*
X145787397Y-75604394D01*
X145968793Y-75167544D01*
X145969206Y-74694531D01*
X145788573Y-74257365D01*
X145454394Y-73922603D01*
X145017544Y-73741207D01*
X144544531Y-73740794D01*
X144107365Y-73921427D01*
X143772603Y-74255606D01*
X143637000Y-74582174D01*
X143637000Y-72737296D01*
X143771427Y-73062635D01*
X144105606Y-73397397D01*
X144542456Y-73578793D01*
X145015469Y-73579206D01*
X145452635Y-73398573D01*
X145787397Y-73064394D01*
X145968793Y-72627544D01*
X145969206Y-72154531D01*
X145788573Y-71717365D01*
X145454394Y-71382603D01*
X145017544Y-71201207D01*
X144544531Y-71200794D01*
X144107365Y-71381427D01*
X143772603Y-71715606D01*
X143637000Y-72042174D01*
X143637000Y-70716365D01*
X144093240Y-70716365D01*
X144174097Y-70900018D01*
X144622043Y-71051959D01*
X145094037Y-71020913D01*
X145385903Y-70900018D01*
X145466760Y-70716365D01*
X144780000Y-70029605D01*
X144093240Y-70716365D01*
X143637000Y-70716365D01*
X143637000Y-70231425D01*
X143729982Y-70455903D01*
X143913635Y-70536760D01*
X144600395Y-69850000D01*
X144959605Y-69850000D01*
X145646365Y-70536760D01*
X145830018Y-70455903D01*
X145981959Y-70007957D01*
X145950913Y-69535963D01*
X145830018Y-69244097D01*
X145646365Y-69163240D01*
X144959605Y-69850000D01*
X144600395Y-69850000D01*
X143913635Y-69163240D01*
X143729982Y-69244097D01*
X143637000Y-69518223D01*
X143637000Y-68983635D01*
X144093240Y-68983635D01*
X144780000Y-69670395D01*
X145466760Y-68983635D01*
X145385903Y-68799982D01*
X144937957Y-68648041D01*
X144465963Y-68679087D01*
X144174097Y-68799982D01*
X144093240Y-68983635D01*
X143637000Y-68983635D01*
X143637000Y-68270373D01*
X143710150Y-68379850D01*
X143851393Y-68474225D01*
X144018000Y-68507365D01*
X145542000Y-68507365D01*
X145708607Y-68474225D01*
X145849850Y-68379850D01*
X145944225Y-68238607D01*
X145944545Y-68237000D01*
X155826024Y-68237000D01*
X158323000Y-70733976D01*
X158323000Y-81623000D01*
X156210000Y-81623000D01*
X155855253Y-81693563D01*
X155554512Y-81894512D01*
X153014512Y-84434512D01*
X152813564Y-84735252D01*
X152743000Y-85090000D01*
X152743000Y-90513000D01*
X151765000Y-90513000D01*
X151410252Y-90583564D01*
X151238985Y-90698001D01*
X151109512Y-90784512D01*
X150474512Y-91419512D01*
X150273564Y-91720253D01*
X150203000Y-92075000D01*
X150273564Y-92429747D01*
X150474512Y-92730488D01*
X150775253Y-92931436D01*
X151130000Y-93002000D01*
X151484747Y-92931436D01*
X151785488Y-92730488D01*
X152148976Y-92367000D01*
X155318024Y-92367000D01*
X156824512Y-93873488D01*
X157125253Y-94074437D01*
X157480000Y-94145000D01*
X172720000Y-94145000D01*
X173074748Y-94074436D01*
X173375488Y-93873488D01*
X173576436Y-93572748D01*
X173589501Y-93507065D01*
X176998000Y-93507065D01*
X176998000Y-93758250D01*
X177104750Y-93865000D01*
X177673000Y-93865000D01*
X177673000Y-93271750D01*
X177927000Y-93271750D01*
X177927000Y-93865000D01*
X178495250Y-93865000D01*
X178602000Y-93758250D01*
X178602000Y-93507065D01*
X182078000Y-93507065D01*
X182078000Y-93758250D01*
X182184750Y-93865000D01*
X182753000Y-93865000D01*
X182753000Y-93271750D01*
X183007000Y-93271750D01*
X183007000Y-93865000D01*
X183575250Y-93865000D01*
X183682000Y-93758250D01*
X183682000Y-93507065D01*
X183616993Y-93350124D01*
X183496876Y-93230007D01*
X183339936Y-93165000D01*
X183113750Y-93165000D01*
X183007000Y-93271750D01*
X182753000Y-93271750D01*
X182646250Y-93165000D01*
X182420064Y-93165000D01*
X182263124Y-93230007D01*
X182143007Y-93350124D01*
X182078000Y-93507065D01*
X178602000Y-93507065D01*
X178536993Y-93350124D01*
X178416876Y-93230007D01*
X178259936Y-93165000D01*
X178033750Y-93165000D01*
X177927000Y-93271750D01*
X177673000Y-93271750D01*
X177566250Y-93165000D01*
X177340064Y-93165000D01*
X177183124Y-93230007D01*
X177063007Y-93350124D01*
X176998000Y-93507065D01*
X173589501Y-93507065D01*
X173647000Y-93218000D01*
X173576436Y-92863252D01*
X173375488Y-92562512D01*
X173074748Y-92361564D01*
X172720000Y-92291000D01*
X157863976Y-92291000D01*
X156357488Y-90784512D01*
X156228015Y-90698001D01*
X156056748Y-90583564D01*
X155702000Y-90513000D01*
X154597000Y-90513000D01*
X154597000Y-85958750D01*
X157173000Y-85958750D01*
X157173000Y-86184936D01*
X157238007Y-86341876D01*
X157358124Y-86461993D01*
X157515065Y-86527000D01*
X157766250Y-86527000D01*
X157873000Y-86420250D01*
X157873000Y-85852000D01*
X157279750Y-85852000D01*
X157173000Y-85958750D01*
X154597000Y-85958750D01*
X154597000Y-85473976D01*
X154805912Y-85265064D01*
X157173000Y-85265064D01*
X157173000Y-85491250D01*
X157279750Y-85598000D01*
X157873000Y-85598000D01*
X157873000Y-85029750D01*
X158127000Y-85029750D01*
X158127000Y-85598000D01*
X158664635Y-85598000D01*
X158664635Y-85852000D01*
X158127000Y-85852000D01*
X158127000Y-86420250D01*
X158233750Y-86527000D01*
X158484935Y-86527000D01*
X158641876Y-86461993D01*
X158753645Y-86350224D01*
X158792150Y-86407850D01*
X158933393Y-86502225D01*
X159100000Y-86535365D01*
X159900000Y-86535365D01*
X160066607Y-86502225D01*
X160207850Y-86407850D01*
X160302225Y-86266607D01*
X160305130Y-86252000D01*
X160434236Y-86252000D01*
X160491606Y-86390846D01*
X160822412Y-86722230D01*
X161254853Y-86901795D01*
X161723093Y-86902204D01*
X162155846Y-86723394D01*
X162487230Y-86392588D01*
X162666795Y-85960147D01*
X162666796Y-85958093D01*
X165192796Y-85958093D01*
X165371606Y-86390846D01*
X165702412Y-86722230D01*
X166134853Y-86901795D01*
X166603093Y-86902204D01*
X167035846Y-86723394D01*
X167367230Y-86392588D01*
X167395869Y-86323618D01*
X167452150Y-86407850D01*
X167593393Y-86502225D01*
X167760000Y-86535365D01*
X168560000Y-86535365D01*
X168726607Y-86502225D01*
X168867850Y-86407850D01*
X168906355Y-86350224D01*
X169018124Y-86461993D01*
X169175065Y-86527000D01*
X169426250Y-86527000D01*
X169533000Y-86420250D01*
X169533000Y-85852000D01*
X169787000Y-85852000D01*
X169787000Y-86420250D01*
X169893750Y-86527000D01*
X170144935Y-86527000D01*
X170301876Y-86461993D01*
X170421993Y-86341876D01*
X170487000Y-86184936D01*
X170487000Y-85958750D01*
X170380250Y-85852000D01*
X169787000Y-85852000D01*
X169533000Y-85852000D01*
X168995365Y-85852000D01*
X168995365Y-85598000D01*
X169533000Y-85598000D01*
X169533000Y-85029750D01*
X169787000Y-85029750D01*
X169787000Y-85598000D01*
X170380250Y-85598000D01*
X170487000Y-85491250D01*
X170487000Y-85265064D01*
X170421993Y-85108124D01*
X170301876Y-84988007D01*
X170144935Y-84923000D01*
X169893750Y-84923000D01*
X169787000Y-85029750D01*
X169533000Y-85029750D01*
X169426250Y-84923000D01*
X169175065Y-84923000D01*
X169018124Y-84988007D01*
X168906355Y-85099776D01*
X168867850Y-85042150D01*
X168726607Y-84947775D01*
X168560000Y-84914635D01*
X167760000Y-84914635D01*
X167593393Y-84947775D01*
X167452150Y-85042150D01*
X167396056Y-85126101D01*
X167368394Y-85059154D01*
X167037588Y-84727770D01*
X166605147Y-84548205D01*
X166136907Y-84547796D01*
X165704154Y-84726606D01*
X165372770Y-85057412D01*
X165193205Y-85489853D01*
X165192796Y-85958093D01*
X162666796Y-85958093D01*
X162667204Y-85491907D01*
X162488394Y-85059154D01*
X162486993Y-85057750D01*
X163282000Y-85057750D01*
X163282000Y-85308935D01*
X163347007Y-85465876D01*
X163467124Y-85585993D01*
X163624064Y-85651000D01*
X163850250Y-85651000D01*
X163957000Y-85544250D01*
X163957000Y-84951000D01*
X164211000Y-84951000D01*
X164211000Y-85544250D01*
X164317750Y-85651000D01*
X164543936Y-85651000D01*
X164700876Y-85585993D01*
X164820993Y-85465876D01*
X164886000Y-85308935D01*
X164886000Y-85057750D01*
X164779250Y-84951000D01*
X164211000Y-84951000D01*
X163957000Y-84951000D01*
X163388750Y-84951000D01*
X163282000Y-85057750D01*
X162486993Y-85057750D01*
X162157588Y-84727770D01*
X161725147Y-84548205D01*
X161256907Y-84547796D01*
X160824154Y-84726606D01*
X160492770Y-85057412D01*
X160434393Y-85198000D01*
X160305130Y-85198000D01*
X160302225Y-85183393D01*
X160207850Y-85042150D01*
X160066607Y-84947775D01*
X159900000Y-84914635D01*
X159100000Y-84914635D01*
X158933393Y-84947775D01*
X158792150Y-85042150D01*
X158753645Y-85099776D01*
X158641876Y-84988007D01*
X158484935Y-84923000D01*
X158233750Y-84923000D01*
X158127000Y-85029750D01*
X157873000Y-85029750D01*
X157766250Y-84923000D01*
X157515065Y-84923000D01*
X157358124Y-84988007D01*
X157238007Y-85108124D01*
X157173000Y-85265064D01*
X154805912Y-85265064D01*
X156593976Y-83477000D01*
X158323000Y-83477000D01*
X158323000Y-83820000D01*
X158355503Y-83983406D01*
X158448065Y-84121935D01*
X158586594Y-84214497D01*
X158750000Y-84247000D01*
X163320135Y-84247000D01*
X163282000Y-84339065D01*
X163282000Y-84590250D01*
X163388750Y-84697000D01*
X163957000Y-84697000D01*
X163957000Y-84247000D01*
X164211000Y-84247000D01*
X164211000Y-84697000D01*
X164779250Y-84697000D01*
X164886000Y-84590250D01*
X164886000Y-84339065D01*
X164847865Y-84247000D01*
X175260000Y-84247000D01*
X175423406Y-84214497D01*
X175561935Y-84121935D01*
X175654497Y-83983406D01*
X175687000Y-83820000D01*
X175687000Y-81182290D01*
X181337000Y-86832290D01*
X181337000Y-90980897D01*
X181120949Y-91196571D01*
X180987153Y-91518789D01*
X180986849Y-91867681D01*
X181120082Y-92190131D01*
X181366571Y-92437051D01*
X181688789Y-92570847D01*
X182037681Y-92571151D01*
X182360131Y-92437918D01*
X182607051Y-92191429D01*
X182740847Y-91869211D01*
X182741151Y-91520319D01*
X182607918Y-91197869D01*
X182391000Y-90980572D01*
X182391000Y-88906432D01*
X199563174Y-88906432D01*
X199563174Y-89057399D01*
X200165052Y-89659278D01*
X200321993Y-89724285D01*
X200491864Y-89724285D01*
X200648804Y-89659278D01*
X200768921Y-89539161D01*
X201179973Y-89128110D01*
X201179973Y-88977142D01*
X200336218Y-88133387D01*
X199563174Y-88906432D01*
X182391000Y-88906432D01*
X182391000Y-87798136D01*
X198565715Y-87798136D01*
X198565715Y-87968007D01*
X198630722Y-88124948D01*
X199232601Y-88726826D01*
X199383568Y-88726826D01*
X200156613Y-87953782D01*
X200515823Y-87953782D01*
X201359578Y-88797537D01*
X201510546Y-88797537D01*
X201921597Y-88386485D01*
X202041714Y-88266368D01*
X202106721Y-88109428D01*
X202106721Y-87939557D01*
X202041714Y-87782616D01*
X201439835Y-87180738D01*
X201288868Y-87180738D01*
X200515823Y-87953782D01*
X200156613Y-87953782D01*
X199312858Y-87110027D01*
X199161890Y-87110027D01*
X198750839Y-87521079D01*
X198630722Y-87641196D01*
X198565715Y-87798136D01*
X182391000Y-87798136D01*
X182391000Y-86779454D01*
X199492463Y-86779454D01*
X199492463Y-86930422D01*
X200336218Y-87774177D01*
X201109262Y-87001132D01*
X201109262Y-86850165D01*
X200507384Y-86248286D01*
X200350443Y-86183279D01*
X200180572Y-86183279D01*
X200023632Y-86248286D01*
X199903515Y-86368403D01*
X199492463Y-86779454D01*
X182391000Y-86779454D01*
X182391000Y-86614000D01*
X182350885Y-86412326D01*
X182350885Y-86412325D01*
X182236645Y-86241355D01*
X177067290Y-81072000D01*
X179550405Y-81072000D01*
X183241641Y-84148030D01*
X183351594Y-84214497D01*
X183515000Y-84247000D01*
X190500000Y-84247000D01*
X190663406Y-84214497D01*
X190801935Y-84121935D01*
X190894497Y-83983406D01*
X190927000Y-83820000D01*
X190927000Y-76200000D01*
X190894497Y-76036594D01*
X190801935Y-75898065D01*
X190663406Y-75805503D01*
X190500000Y-75773000D01*
X175687000Y-75773000D01*
X175687000Y-72301000D01*
X177800000Y-72301000D01*
X178154748Y-72230436D01*
X178455488Y-72029488D01*
X179199976Y-71285000D01*
X182580827Y-71285000D01*
X182511155Y-71452789D01*
X182511102Y-71513122D01*
X182198319Y-71512849D01*
X181875869Y-71646082D01*
X181628949Y-71892571D01*
X181495153Y-72214789D01*
X181495100Y-72275122D01*
X181182319Y-72274849D01*
X180859869Y-72408082D01*
X180612949Y-72654571D01*
X180479153Y-72976789D01*
X180479100Y-73037122D01*
X180166319Y-73036849D01*
X179843869Y-73170082D01*
X179596949Y-73416571D01*
X179463153Y-73738789D01*
X179462853Y-74082635D01*
X179313429Y-73932949D01*
X178991211Y-73799153D01*
X178642319Y-73798849D01*
X178319869Y-73932082D01*
X178072949Y-74178571D01*
X177939153Y-74500789D01*
X177938849Y-74849681D01*
X178072082Y-75172131D01*
X178318571Y-75419051D01*
X178640789Y-75552847D01*
X178989681Y-75553151D01*
X179312131Y-75419918D01*
X179529428Y-75203000D01*
X190662710Y-75203000D01*
X197847000Y-82387290D01*
X197847000Y-83566000D01*
X197887115Y-83767675D01*
X198001355Y-83938645D01*
X199655363Y-85592654D01*
X199826334Y-85706893D01*
X200028008Y-85747008D01*
X201417789Y-85747008D01*
X201402794Y-85753204D01*
X201176991Y-85978613D01*
X201054637Y-86273275D01*
X201054358Y-86592331D01*
X201176198Y-86887206D01*
X201401607Y-87113009D01*
X201696269Y-87235363D01*
X202015325Y-87235642D01*
X202310200Y-87113802D01*
X202536003Y-86888393D01*
X202658357Y-86593731D01*
X202658605Y-86309895D01*
X202673000Y-86324290D01*
X202673000Y-87105254D01*
X202713115Y-87306929D01*
X202827355Y-87477899D01*
X203566285Y-88216830D01*
X203487205Y-88335183D01*
X203454065Y-88501790D01*
X203487205Y-88668397D01*
X203581580Y-88809640D01*
X204536174Y-89764234D01*
X204677417Y-89858609D01*
X204844024Y-89891749D01*
X205010631Y-89858609D01*
X205151874Y-89764234D01*
X205858980Y-89057128D01*
X205953355Y-88915885D01*
X205963559Y-88864584D01*
X206093526Y-88810751D01*
X206341852Y-88562425D01*
X206341852Y-88411458D01*
X205727907Y-87797512D01*
X205471486Y-88053934D01*
X205291881Y-87874329D01*
X205548302Y-87617907D01*
X204934356Y-87003962D01*
X204783389Y-87003962D01*
X204535063Y-87252288D01*
X204481230Y-87382255D01*
X204429929Y-87392459D01*
X204311576Y-87471539D01*
X203727000Y-86886964D01*
X203727000Y-86106000D01*
X203701898Y-85979800D01*
X203686885Y-85904325D01*
X203572645Y-85733355D01*
X202686653Y-84847363D01*
X202515683Y-84733123D01*
X202314008Y-84693008D01*
X200246299Y-84693008D01*
X200178886Y-84625595D01*
X200767811Y-84036670D01*
X200862186Y-83895427D01*
X200872954Y-83841292D01*
X200927089Y-83830524D01*
X201068332Y-83736149D01*
X201775438Y-83029043D01*
X201869813Y-82887800D01*
X201880581Y-82833664D01*
X201934716Y-82822896D01*
X202075959Y-82728521D01*
X202783065Y-82021415D01*
X202877440Y-81880172D01*
X202906879Y-81732169D01*
X202927000Y-81752290D01*
X202927000Y-84582000D01*
X202967115Y-84783675D01*
X203081355Y-84954645D01*
X203843355Y-85716645D01*
X204014326Y-85830885D01*
X204216000Y-85871000D01*
X205250964Y-85871000D01*
X205581540Y-86201576D01*
X205502459Y-86319929D01*
X205492255Y-86371230D01*
X205362288Y-86425063D01*
X205113962Y-86673389D01*
X205113962Y-86824356D01*
X205727907Y-87438302D01*
X205984329Y-87181881D01*
X206163934Y-87361486D01*
X205907512Y-87617907D01*
X206521458Y-88231852D01*
X206672425Y-88231852D01*
X206920751Y-87983526D01*
X206974584Y-87853559D01*
X207025885Y-87843355D01*
X207167128Y-87748980D01*
X207874234Y-87041874D01*
X207968609Y-86900631D01*
X208001749Y-86734024D01*
X207968609Y-86567417D01*
X207874234Y-86426174D01*
X206919640Y-85471580D01*
X206778397Y-85377205D01*
X206611790Y-85344065D01*
X206445183Y-85377205D01*
X206326830Y-85456286D01*
X205841899Y-84971355D01*
X205670929Y-84857115D01*
X205469254Y-84817000D01*
X204434290Y-84817000D01*
X204288861Y-84671571D01*
X204353308Y-84698332D01*
X204732037Y-84698662D01*
X205082063Y-84554034D01*
X205350099Y-84286466D01*
X205495338Y-83936692D01*
X205495668Y-83557963D01*
X205479334Y-83518431D01*
X205892616Y-83931714D01*
X206049557Y-83996721D01*
X206219428Y-83996721D01*
X206376368Y-83931714D01*
X206496485Y-83811597D01*
X206907537Y-83400546D01*
X206907537Y-83249578D01*
X206063782Y-82405823D01*
X205306394Y-83163212D01*
X205126944Y-82983450D01*
X205884177Y-82226218D01*
X206243387Y-82226218D01*
X207087142Y-83069973D01*
X207238110Y-83069973D01*
X207649161Y-82658921D01*
X207769278Y-82538804D01*
X207834285Y-82381864D01*
X207834285Y-82211993D01*
X207769278Y-82055052D01*
X207167399Y-81453174D01*
X207016432Y-81453174D01*
X206243387Y-82226218D01*
X205884177Y-82226218D01*
X205040422Y-81382463D01*
X204889454Y-81382463D01*
X204478403Y-81793515D01*
X204358286Y-81913632D01*
X204293279Y-82070572D01*
X204293279Y-82240443D01*
X204358286Y-82397384D01*
X204771092Y-82810189D01*
X204733698Y-82794662D01*
X204354969Y-82794332D01*
X204004943Y-82938960D01*
X203981000Y-82962861D01*
X203981000Y-81534000D01*
X203940885Y-81332326D01*
X203940885Y-81332325D01*
X203826645Y-81161355D01*
X203717180Y-81051890D01*
X205220027Y-81051890D01*
X205220027Y-81202858D01*
X206063782Y-82046613D01*
X206836826Y-81273568D01*
X206836826Y-81122601D01*
X206234948Y-80520722D01*
X206078007Y-80455715D01*
X205908136Y-80455715D01*
X205751196Y-80520722D01*
X205631079Y-80640839D01*
X205220027Y-81051890D01*
X203717180Y-81051890D01*
X202556645Y-79891355D01*
X202385675Y-79777115D01*
X202184000Y-79737000D01*
X199227291Y-79737000D01*
X191491617Y-72001327D01*
X191616747Y-71976437D01*
X191917488Y-71775488D01*
X192118437Y-71474747D01*
X192189000Y-71120000D01*
X192118437Y-70765253D01*
X191917488Y-70464512D01*
X191155488Y-69702512D01*
X191139820Y-69692043D01*
X190854748Y-69501564D01*
X190500000Y-69431000D01*
X178816000Y-69431000D01*
X178461252Y-69501564D01*
X178176180Y-69692043D01*
X178160512Y-69702512D01*
X177416024Y-70447000D01*
X175190870Y-70447000D01*
X173854970Y-69111100D01*
X198551333Y-69111100D01*
X198551333Y-78385100D01*
X208072000Y-78385100D01*
X208072000Y-69111100D01*
X198551333Y-69111100D01*
X173854970Y-69111100D01*
X172364339Y-67620469D01*
X177245794Y-67620469D01*
X177426427Y-68057635D01*
X177760606Y-68392397D01*
X178197456Y-68573793D01*
X178670469Y-68574206D01*
X179107635Y-68393573D01*
X179442397Y-68059394D01*
X179623793Y-67622544D01*
X179624206Y-67149531D01*
X179443573Y-66712365D01*
X179109394Y-66377603D01*
X178672544Y-66196207D01*
X178199531Y-66195794D01*
X177762365Y-66376427D01*
X177427603Y-66710606D01*
X177246207Y-67147456D01*
X177245794Y-67620469D01*
X172364339Y-67620469D01*
X171751935Y-67008065D01*
X171613406Y-66915503D01*
X171450000Y-66883000D01*
X169202000Y-66883000D01*
X169202000Y-62230000D01*
X169131436Y-61875252D01*
X168930488Y-61574512D01*
X168629748Y-61373564D01*
X168275000Y-61303000D01*
X167920252Y-61373564D01*
X167619512Y-61574512D01*
X167418564Y-61875252D01*
X167348000Y-62230000D01*
X167348000Y-66883000D01*
X161593976Y-66883000D01*
X157137000Y-62426024D01*
X157137000Y-62230049D01*
X157226607Y-62212225D01*
X157367850Y-62117850D01*
X157462225Y-61976607D01*
X157495365Y-61810000D01*
X157495365Y-61097454D01*
X157570206Y-61473705D01*
X157847025Y-61887993D01*
X158261313Y-62164812D01*
X158750000Y-62262018D01*
X159238687Y-62164812D01*
X159652975Y-61887993D01*
X159929794Y-61473705D01*
X159967485Y-61284215D01*
X160054831Y-61284215D01*
X160272924Y-61732214D01*
X160645858Y-62062651D01*
X160965787Y-62195158D01*
X161163000Y-62123338D01*
X161163000Y-61087000D01*
X161417000Y-61087000D01*
X161417000Y-62123338D01*
X161614213Y-62195158D01*
X161934142Y-62062651D01*
X162307076Y-61732214D01*
X162525169Y-61284215D01*
X162453930Y-61087000D01*
X161417000Y-61087000D01*
X161163000Y-61087000D01*
X160126070Y-61087000D01*
X160054831Y-61284215D01*
X159967485Y-61284215D01*
X160027000Y-60985018D01*
X160027000Y-60934982D01*
X162553000Y-60934982D01*
X162553000Y-60985018D01*
X162650206Y-61473705D01*
X162927025Y-61887993D01*
X163341313Y-62164812D01*
X163830000Y-62262018D01*
X164318687Y-62164812D01*
X164732975Y-61887993D01*
X165009794Y-61473705D01*
X165107000Y-60985018D01*
X165107000Y-60934982D01*
X165009794Y-60446295D01*
X164793775Y-60123000D01*
X177237635Y-60123000D01*
X177237635Y-61647000D01*
X177270775Y-61813607D01*
X177365150Y-61954850D01*
X177506393Y-62049225D01*
X177673000Y-62082365D01*
X179197000Y-62082365D01*
X179363607Y-62049225D01*
X179504850Y-61954850D01*
X179599225Y-61813607D01*
X179632365Y-61647000D01*
X179632365Y-60831328D01*
X204902640Y-60831328D01*
X205218178Y-61594989D01*
X205801938Y-62179768D01*
X206565047Y-62496639D01*
X207391328Y-62497360D01*
X208154989Y-62181822D01*
X208739768Y-61598062D01*
X209056639Y-60834953D01*
X209057360Y-60008672D01*
X208741822Y-59245011D01*
X208158062Y-58660232D01*
X207394953Y-58343361D01*
X206568672Y-58342640D01*
X205805011Y-58658178D01*
X205220232Y-59241938D01*
X204903361Y-60005047D01*
X204902640Y-60831328D01*
X179632365Y-60831328D01*
X179632365Y-60123000D01*
X179599225Y-59956393D01*
X179504850Y-59815150D01*
X179363607Y-59720775D01*
X179197000Y-59687635D01*
X177673000Y-59687635D01*
X177506393Y-59720775D01*
X177365150Y-59815150D01*
X177270775Y-59956393D01*
X177237635Y-60123000D01*
X164793775Y-60123000D01*
X164732975Y-60032007D01*
X164318687Y-59755188D01*
X163830000Y-59657982D01*
X163341313Y-59755188D01*
X162927025Y-60032007D01*
X162650206Y-60446295D01*
X162553000Y-60934982D01*
X160027000Y-60934982D01*
X159967486Y-60635785D01*
X160054831Y-60635785D01*
X160126070Y-60833000D01*
X161163000Y-60833000D01*
X161163000Y-59796662D01*
X161417000Y-59796662D01*
X161417000Y-60833000D01*
X162453930Y-60833000D01*
X162525169Y-60635785D01*
X162307076Y-60187786D01*
X161934142Y-59857349D01*
X161614213Y-59724842D01*
X161417000Y-59796662D01*
X161163000Y-59796662D01*
X160965787Y-59724842D01*
X160645858Y-59857349D01*
X160272924Y-60187786D01*
X160054831Y-60635785D01*
X159967486Y-60635785D01*
X159929794Y-60446295D01*
X159652975Y-60032007D01*
X159238687Y-59755188D01*
X158750000Y-59657982D01*
X158261313Y-59755188D01*
X157847025Y-60032007D01*
X157570206Y-60446295D01*
X157495365Y-60822546D01*
X157495365Y-60110000D01*
X157462225Y-59943393D01*
X157367850Y-59802150D01*
X157226607Y-59707775D01*
X157060000Y-59674635D01*
X155360000Y-59674635D01*
X155193393Y-59707775D01*
X155052150Y-59802150D01*
X154957775Y-59943393D01*
X154924635Y-60110000D01*
X154924635Y-61810000D01*
X154957775Y-61976607D01*
X155052150Y-62117850D01*
X155193393Y-62212225D01*
X155283000Y-62230049D01*
X155283000Y-62810000D01*
X155353564Y-63164748D01*
X155554512Y-63465488D01*
X158972024Y-66883000D01*
X158750000Y-66883000D01*
X158586594Y-66915503D01*
X158448065Y-67008065D01*
X158355503Y-67146594D01*
X158323000Y-67310000D01*
X158323000Y-68112024D01*
X156865488Y-66654512D01*
X156706081Y-66548000D01*
X156564748Y-66453564D01*
X156210000Y-66383000D01*
X145944545Y-66383000D01*
X145944225Y-66381393D01*
X145849850Y-66240150D01*
X145708607Y-66145775D01*
X145542000Y-66112635D01*
X144018000Y-66112635D01*
X143851393Y-66145775D01*
X143710150Y-66240150D01*
X143637000Y-66349627D01*
X143637000Y-60831328D01*
X143702640Y-60831328D01*
X144018178Y-61594989D01*
X144601938Y-62179768D01*
X145365047Y-62496639D01*
X146191328Y-62497360D01*
X146954989Y-62181822D01*
X147539768Y-61598062D01*
X147856639Y-60834953D01*
X147857360Y-60008672D01*
X147541822Y-59245011D01*
X146958062Y-58660232D01*
X146194953Y-58343361D01*
X145368672Y-58342640D01*
X144605011Y-58658178D01*
X144020232Y-59241938D01*
X143703361Y-60005047D01*
X143702640Y-60831328D01*
X143637000Y-60831328D01*
X143637000Y-57912000D01*
X209423000Y-57912000D01*
X209423000Y-104648000D01*
G36*
X194183000Y-91980756D02*
X194066445Y-91923161D01*
X193279605Y-92710000D01*
X194066445Y-93496839D01*
X194183000Y-93439244D01*
X194183000Y-97663000D01*
X181217110Y-97663000D01*
X181217151Y-97616327D01*
X181102000Y-97337639D01*
X181102000Y-97155000D01*
X181092333Y-97106399D01*
X181064803Y-97065197D01*
X181023601Y-97037667D01*
X180975000Y-97028000D01*
X180791775Y-97028000D01*
X180515211Y-96913161D01*
X180166319Y-96912857D01*
X179887650Y-97028000D01*
X179705000Y-97028000D01*
X179656399Y-97037667D01*
X179615197Y-97065197D01*
X179587667Y-97106399D01*
X179578000Y-97155000D01*
X179578000Y-97338213D01*
X179463153Y-97614797D01*
X179463111Y-97663000D01*
X176022000Y-97663000D01*
X176022000Y-95885000D01*
X176012333Y-95836399D01*
X175984803Y-95795197D01*
X175943601Y-95767667D01*
X175895000Y-95758000D01*
X154305000Y-95758000D01*
X154256399Y-95767667D01*
X154215197Y-95795197D01*
X154187667Y-95836399D01*
X154178000Y-95885000D01*
X154178000Y-97663000D01*
X151257000Y-97663000D01*
X151257000Y-96233750D01*
X152233000Y-96233750D01*
X152233000Y-96484935D01*
X152298007Y-96641876D01*
X152418124Y-96761993D01*
X152575064Y-96827000D01*
X152801250Y-96827000D01*
X152908000Y-96720250D01*
X152908000Y-96127000D01*
X153162000Y-96127000D01*
X153162000Y-96720250D01*
X153268750Y-96827000D01*
X153494936Y-96827000D01*
X153651876Y-96761993D01*
X153771993Y-96641876D01*
X153837000Y-96484935D01*
X153837000Y-96233750D01*
X153730250Y-96127000D01*
X153162000Y-96127000D01*
X152908000Y-96127000D01*
X152339750Y-96127000D01*
X152233000Y-96233750D01*
X151257000Y-96233750D01*
X151257000Y-95377000D01*
X152290188Y-95377000D01*
X152233000Y-95515065D01*
X152233000Y-95766250D01*
X152339750Y-95873000D01*
X152908000Y-95873000D01*
X152908000Y-95377000D01*
X153162000Y-95377000D01*
X153162000Y-95873000D01*
X153730250Y-95873000D01*
X153837000Y-95766250D01*
X153837000Y-95725750D01*
X176998000Y-95725750D01*
X176998000Y-95976935D01*
X177063007Y-96133876D01*
X177183124Y-96253993D01*
X177340064Y-96319000D01*
X177566250Y-96319000D01*
X177673000Y-96212250D01*
X177673000Y-95619000D01*
X177927000Y-95619000D01*
X177927000Y-96212250D01*
X178033750Y-96319000D01*
X178259936Y-96319000D01*
X178416876Y-96253993D01*
X178536993Y-96133876D01*
X178602000Y-95976935D01*
X178602000Y-95725750D01*
X182078000Y-95725750D01*
X182078000Y-95976935D01*
X182143007Y-96133876D01*
X182263124Y-96253993D01*
X182420064Y-96319000D01*
X182646250Y-96319000D01*
X182753000Y-96212250D01*
X182753000Y-95619000D01*
X183007000Y-95619000D01*
X183007000Y-96212250D01*
X183113750Y-96319000D01*
X183339936Y-96319000D01*
X183496876Y-96253993D01*
X183616993Y-96133876D01*
X183682000Y-95976935D01*
X183682000Y-95725750D01*
X183575250Y-95619000D01*
X183007000Y-95619000D01*
X182753000Y-95619000D01*
X182184750Y-95619000D01*
X182078000Y-95725750D01*
X178602000Y-95725750D01*
X178495250Y-95619000D01*
X177927000Y-95619000D01*
X177673000Y-95619000D01*
X177104750Y-95619000D01*
X176998000Y-95725750D01*
X153837000Y-95725750D01*
X153837000Y-95515065D01*
X153771993Y-95358124D01*
X153756128Y-95342259D01*
X153759803Y-95339803D01*
X153787333Y-95298601D01*
X153797000Y-95250000D01*
X153797000Y-95089393D01*
X153812225Y-95066607D01*
X153845365Y-94900000D01*
X153845365Y-94742000D01*
X177171131Y-94742000D01*
X177063007Y-94850124D01*
X176998000Y-95007065D01*
X176998000Y-95258250D01*
X177104750Y-95365000D01*
X177673000Y-95365000D01*
X177673000Y-95151738D01*
X177800000Y-95177000D01*
X177927000Y-95151738D01*
X177927000Y-95365000D01*
X178495250Y-95365000D01*
X178602000Y-95258250D01*
X178602000Y-95007065D01*
X178536993Y-94850124D01*
X178428869Y-94742000D01*
X182251131Y-94742000D01*
X182143007Y-94850124D01*
X182078000Y-95007065D01*
X182078000Y-95258250D01*
X182184750Y-95365000D01*
X182753000Y-95365000D01*
X182753000Y-95151738D01*
X182880000Y-95177000D01*
X183007000Y-95151738D01*
X183007000Y-95365000D01*
X183575250Y-95365000D01*
X183682000Y-95258250D01*
X183682000Y-95007065D01*
X183616993Y-94850124D01*
X183508869Y-94742000D01*
X189230000Y-94742000D01*
X189278601Y-94732333D01*
X189319803Y-94704803D01*
X189347333Y-94663601D01*
X189357000Y-94615000D01*
X189357000Y-93676445D01*
X192313161Y-93676445D01*
X192410985Y-93874413D01*
X192909035Y-94049453D01*
X193436157Y-94020572D01*
X193789015Y-93874413D01*
X193886839Y-93676445D01*
X193100000Y-92889605D01*
X192313161Y-93676445D01*
X189357000Y-93676445D01*
X189357000Y-92519035D01*
X191760547Y-92519035D01*
X191789428Y-93046157D01*
X191935587Y-93399015D01*
X192133555Y-93496839D01*
X192920395Y-92710000D01*
X192133555Y-91923161D01*
X191935587Y-92020985D01*
X191760547Y-92519035D01*
X189357000Y-92519035D01*
X189357000Y-91743555D01*
X192313161Y-91743555D01*
X193100000Y-92530395D01*
X193886839Y-91743555D01*
X193789015Y-91545587D01*
X193290965Y-91370547D01*
X192763843Y-91399428D01*
X192410985Y-91545587D01*
X192313161Y-91743555D01*
X189357000Y-91743555D01*
X189357000Y-90932000D01*
X194183000Y-90932000D01*
X194183000Y-91980756D01*
X194183000Y-91980756D01*
G37*
X194183000Y-91980756D02*
X194066445Y-91923161D01*
X193279605Y-92710000D01*
X194066445Y-93496839D01*
X194183000Y-93439244D01*
X194183000Y-97663000D01*
X181217110Y-97663000D01*
X181217151Y-97616327D01*
X181102000Y-97337639D01*
X181102000Y-97155000D01*
X181092333Y-97106399D01*
X181064803Y-97065197D01*
X181023601Y-97037667D01*
X180975000Y-97028000D01*
X180791775Y-97028000D01*
X180515211Y-96913161D01*
X180166319Y-96912857D01*
X179887650Y-97028000D01*
X179705000Y-97028000D01*
X179656399Y-97037667D01*
X179615197Y-97065197D01*
X179587667Y-97106399D01*
X179578000Y-97155000D01*
X179578000Y-97338213D01*
X179463153Y-97614797D01*
X179463111Y-97663000D01*
X176022000Y-97663000D01*
X176022000Y-95885000D01*
X176012333Y-95836399D01*
X175984803Y-95795197D01*
X175943601Y-95767667D01*
X175895000Y-95758000D01*
X154305000Y-95758000D01*
X154256399Y-95767667D01*
X154215197Y-95795197D01*
X154187667Y-95836399D01*
X154178000Y-95885000D01*
X154178000Y-97663000D01*
X151257000Y-97663000D01*
X151257000Y-96233750D01*
X152233000Y-96233750D01*
X152233000Y-96484935D01*
X152298007Y-96641876D01*
X152418124Y-96761993D01*
X152575064Y-96827000D01*
X152801250Y-96827000D01*
X152908000Y-96720250D01*
X152908000Y-96127000D01*
X153162000Y-96127000D01*
X153162000Y-96720250D01*
X153268750Y-96827000D01*
X153494936Y-96827000D01*
X153651876Y-96761993D01*
X153771993Y-96641876D01*
X153837000Y-96484935D01*
X153837000Y-96233750D01*
X153730250Y-96127000D01*
X153162000Y-96127000D01*
X152908000Y-96127000D01*
X152339750Y-96127000D01*
X152233000Y-96233750D01*
X151257000Y-96233750D01*
X151257000Y-95377000D01*
X152290188Y-95377000D01*
X152233000Y-95515065D01*
X152233000Y-95766250D01*
X152339750Y-95873000D01*
X152908000Y-95873000D01*
X152908000Y-95377000D01*
X153162000Y-95377000D01*
X153162000Y-95873000D01*
X153730250Y-95873000D01*
X153837000Y-95766250D01*
X153837000Y-95725750D01*
X176998000Y-95725750D01*
X176998000Y-95976935D01*
X177063007Y-96133876D01*
X177183124Y-96253993D01*
X177340064Y-96319000D01*
X177566250Y-96319000D01*
X177673000Y-96212250D01*
X177673000Y-95619000D01*
X177927000Y-95619000D01*
X177927000Y-96212250D01*
X178033750Y-96319000D01*
X178259936Y-96319000D01*
X178416876Y-96253993D01*
X178536993Y-96133876D01*
X178602000Y-95976935D01*
X178602000Y-95725750D01*
X182078000Y-95725750D01*
X182078000Y-95976935D01*
X182143007Y-96133876D01*
X182263124Y-96253993D01*
X182420064Y-96319000D01*
X182646250Y-96319000D01*
X182753000Y-96212250D01*
X182753000Y-95619000D01*
X183007000Y-95619000D01*
X183007000Y-96212250D01*
X183113750Y-96319000D01*
X183339936Y-96319000D01*
X183496876Y-96253993D01*
X183616993Y-96133876D01*
X183682000Y-95976935D01*
X183682000Y-95725750D01*
X183575250Y-95619000D01*
X183007000Y-95619000D01*
X182753000Y-95619000D01*
X182184750Y-95619000D01*
X182078000Y-95725750D01*
X178602000Y-95725750D01*
X178495250Y-95619000D01*
X177927000Y-95619000D01*
X177673000Y-95619000D01*
X177104750Y-95619000D01*
X176998000Y-95725750D01*
X153837000Y-95725750D01*
X153837000Y-95515065D01*
X153771993Y-95358124D01*
X153756128Y-95342259D01*
X153759803Y-95339803D01*
X153787333Y-95298601D01*
X153797000Y-95250000D01*
X153797000Y-95089393D01*
X153812225Y-95066607D01*
X153845365Y-94900000D01*
X153845365Y-94742000D01*
X177171131Y-94742000D01*
X177063007Y-94850124D01*
X176998000Y-95007065D01*
X176998000Y-95258250D01*
X177104750Y-95365000D01*
X177673000Y-95365000D01*
X177673000Y-95151738D01*
X177800000Y-95177000D01*
X177927000Y-95151738D01*
X177927000Y-95365000D01*
X178495250Y-95365000D01*
X178602000Y-95258250D01*
X178602000Y-95007065D01*
X178536993Y-94850124D01*
X178428869Y-94742000D01*
X182251131Y-94742000D01*
X182143007Y-94850124D01*
X182078000Y-95007065D01*
X182078000Y-95258250D01*
X182184750Y-95365000D01*
X182753000Y-95365000D01*
X182753000Y-95151738D01*
X182880000Y-95177000D01*
X183007000Y-95151738D01*
X183007000Y-95365000D01*
X183575250Y-95365000D01*
X183682000Y-95258250D01*
X183682000Y-95007065D01*
X183616993Y-94850124D01*
X183508869Y-94742000D01*
X189230000Y-94742000D01*
X189278601Y-94732333D01*
X189319803Y-94704803D01*
X189347333Y-94663601D01*
X189357000Y-94615000D01*
X189357000Y-93676445D01*
X192313161Y-93676445D01*
X192410985Y-93874413D01*
X192909035Y-94049453D01*
X193436157Y-94020572D01*
X193789015Y-93874413D01*
X193886839Y-93676445D01*
X193100000Y-92889605D01*
X192313161Y-93676445D01*
X189357000Y-93676445D01*
X189357000Y-92519035D01*
X191760547Y-92519035D01*
X191789428Y-93046157D01*
X191935587Y-93399015D01*
X192133555Y-93496839D01*
X192920395Y-92710000D01*
X192133555Y-91923161D01*
X191935587Y-92020985D01*
X191760547Y-92519035D01*
X189357000Y-92519035D01*
X189357000Y-91743555D01*
X192313161Y-91743555D01*
X193100000Y-92530395D01*
X193886839Y-91743555D01*
X193789015Y-91545587D01*
X193290965Y-91370547D01*
X192763843Y-91399428D01*
X192410985Y-91545587D01*
X192313161Y-91743555D01*
X189357000Y-91743555D01*
X189357000Y-90932000D01*
X194183000Y-90932000D01*
X194183000Y-91980756D01*
G36*
X175133000Y-71172606D02*
X175133000Y-76200000D01*
X175142667Y-76248601D01*
X175170197Y-76289803D01*
X175211399Y-76317333D01*
X175260000Y-76327000D01*
X190373000Y-76327000D01*
X190373000Y-83693000D01*
X183560980Y-83693000D01*
X179786303Y-80547436D01*
X179742778Y-80523749D01*
X179705000Y-80518000D01*
X176513290Y-80518000D01*
X174997645Y-79002355D01*
X174826675Y-78888115D01*
X174625000Y-78848000D01*
X170893103Y-78848000D01*
X170677429Y-78631949D01*
X170355211Y-78498153D01*
X170006319Y-78497849D01*
X169683869Y-78631082D01*
X169436949Y-78877571D01*
X169303153Y-79199789D01*
X169302849Y-79548681D01*
X169436082Y-79871131D01*
X169682571Y-80118051D01*
X170004789Y-80251847D01*
X170353681Y-80252151D01*
X170676131Y-80118918D01*
X170893428Y-79902000D01*
X174406710Y-79902000D01*
X175135772Y-80631062D01*
X175133000Y-80645000D01*
X175133000Y-83693000D01*
X164886000Y-83693000D01*
X164886000Y-83630750D01*
X164779250Y-83524000D01*
X164271500Y-83524000D01*
X164271500Y-83693000D01*
X163896500Y-83693000D01*
X163896500Y-83524000D01*
X163388750Y-83524000D01*
X163282000Y-83630750D01*
X163282000Y-83693000D01*
X158877000Y-83693000D01*
X158877000Y-82839065D01*
X163282000Y-82839065D01*
X163282000Y-83017250D01*
X163388750Y-83124000D01*
X163896500Y-83124000D01*
X163896500Y-82603750D01*
X164271500Y-82603750D01*
X164271500Y-83124000D01*
X164779250Y-83124000D01*
X164886000Y-83017250D01*
X164886000Y-82839065D01*
X164820993Y-82682124D01*
X164700876Y-82562007D01*
X164543936Y-82497000D01*
X164378250Y-82497000D01*
X164271500Y-82603750D01*
X163896500Y-82603750D01*
X163789750Y-82497000D01*
X163624064Y-82497000D01*
X163467124Y-82562007D01*
X163347007Y-82682124D01*
X163282000Y-82839065D01*
X158877000Y-82839065D01*
X158877000Y-74930000D01*
X161887000Y-74930000D01*
X161957564Y-75284748D01*
X162158512Y-75585488D01*
X162459252Y-75786436D01*
X162649000Y-75824179D01*
X162649000Y-76454000D01*
X162719564Y-76808748D01*
X162920512Y-77109488D01*
X163221252Y-77310436D01*
X163576000Y-77381000D01*
X163930748Y-77310436D01*
X164231488Y-77109488D01*
X164432436Y-76808748D01*
X164503000Y-76454000D01*
X164503000Y-76342711D01*
X164535365Y-76180000D01*
X164535365Y-75661750D01*
X165673000Y-75661750D01*
X165673000Y-76264936D01*
X165738007Y-76421876D01*
X165858124Y-76541993D01*
X166015065Y-76607000D01*
X166243250Y-76607000D01*
X166350000Y-76500250D01*
X166350000Y-75555000D01*
X166850000Y-75555000D01*
X166850000Y-76500250D01*
X166956750Y-76607000D01*
X167184935Y-76607000D01*
X167341876Y-76541993D01*
X167461993Y-76421876D01*
X167527000Y-76264936D01*
X167527000Y-75661750D01*
X167420250Y-75555000D01*
X166850000Y-75555000D01*
X166350000Y-75555000D01*
X165779750Y-75555000D01*
X165673000Y-75661750D01*
X164535365Y-75661750D01*
X164535365Y-73680000D01*
X164518471Y-73595064D01*
X165673000Y-73595064D01*
X165673000Y-74198250D01*
X165779750Y-74305000D01*
X166350000Y-74305000D01*
X166350000Y-73359750D01*
X166850000Y-73359750D01*
X166850000Y-74305000D01*
X167420250Y-74305000D01*
X167527000Y-74198250D01*
X167527000Y-73595064D01*
X167461993Y-73438124D01*
X167341876Y-73318007D01*
X167184935Y-73253000D01*
X166956750Y-73253000D01*
X166850000Y-73359750D01*
X166350000Y-73359750D01*
X166243250Y-73253000D01*
X166015065Y-73253000D01*
X165858124Y-73318007D01*
X165738007Y-73438124D01*
X165673000Y-73595064D01*
X164518471Y-73595064D01*
X164503000Y-73517289D01*
X164503000Y-73406000D01*
X164432436Y-73051252D01*
X164231488Y-72750512D01*
X163930748Y-72549564D01*
X163576000Y-72479000D01*
X163221252Y-72549564D01*
X162920512Y-72750512D01*
X162719564Y-73051252D01*
X162649000Y-73406000D01*
X162649000Y-74035821D01*
X162459252Y-74073564D01*
X162158512Y-74274512D01*
X161957564Y-74575252D01*
X161887000Y-74930000D01*
X158877000Y-74930000D01*
X158877000Y-67437000D01*
X171397394Y-67437000D01*
X175133000Y-71172606D01*
X175133000Y-71172606D01*
G37*
X175133000Y-71172606D02*
X175133000Y-76200000D01*
X175142667Y-76248601D01*
X175170197Y-76289803D01*
X175211399Y-76317333D01*
X175260000Y-76327000D01*
X190373000Y-76327000D01*
X190373000Y-83693000D01*
X183560980Y-83693000D01*
X179786303Y-80547436D01*
X179742778Y-80523749D01*
X179705000Y-80518000D01*
X176513290Y-80518000D01*
X174997645Y-79002355D01*
X174826675Y-78888115D01*
X174625000Y-78848000D01*
X170893103Y-78848000D01*
X170677429Y-78631949D01*
X170355211Y-78498153D01*
X170006319Y-78497849D01*
X169683869Y-78631082D01*
X169436949Y-78877571D01*
X169303153Y-79199789D01*
X169302849Y-79548681D01*
X169436082Y-79871131D01*
X169682571Y-80118051D01*
X170004789Y-80251847D01*
X170353681Y-80252151D01*
X170676131Y-80118918D01*
X170893428Y-79902000D01*
X174406710Y-79902000D01*
X175135772Y-80631062D01*
X175133000Y-80645000D01*
X175133000Y-83693000D01*
X164886000Y-83693000D01*
X164886000Y-83630750D01*
X164779250Y-83524000D01*
X164271500Y-83524000D01*
X164271500Y-83693000D01*
X163896500Y-83693000D01*
X163896500Y-83524000D01*
X163388750Y-83524000D01*
X163282000Y-83630750D01*
X163282000Y-83693000D01*
X158877000Y-83693000D01*
X158877000Y-82839065D01*
X163282000Y-82839065D01*
X163282000Y-83017250D01*
X163388750Y-83124000D01*
X163896500Y-83124000D01*
X163896500Y-82603750D01*
X164271500Y-82603750D01*
X164271500Y-83124000D01*
X164779250Y-83124000D01*
X164886000Y-83017250D01*
X164886000Y-82839065D01*
X164820993Y-82682124D01*
X164700876Y-82562007D01*
X164543936Y-82497000D01*
X164378250Y-82497000D01*
X164271500Y-82603750D01*
X163896500Y-82603750D01*
X163789750Y-82497000D01*
X163624064Y-82497000D01*
X163467124Y-82562007D01*
X163347007Y-82682124D01*
X163282000Y-82839065D01*
X158877000Y-82839065D01*
X158877000Y-74930000D01*
X161887000Y-74930000D01*
X161957564Y-75284748D01*
X162158512Y-75585488D01*
X162459252Y-75786436D01*
X162649000Y-75824179D01*
X162649000Y-76454000D01*
X162719564Y-76808748D01*
X162920512Y-77109488D01*
X163221252Y-77310436D01*
X163576000Y-77381000D01*
X163930748Y-77310436D01*
X164231488Y-77109488D01*
X164432436Y-76808748D01*
X164503000Y-76454000D01*
X164503000Y-76342711D01*
X164535365Y-76180000D01*
X164535365Y-75661750D01*
X165673000Y-75661750D01*
X165673000Y-76264936D01*
X165738007Y-76421876D01*
X165858124Y-76541993D01*
X166015065Y-76607000D01*
X166243250Y-76607000D01*
X166350000Y-76500250D01*
X166350000Y-75555000D01*
X166850000Y-75555000D01*
X166850000Y-76500250D01*
X166956750Y-76607000D01*
X167184935Y-76607000D01*
X167341876Y-76541993D01*
X167461993Y-76421876D01*
X167527000Y-76264936D01*
X167527000Y-75661750D01*
X167420250Y-75555000D01*
X166850000Y-75555000D01*
X166350000Y-75555000D01*
X165779750Y-75555000D01*
X165673000Y-75661750D01*
X164535365Y-75661750D01*
X164535365Y-73680000D01*
X164518471Y-73595064D01*
X165673000Y-73595064D01*
X165673000Y-74198250D01*
X165779750Y-74305000D01*
X166350000Y-74305000D01*
X166350000Y-73359750D01*
X166850000Y-73359750D01*
X166850000Y-74305000D01*
X167420250Y-74305000D01*
X167527000Y-74198250D01*
X167527000Y-73595064D01*
X167461993Y-73438124D01*
X167341876Y-73318007D01*
X167184935Y-73253000D01*
X166956750Y-73253000D01*
X166850000Y-73359750D01*
X166350000Y-73359750D01*
X166243250Y-73253000D01*
X166015065Y-73253000D01*
X165858124Y-73318007D01*
X165738007Y-73438124D01*
X165673000Y-73595064D01*
X164518471Y-73595064D01*
X164503000Y-73517289D01*
X164503000Y-73406000D01*
X164432436Y-73051252D01*
X164231488Y-72750512D01*
X163930748Y-72549564D01*
X163576000Y-72479000D01*
X163221252Y-72549564D01*
X162920512Y-72750512D01*
X162719564Y-73051252D01*
X162649000Y-73406000D01*
X162649000Y-74035821D01*
X162459252Y-74073564D01*
X162158512Y-74274512D01*
X161957564Y-74575252D01*
X161887000Y-74930000D01*
X158877000Y-74930000D01*
X158877000Y-67437000D01*
X171397394Y-67437000D01*
X175133000Y-71172606D01*
M02*
